AndadaDeva HT-Regular.ufo
<glyph name="exclam" format="1">
  <advance width="229"/>
  <unicode hex="0021"/>
  <outline>
    <contour>
      <point x="92" y="-10"/>
      <point x="70" y="14"/>
      <point x="70" y="55" type="curve" smooth="yes"/>
      <point x="70" y="93"/>
      <point x="91" y="119"/>
      <point x="129" y="119" type="curve" smooth="yes"/>
      <point x="167" y="119"/>
      <point x="188" y="93"/>
      <point x="188" y="55" type="curve" smooth="yes"/>
      <point x="188" y="17"/>
      <point x="167" y="-10"/>
      <point x="129" y="-10" type="curve" smooth="yes"/>
    </contour>
    <contour>
      <point x="166" y="223" type="line"/>
      <point x="166" y="223"/>
      <point x="163" y="278"/>
      <point x="163" y="308" type="curve" smooth="yes"/>
      <point x="163" y="465"/>
      <point x="188" y="702"/>
      <point x="188" y="702" type="curve"/>
      <point x="169" y="720" type="line"/>
      <point x="79" y="713" type="line"/>
      <point x="88" y="286" type="line" smooth="yes"/>
      <point x="88" y="256"/>
      <point x="87" y="220"/>
      <point x="87" y="220" type="curve"/>
      <point x="126" y="220"/>
      <point x="153" y="218"/>
      <point x="159" y="217" type="curve"/>
    </contour>
  </outline>
</glyph>
<glyph name="numbersign" format="1">
  <advance width="570"/>
  <unicode hex="0023"/>
  <outline>
    <contour>
      <point x="414" y="341" type="line"/>
      <point x="547" y="342" type="line"/>
      <point x="547" y="408" type="line"/>
      <point x="425" y="408" type="line"/>
      <point x="449" y="562" type="line"/>
      <point x="389" y="572" type="line"/>
      <point x="363" y="408" type="line"/>
      <point x="253" y="408" type="line"/>
      <point x="277" y="562" type="line"/>
      <point x="217" y="572" type="line"/>
      <point x="191" y="408" type="line"/>
      <point x="52" y="408" type="line"/>
      <point x="52" y="337" type="line"/>
      <point x="180" y="338" type="line"/>
      <point x="161" y="217" type="line"/>
      <point x="32" y="216" type="line"/>
      <point x="32" y="150" type="line"/>
      <point x="150" y="150" type="line"/>
      <point x="126" y="-5" type="line"/>
      <point x="186" y="-15" type="line"/>
      <point x="212" y="150" type="line"/>
      <point x="322" y="150" type="line"/>
      <point x="298" y="-5" type="line"/>
      <point x="358" y="-15" type="line"/>
      <point x="384" y="150" type="line"/>
      <point x="527" y="150" type="line"/>
      <point x="527" y="221" type="line"/>
      <point x="395" y="220" type="line"/>
    </contour>
    <contour>
      <point x="353" y="340" type="line"/>
      <point x="334" y="219" type="line"/>
      <point x="223" y="218" type="line"/>
      <point x="242" y="339" type="line"/>
    </contour>
  </outline>
</glyph>
<glyph name="dollar" format="1">
  <advance width="521"/>
  <unicode hex="0024"/>
  <outline>
    <contour>
      <point x="471" y="275"/>
      <point x="386" y="321"/>
      <point x="308" y="364" type="curve" smooth="yes"/>
      <point x="280" y="379" type="line"/>
      <point x="289" y="607" type="line"/>
      <point x="312" y="605"/>
      <point x="332" y="599"/>
      <point x="357" y="589" type="curve"/>
      <point x="363" y="568"/>
      <point x="370" y="549"/>
      <point x="370" y="540" type="curve" smooth="yes"/>
      <point x="369" y="493" type="line"/>
      <point x="423" y="487" type="line"/>
      <point x="438" y="631" type="line"/>
      <point x="392" y="643"/>
      <point x="340" y="655"/>
      <point x="291" y="659" type="curve"/>
      <point x="295" y="756" type="line"/>
      <point x="261" y="759" type="line"/>
      <point x="257" y="661" type="line"/>
      <point x="255" y="661" type="line" smooth="yes"/>
      <point x="139" y="661"/>
      <point x="54" y="602"/>
      <point x="54" y="493" type="curve" smooth="yes"/>
      <point x="54" y="392"/>
      <point x="138" y="341"/>
      <point x="212" y="306" type="curve" smooth="yes"/>
      <point x="242" y="292" type="line"/>
      <point x="232" y="49" type="line"/>
      <point x="194" y="52"/>
      <point x="162" y="61"/>
      <point x="136" y="71" type="curve"/>
      <point x="132" y="91"/>
      <point x="126" y="118"/>
      <point x="126" y="129" type="curve" smooth="yes"/>
      <point x="127" y="183" type="line"/>
      <point x="65" y="189" type="line"/>
      <point x="50" y="39" type="line"/>
      <point x="50" y="39"/>
      <point x="119" y="-4"/>
      <point x="229" y="-9" type="curve"/>
      <point x="226" y="-89" type="line"/>
      <point x="261" y="-92" type="line"/>
      <point x="264" y="-10" type="line"/>
      <point x="380" y="-6"/>
      <point x="471" y="54"/>
      <point x="471" y="168" type="curve" smooth="yes"/>
    </contour>
    <contour>
      <point x="147" y="575"/>
      <point x="194" y="609"/>
      <point x="252" y="609" type="curve" smooth="yes"/>
      <point x="255" y="609" type="line"/>
      <point x="246" y="397" type="line"/>
      <point x="192" y="426"/>
      <point x="147" y="457"/>
      <point x="147" y="510" type="curve" smooth="yes"/>
    </contour>
    <contour>
      <point x="276" y="276" type="line"/>
      <point x="331" y="247"/>
      <point x="373" y="213"/>
      <point x="373" y="158" type="curve" smooth="yes"/>
      <point x="373" y="91"/>
      <point x="332" y="53"/>
      <point x="267" y="48" type="curve"/>
    </contour>
  </outline>
</glyph>
<glyph name="ampersand" format="1">
  <advance width="725"/>
  <unicode hex="0026"/>
  <outline>
    <contour>
      <point x="202" y="662"/>
      <point x="122" y="624"/>
      <point x="122" y="522" type="curve" smooth="yes"/>
      <point x="122" y="478"/>
      <point x="142" y="433"/>
      <point x="175" y="386" type="curve"/>
      <point x="96" y="339"/>
      <point x="50" y="277"/>
      <point x="50" y="190" type="curve" smooth="yes"/>
      <point x="50" y="66"/>
      <point x="152" y="-10"/>
      <point x="276" y="-10" type="curve" smooth="yes"/>
      <point x="361" y="-10"/>
      <point x="434" y="20"/>
      <point x="485" y="71" type="curve"/>
      <point x="531" y="25" type="line"/>
      <point x="539" y="0" type="line"/>
      <point x="560" y="0" type="line" smooth="yes"/>
      <point x="640" y="0"/>
      <point x="689" y="-5"/>
      <point x="689" y="-5" type="curve"/>
      <point x="696" y="54" type="line"/>
      <point x="617" y="61" type="line"/>
      <point x="595" y="77"/>
      <point x="563" y="100"/>
      <point x="559" y="104" type="curve"/>
      <point x="529" y="132" type="line"/>
      <point x="550" y="171"/>
      <point x="561" y="216"/>
      <point x="561" y="267" type="curve" smooth="yes"/>
      <point x="561" y="307"/>
      <point x="565" y="329"/>
      <point x="566" y="336" type="curve"/>
      <point x="643" y="352" type="line"/>
      <point x="638" y="405" type="line"/>
      <point x="597" y="403"/>
      <point x="557" y="402"/>
      <point x="516" y="400" type="curve"/>
      <point x="486" y="400"/>
      <point x="455" y="400"/>
      <point x="425" y="400" type="curve"/>
      <point x="419" y="342" type="line"/>
      <point x="487" y="336" type="line"/>
      <point x="489" y="327"/>
      <point x="496" y="296"/>
      <point x="496" y="279" type="curve" smooth="yes"/>
      <point x="496" y="241"/>
      <point x="491" y="206"/>
      <point x="480" y="177" type="curve"/>
      <point x="345" y="301"/>
      <point x="210" y="428"/>
      <point x="210" y="522" type="curve" smooth="yes"/>
      <point x="210" y="577"/>
      <point x="249" y="613"/>
      <point x="304" y="613" type="curve" smooth="yes"/>
      <point x="344" y="613"/>
      <point x="372" y="599"/>
      <point x="386" y="588" type="curve"/>
      <point x="386" y="588"/>
      <point x="396" y="547"/>
      <point x="396" y="540" type="curve" smooth="yes"/>
      <point x="396" y="533"/>
      <point x="394" y="494"/>
      <point x="394" y="494" type="curve"/>
      <point x="449" y="491" type="line"/>
      <point x="462" y="631" type="line"/>
      <point x="433" y="642"/>
      <point x="354" y="662"/>
      <point x="304" y="662" type="curve" smooth="yes"/>
    </contour>
    <contour>
      <point x="274" y="264"/>
      <point x="361" y="188"/>
      <point x="441" y="112" type="curve"/>
      <point x="404" y="72"/>
      <point x="349" y="50"/>
      <point x="277" y="50" type="curve" smooth="yes"/>
      <point x="194" y="50"/>
      <point x="139" y="114"/>
      <point x="139" y="197" type="curve" smooth="yes"/>
      <point x="139" y="254"/>
      <point x="161" y="301"/>
      <point x="211" y="339" type="curve"/>
    </contour>
  </outline>
</glyph>
<glyph name="quotesingle" format="1">
  <advance width="159"/>
  <unicode hex="0027"/>
  <outline>
    <contour>
      <point x="124" y="756" type="line"/>
      <point x="111" y="513" type="line"/>
      <point x="53" y="516" type="line"/>
      <point x="54" y="610" type="line"/>
      <point x="53" y="629"/>
      <point x="35" y="756"/>
      <point x="35" y="756" type="curve"/>
    </contour>
  </outline>
</glyph>
<glyph name="parenright" format="1">
  <advance width="271"/>
  <unicode hex="0029"/>
  <outline>
    <contour>
      <point x="139" y="452"/>
      <point x="111" y="549"/>
      <point x="80" y="631" type="curve" smooth="yes"/>
      <point x="72" y="652"/>
      <point x="10" y="743"/>
      <point x="10" y="743" type="curve"/>
      <point x="42" y="769" type="line"/>
      <point x="167" y="644"/>
      <point x="221" y="487"/>
      <point x="221" y="317" type="curve" smooth="yes"/>
      <point x="221" y="147"/>
      <point x="167" y="-10"/>
      <point x="42" y="-135" type="curve"/>
      <point x="10" y="-109" type="line"/>
      <point x="10" y="-109"/>
      <point x="72" y="-18"/>
      <point x="80" y="3" type="curve" smooth="yes"/>
      <point x="111" y="85"/>
      <point x="139" y="182"/>
      <point x="139" y="317" type="curve" smooth="yes"/>
    </contour>
  </outline>
</glyph>
<glyph name="asterisk" format="1">
  <advance width="409"/>
  <unicode hex="002A"/>
  <outline>
    <contour>
      <point x="365" y="643" type="line"/>
      <point x="339" y="678" type="line"/>
      <point x="290" y="650" type="line"/>
      <point x="286" y="647"/>
      <point x="257" y="636"/>
      <point x="234" y="627" type="curve"/>
      <point x="222" y="746" type="line"/>
      <point x="179" y="741" type="line"/>
      <point x="179" y="685" type="line" smooth="yes"/>
      <point x="179" y="680"/>
      <point x="174" y="649"/>
      <point x="170" y="625" type="curve"/>
      <point x="61" y="674" type="line"/>
      <point x="44" y="634" type="line"/>
      <point x="92" y="607" type="line"/>
      <point x="96" y="604"/>
      <point x="121" y="585"/>
      <point x="141" y="569" type="curve"/>
      <point x="43" y="499" type="line"/>
      <point x="69" y="464" type="line"/>
      <point x="117" y="492" type="line"/>
      <point x="121" y="494"/>
      <point x="151" y="506"/>
      <point x="174" y="515" type="curve"/>
      <point x="186" y="396" type="line"/>
      <point x="229" y="401" type="line"/>
      <point x="229" y="456" type="line" smooth="yes"/>
      <point x="229" y="461"/>
      <point x="234" y="492"/>
      <point x="237" y="517" type="curve"/>
      <point x="347" y="468" type="line"/>
      <point x="364" y="508" type="line"/>
      <point x="315" y="536" type="line"/>
      <point x="311" y="538"/>
      <point x="287" y="558"/>
      <point x="267" y="573" type="curve"/>
    </contour>
  </outline>
</glyph>
<glyph name="slash" format="1">
  <advance width="376"/>
  <unicode hex="002F"/>
  <outline>
    <contour>
      <point x="318" y="773" type="line"/>
      <point x="7" y="-47" type="line"/>
      <point x="71" y="-67" type="line"/>
      <point x="381" y="753" type="line"/>
    </contour>
  </outline>
</glyph>
<glyph name="zero" format="1">
  <advance width="580"/>
  <unicode hex="0030"/>
  <outline>
    <contour>
      <point x="50" y="506"/>
      <point x="117" y="662"/>
      <point x="290" y="662" type="curve" smooth="yes"/>
      <point x="463" y="662"/>
      <point x="530" y="506"/>
      <point x="530" y="326" type="curve"/>
      <point x="530" y="146"/>
      <point x="463" y="-10"/>
      <point x="290" y="-10" type="curve" smooth="yes"/>
      <point x="117" y="-10"/>
      <point x="50" y="146"/>
      <point x="50" y="326" type="curve"/>
    </contour>
    <contour>
      <point x="431" y="454"/>
      <point x="408" y="602"/>
      <point x="290" y="602" type="curve" smooth="yes"/>
      <point x="172" y="602"/>
      <point x="149" y="454"/>
      <point x="149" y="326" type="curve"/>
      <point x="149" y="198"/>
      <point x="172" y="50"/>
      <point x="290" y="50" type="curve" smooth="yes"/>
      <point x="408" y="50"/>
      <point x="431" y="198"/>
      <point x="431" y="326" type="curve" smooth="yes"/>
    </contour>
  </outline>
</glyph>
<glyph name="one" format="1">
  <advance width="389"/>
  <unicode hex="0031"/>
  <outline>
    <contour>
      <point x="337" y="54" type="line"/>
      <point x="255" y="61" type="line"/>
      <point x="253" y="75"/>
      <point x="248" y="125"/>
      <point x="248" y="167" type="curve" smooth="yes"/>
      <point x="248" y="426" type="line" smooth="yes"/>
      <point x="248" y="476"/>
      <point x="255" y="660"/>
      <point x="255" y="660" type="curve"/>
      <point x="208" y="672" type="line"/>
      <point x="208" y="672"/>
      <point x="172" y="624"/>
      <point x="161" y="615" type="curve" smooth="yes"/>
      <point x="24" y="507" type="line"/>
      <point x="51" y="465" type="line"/>
      <point x="165" y="524" type="line"/>
      <point x="165" y="137" type="line" smooth="yes"/>
      <point x="165" y="120"/>
      <point x="158" y="74"/>
      <point x="156" y="61" type="curve"/>
      <point x="57" y="45" type="line"/>
      <point x="62" y="-5" type="line"/>
      <point x="62" y="-5"/>
      <point x="177" y="0"/>
      <point x="197" y="0" type="curve" smooth="yes"/>
      <point x="277" y="0"/>
      <point x="330" y="-5"/>
      <point x="330" y="-5" type="curve"/>
    </contour>
  </outline>
</glyph>
<glyph name="five" format="1">
  <advance width="462"/>
  <unicode hex="0035"/>
  <outline>
    <contour>
      <point x="157" y="652" type="line"/>
      <point x="89" y="652" type="line"/>
      <point x="70" y="634" type="line"/>
      <point x="70" y="634"/>
      <point x="53" y="305"/>
      <point x="53" y="305" type="curve"/>
      <point x="90" y="284" type="line"/>
      <point x="132" y="294"/>
      <point x="162" y="297"/>
      <point x="186" y="297" type="curve" smooth="yes"/>
      <point x="280" y="297"/>
      <point x="332" y="251"/>
      <point x="332" y="166" type="curve" smooth="yes"/>
      <point x="332" y="37"/>
      <point x="203" y="-29"/>
      <point x="42" y="-52" type="curve"/>
      <point x="60" y="-105" type="line"/>
      <point x="269" y="-83"/>
      <point x="427" y="11"/>
      <point x="427" y="176" type="curve" smooth="yes"/>
      <point x="427" y="300"/>
      <point x="339" y="364"/>
      <point x="204" y="364" type="curve" smooth="yes"/>
      <point x="173" y="364"/>
      <point x="145" y="360"/>
      <point x="122" y="355" type="curve"/>
      <point x="125" y="445"/>
      <point x="134" y="572"/>
      <point x="134" y="572" type="curve"/>
      <point x="198" y="572" type="line" smooth="yes"/>
      <point x="228" y="572"/>
      <point x="406" y="595"/>
      <point x="406" y="595" type="curve"/>
      <point x="400" y="662" type="line"/>
    </contour>
  </outline>
</glyph>
<glyph name="six" format="1">
  <advance width="522"/>
  <unicode hex="0036"/>
  <outline>
    <contour>
      <point x="418" y="403"/>
      <point x="497" y="329"/>
      <point x="497" y="200" type="curve" smooth="yes"/>
      <point x="497" y="78"/>
      <point x="398" y="-11"/>
      <point x="276" y="-11" type="curve" smooth="yes"/>
      <point x="126" y="-11"/>
      <point x="45" y="96"/>
      <point x="45" y="246" type="curve" smooth="yes"/>
      <point x="45" y="457"/>
      <point x="182" y="693"/>
      <point x="470" y="747" type="curve"/>
      <point x="482" y="696" type="line"/>
      <point x="220" y="620"/>
      <point x="139" y="417"/>
      <point x="139" y="246" type="curve" smooth="yes"/>
      <point x="139" y="150"/>
      <point x="180" y="46"/>
      <point x="276" y="46" type="curve" smooth="yes"/>
      <point x="356" y="46"/>
      <point x="402" y="120"/>
      <point x="402" y="200" type="curve" smooth="yes"/>
      <point x="402" y="281"/>
      <point x="361" y="344"/>
      <point x="280" y="344" type="curve"/>
      <point x="260" y="344"/>
      <point x="215" y="339"/>
      <point x="215" y="339" type="curve"/>
      <point x="209" y="387" type="line"/>
      <point x="209" y="387"/>
      <point x="256" y="403"/>
      <point x="289" y="403" type="curve"/>
    </contour>
  </outline>
</glyph>
<glyph name="eight" format="1">
  <advance width="520"/>
  <unicode hex="0038"/>
  <outline>
    <contour>
      <point x="390" y="381"/>
      <point x="458" y="440"/>
      <point x="458" y="519" type="curve" smooth="yes"/>
      <point x="458" y="624"/>
      <point x="362" y="682"/>
      <point x="260" y="682" type="curve" smooth="yes"/>
      <point x="156" y="682"/>
      <point x="62" y="623"/>
      <point x="62" y="521" type="curve" smooth="yes"/>
      <point x="62" y="433"/>
      <point x="117" y="384"/>
      <point x="181" y="347" type="curve"/>
      <point x="119" y="311"/>
      <point x="40" y="249"/>
      <point x="40" y="164" type="curve" smooth="yes"/>
      <point x="40" y="45"/>
      <point x="144" y="-10"/>
      <point x="260" y="-10" type="curve" smooth="yes"/>
      <point x="378" y="-10"/>
      <point x="480" y="47"/>
      <point x="480" y="162" type="curve" smooth="yes"/>
      <point x="480" y="257"/>
      <point x="411" y="309"/>
      <point x="336" y="348" type="curve"/>
    </contour>
    <contour>
      <point x="323" y="635"/>
      <point x="371" y="585"/>
      <point x="371" y="519" type="curve" smooth="yes"/>
      <point x="371" y="451"/>
      <point x="324" y="399"/>
      <point x="289" y="371" type="curve"/>
      <point x="288" y="372" type="line"/>
      <point x="215" y="412"/>
      <point x="149" y="446"/>
      <point x="149" y="523" type="curve" smooth="yes"/>
      <point x="149" y="584"/>
      <point x="202" y="635"/>
      <point x="260" y="635" type="curve" smooth="yes"/>
    </contour>
    <contour>
      <point x="186" y="37"/>
      <point x="131" y="87"/>
      <point x="131" y="164" type="curve" smooth="yes"/>
      <point x="131" y="235"/>
      <point x="190" y="289"/>
      <point x="234" y="320" type="curve"/>
      <point x="242" y="316" type="line"/>
      <point x="318" y="274"/>
      <point x="389" y="235"/>
      <point x="389" y="160" type="curve" smooth="yes"/>
      <point x="389" y="87"/>
      <point x="330" y="37"/>
      <point x="260" y="37" type="curve" smooth="yes"/>
    </contour>
  </outline>
</glyph>
<glyph name="colon" format="1">
  <advance width="203"/>
  <unicode hex="003A"/>
  <outline>
    <contour>
      <point x="136" y="472"/>
      <point x="158" y="448"/>
      <point x="158" y="407" type="curve" smooth="yes"/>
      <point x="158" y="369"/>
      <point x="137" y="343"/>
      <point x="99" y="343" type="curve" smooth="yes"/>
      <point x="61" y="343"/>
      <point x="40" y="369"/>
      <point x="40" y="407" type="curve" smooth="yes"/>
      <point x="40" y="445"/>
      <point x="61" y="472"/>
      <point x="99" y="472" type="curve" smooth="yes"/>
    </contour>
    <contour>
      <point x="136" y="119"/>
      <point x="158" y="95"/>
      <point x="158" y="54" type="curve" smooth="yes"/>
      <point x="158" y="16"/>
      <point x="137" y="-10"/>
      <point x="99" y="-10" type="curve" smooth="yes"/>
      <point x="61" y="-10"/>
      <point x="40" y="16"/>
      <point x="40" y="54" type="curve" smooth="yes"/>
      <point x="40" y="92"/>
      <point x="61" y="119"/>
      <point x="99" y="119" type="curve" smooth="yes"/>
    </contour>
  </outline>
</glyph>
<glyph name="equal" format="1">
  <advance width="560"/>
  <unicode hex="003D"/>
  <outline>
    <contour>
      <point x="507" y="378" type="line"/>
      <point x="507" y="312" type="line"/>
      <point x="52" y="307" type="line"/>
      <point x="52" y="378" type="line"/>
    </contour>
    <contour>
      <point x="52" y="119" type="line"/>
      <point x="52" y="185" type="line"/>
      <point x="507" y="190" type="line"/>
      <point x="507" y="119" type="line"/>
    </contour>
  </outline>
</glyph>
<glyph name="greater" format="1">
  <advance width="560"/>
  <unicode hex="003E"/>
  <outline>
    <contour>
      <point x="155" y="-15" type="line"/>
      <point x="458" y="247" type="line"/>
      <point x="156" y="513" type="line"/>
      <point x="103" y="460" type="line"/>
      <point x="356" y="248" type="line"/>
      <point x="102" y="38" type="line"/>
    </contour>
  </outline>
</glyph>
<glyph name="question" format="1">
  <advance width="403"/>
  <unicode hex="003F"/>
  <outline>
    <contour>
      <point x="118" y="-10"/>
      <point x="96" y="14"/>
      <point x="96" y="55" type="curve" smooth="yes"/>
      <point x="96" y="93"/>
      <point x="117" y="119"/>
      <point x="155" y="119" type="curve" smooth="yes"/>
      <point x="193" y="119"/>
      <point x="214" y="93"/>
      <point x="214" y="55" type="curve" smooth="yes"/>
      <point x="214" y="17"/>
      <point x="193" y="-10"/>
      <point x="155" y="-10" type="curve" smooth="yes"/>
    </contour>
    <contour>
      <point x="316" y="597"/>
      <point x="277" y="670"/>
      <point x="191" y="670" type="curve" smooth="yes"/>
      <point x="163" y="670"/>
      <point x="136" y="666"/>
      <point x="107" y="644" type="curve"/>
      <point x="103" y="630"/>
      <point x="101" y="593"/>
      <point x="101" y="586" type="curve" smooth="yes"/>
      <point x="103" y="550" type="line"/>
      <point x="45" y="550" type="line"/>
      <point x="33" y="688" type="line"/>
      <point x="85" y="712"/>
      <point x="131" y="727"/>
      <point x="190" y="727" type="curve" smooth="yes"/>
      <point x="326" y="727"/>
      <point x="410" y="646"/>
      <point x="410" y="510" type="curve" smooth="yes"/>
      <point x="410" y="385"/>
      <point x="313" y="311"/>
      <point x="188" y="311" type="curve"/>
      <point x="192" y="223" type="line"/>
      <point x="185" y="217" type="line"/>
      <point x="179" y="218"/>
      <point x="147" y="220"/>
      <point x="117" y="220" type="curve"/>
      <point x="113" y="223" type="line"/>
      <point x="113" y="352" type="line"/>
      <point x="139" y="376" type="line"/>
      <point x="154" y="374"/>
      <point x="178" y="372"/>
      <point x="190" y="372" type="curve" smooth="yes"/>
      <point x="270" y="372"/>
      <point x="316" y="431"/>
      <point x="316" y="511" type="curve" smooth="yes"/>
    </contour>
  </outline>
</glyph>
<glyph name="at" format="1">
  <advance width="912"/>
  <unicode hex="0040"/>
  <outline>
    <contour>
      <point x="592" y="10" type="line"/>
      <point x="610" y="-4" type="line"/>
      <point x="780" y="10"/>
      <point x="872" y="152"/>
      <point x="872" y="287" type="curve" smooth="yes"/>
      <point x="872" y="527"/>
      <point x="710" y="667"/>
      <point x="461" y="667" type="curve" smooth="yes"/>
      <point x="153" y="667"/>
      <point x="40" y="447"/>
      <point x="40" y="232" type="curve" smooth="yes"/>
      <point x="40" y="25"/>
      <point x="130" y="-213"/>
      <point x="466" y="-213" type="curve" smooth="yes"/>
      <point x="518" y="-213"/>
      <point x="671" y="-142"/>
      <point x="671" y="-142" type="curve"/>
      <point x="655" y="-111" type="line"/>
      <point x="655" y="-111"/>
      <point x="501" y="-151"/>
      <point x="466" y="-151" type="curve" smooth="yes"/>
      <point x="221" y="-152"/>
      <point x="131" y="11"/>
      <point x="131" y="232" type="curve" smooth="yes"/>
      <point x="131" y="358"/>
      <point x="176" y="618"/>
      <point x="461" y="618" type="curve" smooth="yes"/>
      <point x="667" y="618"/>
      <point x="791" y="483"/>
      <point x="791" y="287" type="curve" smooth="yes"/>
      <point x="791" y="192"/>
      <point x="757" y="67"/>
      <point x="662" y="46" type="curve"/>
      <point x="662" y="46"/>
      <point x="650" y="117"/>
      <point x="650" y="137" type="curve" smooth="yes"/>
      <point x="650" y="291" type="line" smooth="yes"/>
      <point x="650" y="425"/>
      <point x="619" y="503"/>
      <point x="485" y="503" type="curve" smooth="yes"/>
      <point x="425" y="503"/>
      <point x="364" y="495"/>
      <point x="304" y="479" type="curve"/>
      <point x="315" y="344" type="line"/>
      <point x="373" y="347" type="line"/>
      <point x="373" y="383" type="line" smooth="yes"/>
      <point x="373" y="390"/>
      <point x="380" y="420"/>
      <point x="382" y="430" type="curve"/>
      <point x="398" y="438"/>
      <point x="429" y="449"/>
      <point x="475" y="449" type="curve" smooth="yes"/>
      <point x="550" y="449"/>
      <point x="569" y="386"/>
      <point x="569" y="311" type="curve" smooth="yes"/>
      <point x="569" y="278" type="line"/>
      <point x="536" y="273"/>
      <point x="442" y="260"/>
      <point x="390" y="247" type="curve" smooth="yes"/>
      <point x="318" y="229"/>
      <point x="275" y="193"/>
      <point x="275" y="123" type="curve" smooth="yes"/>
      <point x="275" y="41"/>
      <point x="328" y="-10"/>
      <point x="410" y="-10" type="curve" smooth="yes"/>
      <point x="483" y="-10"/>
      <point x="553" y="31"/>
      <point x="579" y="79" type="curve"/>
    </contour>
    <contour>
      <point x="389" y="54"/>
      <point x="363" y="81"/>
      <point x="363" y="128" type="curve" smooth="yes"/>
      <point x="363" y="156"/>
      <point x="375" y="187"/>
      <point x="426" y="200" type="curve" smooth="yes"/>
      <point x="482" y="214"/>
      <point x="545" y="223"/>
      <point x="569" y="227" type="curve"/>
      <point x="569" y="167" type="line"/>
      <point x="559" y="102"/>
      <point x="503" y="54"/>
      <point x="436" y="54" type="curve" smooth="yes"/>
    </contour>
  </outline>
</glyph>
<glyph name="A" format="1">
  <advance width="690"/>
  <unicode hex="0041"/>
  <outline>
    <contour>
      <point x="665" y="0" type="line"/>
      <point x="670" y="54" type="line"/>
      <point x="608" y="64" type="line"/>
      <point x="569" y="149" type="line"/>
      <point x="363" y="715" type="line"/>
      <point x="305" y="705" type="line"/>
      <point x="126" y="160" type="line"/>
      <point x="83" y="61" type="line"/>
      <point x="20" y="44" type="line"/>
      <point x="24" y="-5" type="line"/>
      <point x="24" y="-5"/>
      <point x="122" y="0"/>
      <point x="159" y="0" type="curve" smooth="yes"/>
      <point x="245" y="0" type="line"/>
      <point x="250" y="54" type="line"/>
      <point x="180" y="64" type="line"/>
      <point x="190" y="127" type="line"/>
      <point x="222" y="232" type="line"/>
      <point x="442" y="232" type="line"/>
      <point x="463" y="172" type="line"/>
      <point x="490" y="64" type="line"/>
      <point x="417" y="44" type="line"/>
      <point x="421" y="-5" type="line"/>
      <point x="421" y="-5"/>
      <point x="533" y="0"/>
      <point x="564" y="0" type="curve" smooth="yes"/>
    </contour>
    <contour>
      <point x="422" y="286" type="line"/>
      <point x="240" y="282" type="line"/>
      <point x="328" y="557" type="line"/>
    </contour>
  </outline>
</glyph>
<glyph name="B" format="1">
  <advance width="598"/>
  <unicode hex="0042"/>
  <outline>
    <contour>
      <point x="271" y="715"/>
      <point x="217" y="706"/>
      <point x="157" y="705" type="curve"/>
      <point x="129" y="706"/>
      <point x="55" y="710"/>
      <point x="55" y="710" type="curve"/>
      <point x="50" y="656" type="line"/>
      <point x="121" y="644" type="line"/>
      <point x="123" y="631"/>
      <point x="130" y="585"/>
      <point x="130" y="568" type="curve" smooth="yes"/>
      <point x="130" y="137" type="line" smooth="yes"/>
      <point x="130" y="120"/>
      <point x="123" y="74"/>
      <point x="121" y="61" type="curve"/>
      <point x="48" y="45" type="line"/>
      <point x="53" y="-5" type="line"/>
      <point x="53" y="-5"/>
      <point x="128" y="-1"/>
      <point x="157" y="0" type="curve"/>
      <point x="234" y="-1"/>
      <point x="301" y="-5"/>
      <point x="349" y="-5" type="curve" smooth="yes"/>
      <point x="463" y="-5"/>
      <point x="553" y="68"/>
      <point x="553" y="183" type="curve" smooth="yes"/>
      <point x="553" y="287"/>
      <point x="482" y="348"/>
      <point x="383" y="363" type="curve"/>
      <point x="383" y="370" type="line"/>
      <point x="464" y="390"/>
      <point x="522" y="455"/>
      <point x="522" y="543" type="curve" smooth="yes"/>
      <point x="522" y="653"/>
      <point x="435" y="715"/>
      <point x="332" y="715" type="curve" smooth="yes"/>
    </contour>
    <contour>
      <point x="253" y="658"/>
      <point x="282" y="661"/>
      <point x="311" y="661" type="curve" smooth="yes"/>
      <point x="381" y="661"/>
      <point x="429" y="611"/>
      <point x="429" y="531" type="curve" smooth="yes"/>
      <point x="429" y="442"/>
      <point x="367" y="394"/>
      <point x="287" y="394" type="curve" smooth="yes"/>
      <point x="280" y="394" type="line"/>
      <point x="273" y="337" type="line"/>
      <point x="284" y="337" type="line" smooth="yes"/>
      <point x="373" y="337"/>
      <point x="452" y="292"/>
      <point x="452" y="191" type="curve" smooth="yes"/>
      <point x="452" y="101"/>
      <point x="397" y="53"/>
      <point x="318" y="53" type="curve" smooth="yes"/>
      <point x="285" y="53"/>
      <point x="252" y="56"/>
      <point x="227" y="59" type="curve"/>
      <point x="225" y="71"/>
      <point x="221" y="123"/>
      <point x="221" y="167" type="curve" smooth="yes"/>
      <point x="221" y="538" type="line" smooth="yes"/>
      <point x="221" y="582"/>
      <point x="226" y="642"/>
      <point x="228" y="655" type="curve"/>
    </contour>
  </outline>
</glyph>
<glyph name="C" format="1">
  <advance width="610"/>
  <unicode hex="0043"/>
  <outline>
    <contour>
      <point x="569" y="170" type="line"/>
      <point x="510" y="168" type="line" smooth="yes"/>
      <point x="510" y="168"/>
      <point x="510" y="131"/>
      <point x="508" y="121" type="curve"/>
      <point x="508" y="111"/>
      <point x="501" y="88"/>
      <point x="494" y="65" type="curve"/>
      <point x="452" y="52"/>
      <point x="399" y="43"/>
      <point x="358" y="43" type="curve" smooth="yes"/>
      <point x="215" y="43"/>
      <point x="145" y="180"/>
      <point x="145" y="353" type="curve" smooth="yes"/>
      <point x="145" y="526"/>
      <point x="215" y="662"/>
      <point x="359" y="662" type="curve" smooth="yes"/>
      <point x="397" y="662"/>
      <point x="446" y="652"/>
      <point x="485" y="639" type="curve"/>
      <point x="491" y="619"/>
      <point x="497" y="598"/>
      <point x="497" y="589" type="curve" smooth="yes"/>
      <point x="497" y="542" type="line"/>
      <point x="556" y="538" type="line"/>
      <point x="566" y="686" type="line"/>
      <point x="503" y="702"/>
      <point x="441" y="720"/>
      <point x="359" y="720" type="curve" smooth="yes"/>
      <point x="149" y="720"/>
      <point x="42" y="570"/>
      <point x="42" y="352" type="curve" smooth="yes"/>
      <point x="42" y="134"/>
      <point x="149" y="-15"/>
      <point x="359" y="-15" type="curve" smooth="yes"/>
      <point x="440" y="-15"/>
      <point x="512" y="3"/>
      <point x="575" y="19" type="curve"/>
    </contour>
  </outline>
</glyph>
<glyph name="E" format="1">
  <advance width="588"/>
  <unicode hex="0045"/>
  <outline>
    <contour>
      <point x="44" y="656" type="line"/>
      <point x="121" y="644" type="line"/>
      <point x="123" y="631"/>
      <point x="130" y="585"/>
      <point x="130" y="568" type="curve" smooth="yes"/>
      <point x="130" y="137" type="line" smooth="yes"/>
      <point x="130" y="120"/>
      <point x="123" y="74"/>
      <point x="121" y="61" type="curve"/>
      <point x="42" y="45" type="line"/>
      <point x="47" y="-5" type="line"/>
      <point x="47" y="-5"/>
      <point x="145" y="0"/>
      <point x="165" y="0" type="curve" smooth="yes"/>
      <point x="402" y="0" type="line" smooth="yes"/>
      <point x="422" y="0"/>
      <point x="516" y="-4"/>
      <point x="516" y="-4" type="curve"/>
      <point x="535" y="14" type="line"/>
      <point x="550" y="165" type="line"/>
      <point x="495" y="170" type="line"/>
      <point x="493" y="154"/>
      <point x="483" y="118"/>
      <point x="480" y="103" type="curve" smooth="yes"/>
      <point x="478" y="94"/>
      <point x="469" y="80"/>
      <point x="459" y="66" type="curve"/>
      <point x="437" y="62"/>
      <point x="403" y="57"/>
      <point x="372" y="57" type="curve" smooth="yes"/>
      <point x="228" y="57" type="line"/>
      <point x="226" y="76"/>
      <point x="221" y="127"/>
      <point x="221" y="167" type="curve" smooth="yes"/>
      <point x="221" y="335" type="line"/>
      <point x="238" y="337"/>
      <point x="255" y="338"/>
      <point x="264" y="338" type="curve" smooth="yes"/>
      <point x="317" y="338" type="line" smooth="yes"/>
      <point x="337" y="338"/>
      <point x="397" y="332"/>
      <point x="397" y="332" type="curve"/>
      <point x="406" y="265" type="line"/>
      <point x="454" y="271" type="line"/>
      <point x="454" y="271"/>
      <point x="451" y="330"/>
      <point x="451" y="380" type="curve" smooth="yes"/>
      <point x="452" y="464" type="line"/>
      <point x="406" y="469" type="line"/>
      <point x="397" y="403" type="line"/>
      <point x="397" y="403"/>
      <point x="357" y="394"/>
      <point x="337" y="394" type="curve" smooth="yes"/>
      <point x="264" y="394" type="line" smooth="yes"/>
      <point x="256" y="394"/>
      <point x="238" y="395"/>
      <point x="221" y="396" type="curve"/>
      <point x="221" y="538" type="line" smooth="yes"/>
      <point x="221" y="577"/>
      <point x="226" y="628"/>
      <point x="228" y="649" type="curve"/>
      <point x="359" y="649" type="line" smooth="yes"/>
      <point x="387" y="649"/>
      <point x="418" y="646"/>
      <point x="440" y="644" type="curve"/>
      <point x="450" y="631"/>
      <point x="459" y="617"/>
      <point x="460" y="610" type="curve"/>
      <point x="464" y="595"/>
      <point x="469" y="572"/>
      <point x="471" y="556" type="curve"/>
      <point x="529" y="561" type="line"/>
      <point x="522" y="697" type="line"/>
      <point x="503" y="715" type="line"/>
      <point x="503" y="715"/>
      <point x="409" y="705"/>
      <point x="389" y="705" type="curve" smooth="yes"/>
      <point x="165" y="705" type="line" smooth="yes"/>
      <point x="145" y="705"/>
      <point x="49" y="710"/>
      <point x="49" y="710" type="curve"/>
    </contour>
  </outline>
</glyph>
<glyph name="F" format="1">
  <advance width="552"/>
  <unicode hex="0046"/>
  <outline>
    <contour>
      <point x="522" y="697" type="line"/>
      <point x="529" y="561" type="line"/>
      <point x="471" y="556" type="line"/>
      <point x="469" y="572"/>
      <point x="464" y="595"/>
      <point x="460" y="610" type="curve"/>
      <point x="459" y="617"/>
      <point x="450" y="631"/>
      <point x="440" y="644" type="curve"/>
      <point x="418" y="646"/>
      <point x="387" y="649"/>
      <point x="359" y="649" type="curve" smooth="yes"/>
      <point x="228" y="649" type="line"/>
      <point x="226" y="628"/>
      <point x="221" y="577"/>
      <point x="221" y="538" type="curve" smooth="yes"/>
      <point x="221" y="388" type="line"/>
      <point x="238" y="387"/>
      <point x="256" y="386"/>
      <point x="264" y="386" type="curve" smooth="yes"/>
      <point x="337" y="386" type="line" smooth="yes"/>
      <point x="357" y="386"/>
      <point x="397" y="395"/>
      <point x="397" y="395" type="curve"/>
      <point x="406" y="461" type="line"/>
      <point x="452" y="456" type="line"/>
      <point x="451" y="372" type="line" smooth="yes"/>
      <point x="451" y="322"/>
      <point x="454" y="263"/>
      <point x="454" y="263" type="curve"/>
      <point x="406" y="257" type="line"/>
      <point x="397" y="324" type="line"/>
      <point x="397" y="324"/>
      <point x="337" y="330"/>
      <point x="317" y="330" type="curve" smooth="yes"/>
      <point x="264" y="330" type="line" smooth="yes"/>
      <point x="255" y="330"/>
      <point x="238" y="329"/>
      <point x="221" y="327" type="curve"/>
      <point x="221" y="167" type="line" smooth="yes"/>
      <point x="221" y="125"/>
      <point x="226" y="75"/>
      <point x="228" y="61" type="curve"/>
      <point x="328" y="54" type="line"/>
      <point x="321" y="-5" type="line"/>
      <point x="321" y="-5"/>
      <point x="245" y="0"/>
      <point x="165" y="0" type="curve" smooth="yes"/>
      <point x="145" y="0"/>
      <point x="47" y="-5"/>
      <point x="47" y="-5" type="curve"/>
      <point x="42" y="45" type="line"/>
      <point x="121" y="61" type="line"/>
      <point x="123" y="74"/>
      <point x="130" y="120"/>
      <point x="130" y="137" type="curve" smooth="yes"/>
      <point x="130" y="568" type="line" smooth="yes"/>
      <point x="130" y="585"/>
      <point x="123" y="631"/>
      <point x="121" y="644" type="curve"/>
      <point x="44" y="656" type="line"/>
      <point x="49" y="710" type="line"/>
      <point x="49" y="710"/>
      <point x="145" y="705"/>
      <point x="165" y="705" type="curve" smooth="yes"/>
      <point x="389" y="705" type="line" smooth="yes"/>
      <point x="409" y="705"/>
      <point x="503" y="715"/>
      <point x="503" y="715" type="curve"/>
    </contour>
  </outline>
</glyph>
<glyph name="G" format="1">
  <advance width="666"/>
  <unicode hex="0047"/>
  <outline>
    <contour>
      <point x="155" y="720"/>
      <point x="42" y="570"/>
      <point x="42" y="352" type="curve" smooth="yes"/>
      <point x="42" y="134"/>
      <point x="155" y="-15"/>
      <point x="376" y="-15" type="curve" smooth="yes"/>
      <point x="462" y="-15"/>
      <point x="538" y="3"/>
      <point x="605" y="19" type="curve"/>
      <point x="605" y="166" type="line" smooth="yes"/>
      <point x="605" y="216"/>
      <point x="614" y="319"/>
      <point x="614" y="319" type="curve"/>
      <point x="596" y="336" type="line"/>
      <point x="596" y="336"/>
      <point x="545" y="333"/>
      <point x="525" y="333" type="curve"/>
      <point x="414" y="333" type="line"/>
      <point x="409" y="275" type="line"/>
      <point x="515" y="267" type="line"/>
      <point x="515" y="267"/>
      <point x="525" y="216"/>
      <point x="525" y="196" type="curve" smooth="yes"/>
      <point x="525" y="128" type="line" smooth="yes"/>
      <point x="525" y="117"/>
      <point x="519" y="89"/>
      <point x="513" y="63" type="curve"/>
      <point x="468" y="51"/>
      <point x="413" y="43"/>
      <point x="373" y="43" type="curve" smooth="yes"/>
      <point x="218" y="43"/>
      <point x="143" y="180"/>
      <point x="143" y="353" type="curve" smooth="yes"/>
      <point x="143" y="526"/>
      <point x="218" y="662"/>
      <point x="373" y="662" type="curve" smooth="yes"/>
      <point x="416" y="662"/>
      <point x="471" y="651"/>
      <point x="515" y="638" type="curve"/>
      <point x="521" y="618"/>
      <point x="527" y="597"/>
      <point x="527" y="589" type="curve" smooth="yes"/>
      <point x="527" y="544" type="line"/>
      <point x="585" y="538" type="line"/>
      <point x="596" y="686" type="line"/>
      <point x="529" y="702"/>
      <point x="463" y="720"/>
      <point x="376" y="720" type="curve" smooth="yes"/>
    </contour>
    <contour>
      <point x="380" y="705" type="move" name="top"/>
    </contour>
    <contour>
      <point x="392" y="0" type="move" name="bottom"/>
    </contour>
  </outline>
</glyph>
<glyph name="H" format="1">
  <advance width="773"/>
  <unicode hex="0048"/>
  <outline>
    <contour>
      <point x="728" y="651" type="line"/>
      <point x="724" y="710" type="line"/>
      <point x="724" y="710"/>
      <point x="667" y="705"/>
      <point x="587" y="705" type="curve" smooth="yes"/>
      <point x="567" y="705"/>
      <point x="471" y="710"/>
      <point x="471" y="710" type="curve"/>
      <point x="466" y="656" type="line"/>
      <point x="543" y="644" type="line"/>
      <point x="545" y="631"/>
      <point x="552" y="585"/>
      <point x="552" y="568" type="curve" smooth="yes"/>
      <point x="552" y="383" type="line"/>
      <point x="221" y="378" type="line"/>
      <point x="221" y="538" type="line" smooth="yes"/>
      <point x="221" y="580"/>
      <point x="226" y="630"/>
      <point x="228" y="644" type="curve"/>
      <point x="306" y="651" type="line"/>
      <point x="302" y="710" type="line"/>
      <point x="302" y="710"/>
      <point x="245" y="705"/>
      <point x="165" y="705" type="curve" smooth="yes"/>
      <point x="145" y="705"/>
      <point x="49" y="710"/>
      <point x="49" y="710" type="curve"/>
      <point x="44" y="656" type="line"/>
      <point x="121" y="644" type="line"/>
      <point x="123" y="631"/>
      <point x="130" y="585"/>
      <point x="130" y="568" type="curve" smooth="yes"/>
      <point x="130" y="137" type="line" smooth="yes"/>
      <point x="130" y="120"/>
      <point x="123" y="74"/>
      <point x="121" y="61" type="curve"/>
      <point x="42" y="45" type="line"/>
      <point x="47" y="-5" type="line"/>
      <point x="47" y="-5"/>
      <point x="145" y="0"/>
      <point x="165" y="0" type="curve" smooth="yes"/>
      <point x="245" y="0"/>
      <point x="311" y="-5"/>
      <point x="311" y="-5" type="curve"/>
      <point x="318" y="54" type="line"/>
      <point x="228" y="61" type="line"/>
      <point x="226" y="75"/>
      <point x="221" y="125"/>
      <point x="221" y="167" type="curve" smooth="yes"/>
      <point x="221" y="327" type="line"/>
      <point x="552" y="327" type="line"/>
      <point x="552" y="137" type="line" smooth="yes"/>
      <point x="552" y="120"/>
      <point x="545" y="74"/>
      <point x="543" y="61" type="curve"/>
      <point x="464" y="45" type="line"/>
      <point x="469" y="-5" type="line"/>
      <point x="469" y="-5"/>
      <point x="567" y="0"/>
      <point x="587" y="0" type="curve" smooth="yes"/>
      <point x="667" y="0"/>
      <point x="733" y="-5"/>
      <point x="733" y="-5" type="curve"/>
      <point x="740" y="54" type="line"/>
      <point x="650" y="61" type="line"/>
      <point x="648" y="75"/>
      <point x="643" y="125"/>
      <point x="643" y="167" type="curve" smooth="yes"/>
      <point x="643" y="538" type="line" smooth="yes"/>
      <point x="643" y="580"/>
      <point x="648" y="630"/>
      <point x="650" y="644" type="curve"/>
    </contour>
  </outline>
</glyph>
<glyph name="I" format="1">
  <advance width="363"/>
  <unicode hex="0049"/>
  <outline>
    <contour>
      <point x="308" y="710" type="line"/>
      <point x="308" y="710"/>
      <point x="251" y="705"/>
      <point x="171" y="705" type="curve" smooth="yes"/>
      <point x="151" y="705"/>
      <point x="55" y="710"/>
      <point x="55" y="710" type="curve"/>
      <point x="50" y="656" type="line"/>
      <point x="127" y="644" type="line"/>
      <point x="129" y="631"/>
      <point x="136" y="585"/>
      <point x="136" y="568" type="curve" smooth="yes"/>
      <point x="136" y="137" type="line" smooth="yes"/>
      <point x="136" y="120"/>
      <point x="129" y="74"/>
      <point x="127" y="61" type="curve"/>
      <point x="48" y="45" type="line"/>
      <point x="53" y="-5" type="line"/>
      <point x="53" y="-5"/>
      <point x="151" y="0"/>
      <point x="171" y="0" type="curve" smooth="yes"/>
      <point x="251" y="0"/>
      <point x="317" y="-5"/>
      <point x="317" y="-5" type="curve"/>
      <point x="324" y="54" type="line"/>
      <point x="234" y="61" type="line"/>
      <point x="232" y="75"/>
      <point x="227" y="125"/>
      <point x="227" y="167" type="curve" smooth="yes"/>
      <point x="227" y="538" type="line" smooth="yes"/>
      <point x="227" y="580"/>
      <point x="232" y="630"/>
      <point x="234" y="644" type="curve"/>
      <point x="312" y="651" type="line"/>
    </contour>
    <contour>
      <point x="257" y="10" type="move" name="ogonek"/>
    </contour>
    <contour>
      <point x="190" y="0" type="move" name="bottom"/>
    </contour>
    <contour>
      <point x="182" y="705" type="move" name="top"/>
    </contour>
  </outline>
</glyph>
<glyph name="J" format="1">
  <advance width="332"/>
  <unicode hex="004A"/>
  <outline>
    <contour>
      <point x="302" y="651" type="line"/>
      <point x="298" y="710" type="line"/>
      <point x="298" y="710"/>
      <point x="241" y="705"/>
      <point x="161" y="705" type="curve" smooth="yes"/>
      <point x="141" y="705"/>
      <point x="45" y="710"/>
      <point x="45" y="710" type="curve"/>
      <point x="40" y="656" type="line"/>
      <point x="117" y="644" type="line"/>
      <point x="119" y="631"/>
      <point x="126" y="585"/>
      <point x="126" y="568" type="curve" smooth="yes"/>
      <point x="126" y="11" type="line" smooth="yes"/>
      <point x="126" y="-9"/>
      <point x="46" y="-178"/>
      <point x="46" y="-178" type="curve"/>
      <point x="80" y="-200" type="line"/>
      <point x="127" y="-144"/>
      <point x="217" y="-37"/>
      <point x="217" y="-10" type="curve" smooth="yes"/>
      <point x="217" y="538" type="line" smooth="yes"/>
      <point x="217" y="580"/>
      <point x="222" y="630"/>
      <point x="224" y="644" type="curve"/>
    </contour>
  </outline>
</glyph>
<glyph name="K" format="1">
  <advance width="698"/>
  <unicode hex="004B"/>
  <outline>
    <contour>
      <point x="306" y="651" type="line"/>
      <point x="228" y="644" type="line"/>
      <point x="226" y="630"/>
      <point x="221" y="580"/>
      <point x="221" y="538" type="curve" smooth="yes"/>
      <point x="221" y="167" type="line" smooth="yes"/>
      <point x="221" y="125"/>
      <point x="226" y="75"/>
      <point x="228" y="61" type="curve"/>
      <point x="318" y="54" type="line"/>
      <point x="311" y="-5" type="line"/>
      <point x="311" y="-5"/>
      <point x="245" y="0"/>
      <point x="165" y="0" type="curve" smooth="yes"/>
      <point x="145" y="0"/>
      <point x="47" y="-5"/>
      <point x="47" y="-5" type="curve"/>
      <point x="42" y="45" type="line"/>
      <point x="121" y="61" type="line"/>
      <point x="123" y="74"/>
      <point x="130" y="120"/>
      <point x="130" y="137" type="curve" smooth="yes"/>
      <point x="130" y="568" type="line" smooth="yes"/>
      <point x="130" y="585"/>
      <point x="123" y="631"/>
      <point x="121" y="644" type="curve"/>
      <point x="44" y="656" type="line"/>
      <point x="49" y="710" type="line"/>
      <point x="49" y="710"/>
      <point x="145" y="705"/>
      <point x="165" y="705" type="curve" smooth="yes"/>
      <point x="245" y="705"/>
      <point x="302" y="710"/>
      <point x="302" y="710" type="curve"/>
    </contour>
    <contour>
      <point x="688" y="54" type="line"/>
      <point x="618" y="61" type="line"/>
      <point x="594" y="81"/>
      <point x="556" y="113"/>
      <point x="541" y="129" type="curve"/>
      <point x="472" y="209"/>
      <point x="400" y="290"/>
      <point x="330" y="370" type="curve"/>
      <point x="462" y="546" type="line"/>
      <point x="492" y="576"/>
      <point x="538" y="620"/>
      <point x="564" y="644" type="curve"/>
      <point x="640" y="651" type="line"/>
      <point x="636" y="710" type="line"/>
      <point x="636" y="710"/>
      <point x="589" y="705"/>
      <point x="509" y="705" type="curve" smooth="yes"/>
      <point x="489" y="705"/>
      <point x="403" y="710"/>
      <point x="403" y="710" type="curve"/>
      <point x="398" y="656" type="line"/>
      <point x="452" y="645" type="line"/>
      <point x="413" y="577" type="line"/>
      <point x="231" y="353" type="line"/>
      <point x="396" y="164" type="line"/>
      <point x="413" y="142"/>
      <point x="450" y="85"/>
      <point x="466" y="59" type="curve"/>
      <point x="407" y="45" type="line"/>
      <point x="412" y="-5" type="line"/>
      <point x="412" y="-5"/>
      <point x="520" y="0"/>
      <point x="540" y="0" type="curve" smooth="yes"/>
      <point x="620" y="0"/>
      <point x="681" y="-5"/>
      <point x="681" y="-5" type="curve"/>
    </contour>
  </outline>
</glyph>
<glyph name="L" format="1">
  <advance width="534"/>
  <unicode hex="004C"/>
  <outline>
    <contour>
      <point x="306" y="651" type="line"/>
      <point x="302" y="710" type="line"/>
      <point x="302" y="710"/>
      <point x="245" y="705"/>
      <point x="165" y="705" type="curve" smooth="yes"/>
      <point x="145" y="705"/>
      <point x="49" y="710"/>
      <point x="49" y="710" type="curve"/>
      <point x="44" y="656" type="line"/>
      <point x="121" y="644" type="line"/>
      <point x="123" y="631"/>
      <point x="130" y="585"/>
      <point x="130" y="568" type="curve" smooth="yes"/>
      <point x="130" y="137" type="line" smooth="yes"/>
      <point x="130" y="120"/>
      <point x="123" y="74"/>
      <point x="121" y="61" type="curve"/>
      <point x="42" y="45" type="line"/>
      <point x="47" y="-5" type="line"/>
      <point x="47" y="-5"/>
      <point x="145" y="0"/>
      <point x="165" y="0" type="curve" smooth="yes"/>
      <point x="376" y="0" type="line" smooth="yes"/>
      <point x="396" y="0"/>
      <point x="490" y="-4"/>
      <point x="490" y="-4" type="curve"/>
      <point x="509" y="14" type="line"/>
      <point x="524" y="165" type="line"/>
      <point x="469" y="170" type="line"/>
      <point x="467" y="154"/>
      <point x="458" y="118"/>
      <point x="454" y="103" type="curve"/>
      <point x="453" y="96"/>
      <point x="443" y="80"/>
      <point x="433" y="66" type="curve"/>
      <point x="411" y="62"/>
      <point x="377" y="57"/>
      <point x="346" y="57" type="curve" smooth="yes"/>
      <point x="228" y="57" type="line"/>
      <point x="226" y="72"/>
      <point x="221" y="126"/>
      <point x="221" y="167" type="curve" smooth="yes"/>
      <point x="221" y="538" type="line" smooth="yes"/>
      <point x="221" y="580"/>
      <point x="226" y="630"/>
      <point x="228" y="644" type="curve"/>
    </contour>
  </outline>
</glyph>
<glyph name="N" format="1">
  <advance width="761"/>
  <unicode hex="004E"/>
  <outline>
    <contour>
      <point x="746" y="657" type="line"/>
      <point x="667" y="641" type="line"/>
      <point x="663" y="622"/>
      <point x="652" y="568"/>
      <point x="652" y="528" type="curve" smooth="yes"/>
      <point x="652" y="297" type="line" smooth="yes"/>
      <point x="652" y="257"/>
      <point x="651" y="-7"/>
      <point x="651" y="-7" type="curve"/>
      <point x="591" y="-7" type="line"/>
      <point x="197" y="556" type="line"/>
      <point x="197" y="167" type="line" smooth="yes"/>
      <point x="197" y="125"/>
      <point x="202" y="75"/>
      <point x="204" y="61" type="curve"/>
      <point x="285" y="54" type="line"/>
      <point x="278" y="-5" type="line"/>
      <point x="278" y="-5"/>
      <point x="235" y="0"/>
      <point x="155" y="0" type="curve" smooth="yes"/>
      <point x="135" y="0"/>
      <point x="47" y="-5"/>
      <point x="47" y="-5" type="curve"/>
      <point x="42" y="45" type="line"/>
      <point x="121" y="61" type="line"/>
      <point x="123" y="74"/>
      <point x="130" y="120"/>
      <point x="130" y="137" type="curve" smooth="yes"/>
      <point x="130" y="568" type="line" smooth="yes"/>
      <point x="130" y="584"/>
      <point x="123" y="629"/>
      <point x="121" y="644" type="curve"/>
      <point x="41" y="656" type="line"/>
      <point x="46" y="710" type="line"/>
      <point x="46" y="710"/>
      <point x="142" y="705"/>
      <point x="162" y="705" type="curve" smooth="yes"/>
      <point x="206" y="706" type="line"/>
      <point x="226" y="685" type="line"/>
      <point x="226" y="685"/>
      <point x="308" y="552"/>
      <point x="323" y="530" type="curve" smooth="yes"/>
      <point x="585" y="163" type="line"/>
      <point x="585" y="558" type="line" smooth="yes"/>
      <point x="585" y="574"/>
      <point x="579" y="623"/>
      <point x="576" y="641" type="curve"/>
      <point x="497" y="647" type="line"/>
      <point x="503" y="707" type="line"/>
      <point x="585" y="705" type="line"/>
      <point x="664" y="705"/>
      <point x="741" y="710"/>
      <point x="741" y="710" type="curve"/>
    </contour>
    <contour>
      <point x="381" y="705" type="move" name="top"/>
    </contour>
    <contour>
      <point x="381" y="0" type="move" name="bottom"/>
    </contour>
  </outline>
</glyph>
<glyph name="O" format="1">
  <advance width="740"/>
  <unicode hex="004F"/>
  <outline>
    <contour>
      <point x="698" y="570"/>
      <point x="587" y="720"/>
      <point x="370" y="720" type="curve"/>
      <point x="153" y="720"/>
      <point x="42" y="570"/>
      <point x="42" y="352" type="curve"/>
      <point x="42" y="135"/>
      <point x="153" y="-15"/>
      <point x="370" y="-15" type="curve" smooth="yes"/>
      <point x="587" y="-15"/>
      <point x="698" y="135"/>
      <point x="698" y="352" type="curve"/>
    </contour>
    <contour>
      <point x="149" y="527"/>
      <point x="221" y="667"/>
      <point x="370" y="667" type="curve"/>
      <point x="519" y="667"/>
      <point x="591" y="527"/>
      <point x="591" y="352" type="curve"/>
      <point x="591" y="178"/>
      <point x="519" y="38"/>
      <point x="370" y="38" type="curve" smooth="yes"/>
      <point x="221" y="38"/>
      <point x="149" y="178"/>
      <point x="149" y="352" type="curve"/>
    </contour>
    <contour>
      <point x="615" y="645" type="move" name="horn"/>
    </contour>
    <contour>
      <point x="370" y="0" type="move" name="bottom"/>
    </contour>
    <contour>
      <point x="370" y="705" type="move" name="top"/>
    </contour>
  </outline>
</glyph>
<glyph name="P" format="1">
  <advance width="586"/>
  <unicode hex="0050"/>
  <outline>
    <contour>
      <point x="444" y="291"/>
      <point x="556" y="367"/>
      <point x="556" y="502" type="curve" smooth="yes"/>
      <point x="556" y="644"/>
      <point x="471" y="715"/>
      <point x="333" y="715" type="curve" smooth="yes"/>
      <point x="287" y="715"/>
      <point x="203" y="707"/>
      <point x="149" y="705" type="curve"/>
      <point x="116" y="707"/>
      <point x="49" y="710"/>
      <point x="49" y="710" type="curve"/>
      <point x="44" y="656" type="line"/>
      <point x="121" y="644" type="line"/>
      <point x="123" y="631"/>
      <point x="130" y="585"/>
      <point x="130" y="568" type="curve" smooth="yes"/>
      <point x="130" y="137" type="line" smooth="yes"/>
      <point x="130" y="120"/>
      <point x="123" y="74"/>
      <point x="121" y="61" type="curve"/>
      <point x="42" y="45" type="line"/>
      <point x="47" y="-5" type="line"/>
      <point x="47" y="-5"/>
      <point x="145" y="0"/>
      <point x="165" y="0" type="curve" smooth="yes"/>
      <point x="245" y="0"/>
      <point x="315" y="-5"/>
      <point x="315" y="-5" type="curve"/>
      <point x="322" y="54" type="line"/>
      <point x="228" y="61" type="line"/>
      <point x="226" y="75"/>
      <point x="221" y="125"/>
      <point x="221" y="167" type="curve" smooth="yes"/>
      <point x="221" y="293" type="line"/>
      <point x="249" y="292"/>
      <point x="281" y="291"/>
      <point x="310" y="291" type="curve" smooth="yes"/>
    </contour>
    <contour>
      <point x="462" y="394"/>
      <point x="394" y="341"/>
      <point x="290" y="341" type="curve" smooth="yes"/>
      <point x="273" y="341"/>
      <point x="246" y="343"/>
      <point x="221" y="346" type="curve"/>
      <point x="221" y="538" type="line" smooth="yes"/>
      <point x="221" y="573"/>
      <point x="226" y="634"/>
      <point x="229" y="660" type="curve"/>
      <point x="254" y="663"/>
      <point x="279" y="665"/>
      <point x="291" y="665" type="curve" smooth="yes"/>
      <point x="395" y="665"/>
      <point x="462" y="610"/>
      <point x="462" y="502" type="curve" smooth="yes"/>
    </contour>
  </outline>
</glyph>
<glyph name="Q" format="1">
  <advance width="745"/>
  <unicode hex="0051"/>
  <outline>
    <contour>
      <point x="669" y="-224" type="line"/>
      <point x="728" y="-132" type="line"/>
      <point x="728" y="-132"/>
      <point x="586" y="-71"/>
      <point x="570" y="-60" type="curve" smooth="yes"/>
      <point x="483" y="1" type="line"/>
      <point x="626" y="45"/>
      <point x="698" y="177"/>
      <point x="698" y="352" type="curve" smooth="yes"/>
      <point x="698" y="570"/>
      <point x="587" y="720"/>
      <point x="370" y="720" type="curve" smooth="yes"/>
      <point x="153" y="720"/>
      <point x="42" y="570"/>
      <point x="42" y="352" type="curve" smooth="yes"/>
      <point x="42" y="135"/>
      <point x="153" y="-15"/>
      <point x="370" y="-15" type="curve" smooth="yes"/>
      <point x="383" y="-15"/>
      <point x="395" y="-14"/>
      <point x="407" y="-13" type="curve"/>
    </contour>
    <contour>
      <point x="149" y="527"/>
      <point x="221" y="667"/>
      <point x="370" y="667" type="curve" smooth="yes"/>
      <point x="519" y="667"/>
      <point x="591" y="527"/>
      <point x="591" y="352" type="curve" smooth="yes"/>
      <point x="591" y="178"/>
      <point x="519" y="38"/>
      <point x="370" y="38" type="curve" smooth="yes"/>
      <point x="221" y="38"/>
      <point x="149" y="178"/>
      <point x="149" y="352" type="curve" smooth="yes"/>
    </contour>
  </outline>
</glyph>
<glyph name="R" format="1">
  <advance width="646"/>
  <unicode hex="0052"/>
  <outline>
    <contour>
      <point x="634" y="54" type="line"/>
      <point x="562" y="61" type="line"/>
      <point x="546" y="83"/>
      <point x="522" y="116"/>
      <point x="513" y="131" type="curve" smooth="yes"/>
      <point x="508" y="139"/>
      <point x="456" y="223"/>
      <point x="408" y="316" type="curve"/>
      <point x="493" y="344"/>
      <point x="553" y="411"/>
      <point x="553" y="508" type="curve" smooth="yes"/>
      <point x="553" y="646"/>
      <point x="469" y="715"/>
      <point x="332" y="715" type="curve" smooth="yes"/>
      <point x="286" y="715"/>
      <point x="203" y="707"/>
      <point x="149" y="705" type="curve"/>
      <point x="116" y="707"/>
      <point x="49" y="710"/>
      <point x="49" y="710" type="curve"/>
      <point x="44" y="656" type="line"/>
      <point x="121" y="644" type="line"/>
      <point x="123" y="630"/>
      <point x="130" y="585"/>
      <point x="130" y="568" type="curve" smooth="yes"/>
      <point x="130" y="137" type="line" smooth="yes"/>
      <point x="130" y="120"/>
      <point x="123" y="74"/>
      <point x="121" y="61" type="curve"/>
      <point x="42" y="45" type="line"/>
      <point x="47" y="-5" type="line"/>
      <point x="47" y="-5"/>
      <point x="145" y="0"/>
      <point x="165" y="0" type="curve" smooth="yes"/>
      <point x="245" y="0"/>
      <point x="311" y="-5"/>
      <point x="311" y="-5" type="curve"/>
      <point x="318" y="54" type="line"/>
      <point x="228" y="61" type="line"/>
      <point x="226" y="75"/>
      <point x="221" y="125"/>
      <point x="221" y="167" type="curve" smooth="yes"/>
      <point x="221" y="303" type="line"/>
      <point x="249" y="302"/>
      <point x="281" y="301"/>
      <point x="309" y="301" type="curve" smooth="yes"/>
      <point x="316" y="301" type="line"/>
      <point x="414" y="116" type="line" smooth="yes"/>
      <point x="427" y="92"/>
      <point x="469" y="0"/>
      <point x="469" y="0" type="curve"/>
      <point x="549" y="0"/>
      <point x="627" y="-5"/>
      <point x="627" y="-5" type="curve"/>
    </contour>
    <contour>
      <point x="221" y="538" type="line" smooth="yes"/>
      <point x="221" y="582"/>
      <point x="226" y="635"/>
      <point x="229" y="659" type="curve"/>
      <point x="255" y="663"/>
      <point x="278" y="665"/>
      <point x="290" y="665" type="curve" smooth="yes"/>
      <point x="393" y="665"/>
      <point x="459" y="612"/>
      <point x="459" y="507" type="curve" smooth="yes"/>
      <point x="459" y="402"/>
      <point x="392" y="351"/>
      <point x="289" y="351" type="curve" smooth="yes"/>
      <point x="272" y="351"/>
      <point x="246" y="353"/>
      <point x="221" y="356" type="curve"/>
    </contour>
  </outline>
</glyph>
<glyph name="S" format="1">
  <advance width="559"/>
  <unicode hex="0053"/>
  <outline>
    <contour>
      <point x="65" y="192" type="line"/>
      <point x="50" y="38" type="line"/>
      <point x="50" y="38"/>
      <point x="136" y="-15"/>
      <point x="270" y="-15" type="curve" smooth="yes"/>
      <point x="402" y="-15"/>
      <point x="509" y="49"/>
      <point x="509" y="182" type="curve" smooth="yes"/>
      <point x="509" y="409"/>
      <point x="163" y="397"/>
      <point x="163" y="554" type="curve" smooth="yes"/>
      <point x="163" y="628"/>
      <point x="215" y="665"/>
      <point x="277" y="665" type="curve" smooth="yes"/>
      <point x="322" y="665"/>
      <point x="354" y="661"/>
      <point x="396" y="643" type="curve"/>
      <point x="402" y="620"/>
      <point x="409" y="596"/>
      <point x="409" y="587" type="curve" smooth="yes"/>
      <point x="409" y="577"/>
      <point x="409" y="543"/>
      <point x="409" y="543" type="curve"/>
      <point x="468" y="537" type="line"/>
      <point x="482" y="688" type="line"/>
      <point x="418" y="704"/>
      <point x="345" y="720"/>
      <point x="280" y="720" type="curve" smooth="yes"/>
      <point x="156" y="720"/>
      <point x="63" y="655"/>
      <point x="63" y="535" type="curve" smooth="yes"/>
      <point x="63" y="319"/>
      <point x="404" y="334"/>
      <point x="404" y="170" type="curve" smooth="yes"/>
      <point x="404" y="89"/>
      <point x="352" y="45"/>
      <point x="272" y="45" type="curve" smooth="yes"/>
      <point x="223" y="45"/>
      <point x="177" y="58"/>
      <point x="142" y="72" type="curve"/>
      <point x="137" y="94"/>
      <point x="131" y="126"/>
      <point x="131" y="138" type="curve" smooth="yes"/>
      <point x="131" y="153"/>
      <point x="131" y="186"/>
      <point x="131" y="186" type="curve"/>
    </contour>
    <contour>
      <point x="277" y="705" type="move" name="top"/>
    </contour>
    <contour>
      <point x="266" y="0" type="move" name="bottom"/>
    </contour>
  </outline>
</glyph>
<glyph name="T" format="1">
  <advance width="595"/>
  <unicode hex="0054"/>
  <outline>
    <contour>
      <point x="585" y="553" type="line"/>
      <point x="578" y="697" type="line"/>
      <point x="559" y="715" type="line"/>
      <point x="559" y="715"/>
      <point x="465" y="705"/>
      <point x="445" y="705" type="curve" smooth="yes"/>
      <point x="150" y="705" type="line" smooth="yes"/>
      <point x="130" y="705"/>
      <point x="36" y="715"/>
      <point x="36" y="715" type="curve"/>
      <point x="17" y="697" type="line"/>
      <point x="10" y="553" type="line"/>
      <point x="68" y="548" type="line"/>
      <point x="70" y="564"/>
      <point x="75" y="595"/>
      <point x="79" y="610" type="curve"/>
      <point x="80" y="617"/>
      <point x="89" y="631"/>
      <point x="99" y="644" type="curve"/>
      <point x="121" y="646"/>
      <point x="152" y="649"/>
      <point x="180" y="649" type="curve" smooth="yes"/>
      <point x="243" y="649" type="line"/>
      <point x="245" y="630"/>
      <point x="252" y="583"/>
      <point x="252" y="568" type="curve" smooth="yes"/>
      <point x="252" y="137" type="line" smooth="yes"/>
      <point x="252" y="120"/>
      <point x="245" y="74"/>
      <point x="243" y="61" type="curve"/>
      <point x="164" y="45" type="line"/>
      <point x="169" y="-5" type="line"/>
      <point x="169" y="-5"/>
      <point x="267" y="0"/>
      <point x="287" y="0" type="curve" smooth="yes"/>
      <point x="367" y="0"/>
      <point x="433" y="-5"/>
      <point x="433" y="-5" type="curve"/>
      <point x="440" y="54" type="line"/>
      <point x="350" y="61" type="line"/>
      <point x="348" y="75"/>
      <point x="343" y="125"/>
      <point x="343" y="167" type="curve" smooth="yes"/>
      <point x="343" y="538" type="line" smooth="yes"/>
      <point x="343" y="576"/>
      <point x="348" y="629"/>
      <point x="350" y="649" type="curve"/>
      <point x="415" y="649" type="line" smooth="yes"/>
      <point x="443" y="649"/>
      <point x="474" y="646"/>
      <point x="496" y="644" type="curve"/>
      <point x="506" y="631"/>
      <point x="515" y="617"/>
      <point x="516" y="610" type="curve"/>
      <point x="520" y="595"/>
      <point x="525" y="564"/>
      <point x="527" y="548" type="curve"/>
    </contour>
    <contour>
      <point x="298" y="353" type="move" name="center"/>
    </contour>
    <contour>
      <point x="293" y="0" type="move" name="bottom"/>
    </contour>
    <contour>
      <point x="298" y="705" type="move" name="top"/>
    </contour>
  </outline>
</glyph>
<glyph name="V" format="1">
  <advance width="693"/>
  <unicode hex="0056"/>
  <outline>
    <contour>
      <point x="323" y="0" type="line"/>
      <point x="384" y="0" type="line"/>
      <point x="574" y="545" type="line"/>
      <point x="593" y="599"/>
      <point x="620" y="644"/>
      <point x="620" y="644" type="curve"/>
      <point x="688" y="661" type="line"/>
      <point x="684" y="710" type="line"/>
      <point x="684" y="710"/>
      <point x="576" y="705"/>
      <point x="541" y="705" type="curve" smooth="yes"/>
      <point x="511" y="705"/>
      <point x="451" y="705"/>
      <point x="451" y="705" type="curve"/>
      <point x="446" y="651" type="line"/>
      <point x="522" y="641" type="line"/>
      <point x="522" y="641"/>
      <point x="518" y="599"/>
      <point x="511" y="578" type="curve"/>
      <point x="362" y="148" type="line"/>
      <point x="215" y="533" type="line"/>
      <point x="193" y="590"/>
      <point x="185" y="641"/>
      <point x="185" y="641" type="curve"/>
      <point x="264" y="661" type="line"/>
      <point x="260" y="710" type="line"/>
      <point x="260" y="710"/>
      <point x="138" y="705"/>
      <point x="113" y="705" type="curve" smooth="yes"/>
      <point x="79" y="705"/>
      <point x="4" y="705"/>
      <point x="4" y="705" type="curve"/>
      <point x="-1" y="651" type="line"/>
      <point x="65" y="641" type="line"/>
      <point x="65" y="641"/>
      <point x="94" y="593"/>
      <point x="108" y="556" type="curve"/>
    </contour>
  </outline>
</glyph>
<glyph name="W" format="1">
  <advance width="1011"/>
  <unicode hex="0057"/>
  <outline>
    <contour>
      <point x="1009" y="661" type="line"/>
      <point x="1005" y="710" type="line"/>
      <point x="1005" y="710"/>
      <point x="897" y="705"/>
      <point x="862" y="705" type="curve" smooth="yes"/>
      <point x="832" y="705"/>
      <point x="772" y="705"/>
      <point x="772" y="705" type="curve"/>
      <point x="767" y="651" type="line"/>
      <point x="843" y="641" type="line"/>
      <point x="843" y="641"/>
      <point x="839" y="604"/>
      <point x="832" y="578" type="curve"/>
      <point x="709" y="148" type="line"/>
      <point x="540" y="685" type="line"/>
      <point x="487" y="685" type="line"/>
      <point x="329" y="148" type="line"/>
      <point x="214" y="533" type="line"/>
      <point x="199" y="584"/>
      <point x="187" y="641"/>
      <point x="187" y="641" type="curve"/>
      <point x="266" y="661" type="line"/>
      <point x="262" y="710" type="line"/>
      <point x="262" y="710"/>
      <point x="140" y="705"/>
      <point x="115" y="705" type="curve" smooth="yes"/>
      <point x="81" y="705"/>
      <point x="6" y="705"/>
      <point x="6" y="705" type="curve"/>
      <point x="1" y="651" type="line"/>
      <point x="67" y="641" type="line"/>
      <point x="67" y="641"/>
      <point x="93" y="598"/>
      <point x="107" y="556" type="curve"/>
      <point x="290" y="0" type="line"/>
      <point x="351" y="0" type="line"/>
      <point x="503" y="506" type="line"/>
      <point x="670" y="0" type="line"/>
      <point x="731" y="0" type="line"/>
      <point x="895" y="545" type="line"/>
      <point x="907" y="584"/>
      <point x="941" y="644"/>
      <point x="941" y="644" type="curve"/>
    </contour>
    <contour>
      <point x="506" y="705" type="move" name="top"/>
    </contour>
  </outline>
</glyph>
<glyph name="X" format="1">
  <advance width="718"/>
  <unicode hex="0058"/>
  <outline>
    <contour>
      <point x="306" y="355" type="line"/>
      <point x="175" y="164" type="line" smooth="yes"/>
      <point x="158" y="140"/>
      <point x="103" y="84"/>
      <point x="79" y="59" type="curve"/>
      <point x="18" y="42" type="line"/>
      <point x="23" y="-5" type="line"/>
      <point x="23" y="-5"/>
      <point x="172" y="0"/>
      <point x="188" y="0" type="curve" smooth="yes"/>
      <point x="268" y="-1" type="line"/>
      <point x="275" y="54" type="line"/>
      <point x="195" y="64" type="line"/>
      <point x="206" y="87"/>
      <point x="220" y="116"/>
      <point x="230" y="132" type="curve" smooth="yes"/>
      <point x="344" y="301" type="line"/>
      <point x="457" y="142" type="line"/>
      <point x="471" y="124"/>
      <point x="490" y="87"/>
      <point x="502" y="60" type="curve"/>
      <point x="436" y="42" type="line"/>
      <point x="441" y="-5" type="line"/>
      <point x="441" y="-5"/>
      <point x="592" y="0"/>
      <point x="625" y="0" type="curve" smooth="yes"/>
      <point x="705" y="-1" type="line"/>
      <point x="712" y="54" type="line"/>
      <point x="633" y="64" type="line"/>
      <point x="612" y="86"/>
      <point x="585" y="116"/>
      <point x="572" y="132" type="curve"/>
      <point x="403" y="368" type="line"/>
      <point x="532" y="569" type="line"/>
      <point x="547" y="588"/>
      <point x="588" y="626"/>
      <point x="611" y="647" type="curve"/>
      <point x="680" y="663" type="line"/>
      <point x="675" y="710" type="line"/>
      <point x="675" y="710"/>
      <point x="556" y="705"/>
      <point x="503" y="705" type="curve" smooth="yes"/>
      <point x="475" y="705"/>
      <point x="423" y="706"/>
      <point x="423" y="706" type="curve"/>
      <point x="416" y="651" type="line"/>
      <point x="494" y="641" type="line"/>
      <point x="483" y="619"/>
      <point x="470" y="593"/>
      <point x="461" y="578" type="curve" smooth="yes"/>
      <point x="364" y="422" type="line"/>
      <point x="269" y="555" type="line" smooth="yes"/>
      <point x="255" y="574"/>
      <point x="238" y="617"/>
      <point x="228" y="641" type="curve"/>
      <point x="307" y="663" type="line"/>
      <point x="302" y="710" type="line"/>
      <point x="302" y="710"/>
      <point x="148" y="705"/>
      <point x="115" y="705" type="curve" smooth="yes"/>
      <point x="26" y="706" type="line"/>
      <point x="19" y="651" type="line"/>
      <point x="100" y="641" type="line"/>
      <point x="117" y="619"/>
      <point x="148" y="578"/>
      <point x="162" y="558" type="curve" smooth="yes"/>
    </contour>
  </outline>
</glyph>
<glyph name="Y" format="1">
  <advance width="663"/>
  <unicode hex="0059"/>
  <outline>
    <contour>
      <point x="645" y="661" type="line"/>
      <point x="641" y="710" type="line"/>
      <point x="641" y="710"/>
      <point x="533" y="705"/>
      <point x="498" y="705" type="curve" smooth="yes"/>
      <point x="408" y="705" type="line"/>
      <point x="403" y="651" type="line"/>
      <point x="479" y="641" type="line"/>
      <point x="479" y="641"/>
      <point x="463" y="602"/>
      <point x="451" y="578" type="curve" smooth="yes"/>
      <point x="336" y="344" type="line"/>
      <point x="235" y="533" type="line" smooth="yes"/>
      <point x="203" y="592"/>
      <point x="192" y="641"/>
      <point x="192" y="641" type="curve"/>
      <point x="271" y="661" type="line"/>
      <point x="267" y="710" type="line"/>
      <point x="267" y="710"/>
      <point x="145" y="705"/>
      <point x="120" y="705" type="curve" smooth="yes"/>
      <point x="11" y="705" type="line"/>
      <point x="6" y="651" type="line"/>
      <point x="72" y="641" type="line"/>
      <point x="72" y="641"/>
      <point x="107" y="597"/>
      <point x="128" y="556" type="curve" smooth="yes"/>
      <point x="283" y="257" type="line"/>
      <point x="283" y="137" type="line" smooth="yes"/>
      <point x="283" y="120"/>
      <point x="276" y="74"/>
      <point x="274" y="61" type="curve"/>
      <point x="195" y="45" type="line"/>
      <point x="200" y="-5" type="line"/>
      <point x="200" y="-5"/>
      <point x="298" y="0"/>
      <point x="318" y="0" type="curve" smooth="yes"/>
      <point x="398" y="0"/>
      <point x="464" y="-5"/>
      <point x="464" y="-5" type="curve"/>
      <point x="471" y="54" type="line"/>
      <point x="381" y="61" type="line"/>
      <point x="379" y="75"/>
      <point x="374" y="125"/>
      <point x="374" y="167" type="curve" smooth="yes"/>
      <point x="374" y="273" type="line"/>
      <point x="514" y="545" type="line" smooth="yes"/>
      <point x="541" y="597"/>
      <point x="577" y="644"/>
      <point x="577" y="644" type="curve"/>
    </contour>
  </outline>
</glyph>
<glyph name="Z" format="1">
  <advance width="557"/>
  <unicode hex="005A"/>
  <outline>
    <contour>
      <point x="399" y="646" type="line"/>
      <point x="329" y="520" type="line"/>
      <point x="139" y="219" type="line" smooth="yes"/>
      <point x="109" y="171"/>
      <point x="27" y="57"/>
      <point x="27" y="57" type="curve"/>
      <point x="34" y="0" type="line"/>
      <point x="382" y="0" type="line" smooth="yes"/>
      <point x="402" y="0"/>
      <point x="496" y="-4"/>
      <point x="496" y="-4" type="curve"/>
      <point x="515" y="14" type="line"/>
      <point x="530" y="175" type="line"/>
      <point x="475" y="180" type="line"/>
      <point x="473" y="164"/>
      <point x="464" y="118"/>
      <point x="460" y="103" type="curve"/>
      <point x="459" y="96"/>
      <point x="450" y="81"/>
      <point x="440" y="68" type="curve"/>
      <point x="418" y="64"/>
      <point x="383" y="59"/>
      <point x="352" y="59" type="curve" smooth="yes"/>
      <point x="149" y="59" type="line"/>
      <point x="222" y="191" type="line"/>
      <point x="413" y="494" type="line"/>
      <point x="521" y="649" type="line"/>
      <point x="514" y="705" type="line"/>
      <point x="183" y="705" type="line" smooth="yes"/>
      <point x="163" y="705"/>
      <point x="69" y="715"/>
      <point x="69" y="715" type="curve"/>
      <point x="50" y="697" type="line"/>
      <point x="43" y="528" type="line"/>
      <point x="101" y="523" type="line"/>
      <point x="103" y="549"/>
      <point x="110" y="592"/>
      <point x="114" y="607" type="curve"/>
      <point x="130" y="641" type="line"/>
      <point x="152" y="643"/>
      <point x="187" y="646"/>
      <point x="216" y="646" type="curve" smooth="yes"/>
    </contour>
  </outline>
</glyph>
<glyph name="bracketright" format="1">
  <advance width="265"/>
  <unicode hex="005D"/>
  <outline>
    <contour>
      <point x="180" y="90" type="line"/>
      <point x="180" y="70"/>
      <point x="190" y="-102"/>
      <point x="190" y="-102" type="curve"/>
      <point x="171" y="-121" type="line"/>
      <point x="102" y="-121"/>
      <point x="13" y="-125"/>
      <point x="13" y="-125" type="curve"/>
      <point x="10" y="-82" type="line"/>
      <point x="94" y="-70" type="line"/>
      <point x="94" y="-70"/>
      <point x="108" y="-10"/>
      <point x="108" y="40" type="curve" smooth="yes"/>
      <point x="108" y="601" type="line" smooth="yes"/>
      <point x="108" y="651"/>
      <point x="94" y="711"/>
      <point x="94" y="711" type="curve"/>
      <point x="10" y="723" type="line"/>
      <point x="13" y="766" type="line"/>
      <point x="13" y="766"/>
      <point x="102" y="762"/>
      <point x="171" y="762" type="curve"/>
      <point x="190" y="743" type="line"/>
      <point x="190" y="743"/>
      <point x="180" y="571"/>
      <point x="180" y="551" type="curve"/>
    </contour>
  </outline>
</glyph>
<glyph name="a" format="1">
  <advance width="505"/>
  <unicode hex="0061"/>
  <outline>
    <contour>
      <point x="357" y="0" type="line"/>
      <point x="437" y="0"/>
      <point x="486" y="-5"/>
      <point x="486" y="-5" type="curve"/>
      <point x="493" y="54" type="line"/>
      <point x="424" y="61" type="line"/>
      <point x="424" y="61"/>
      <point x="414" y="117"/>
      <point x="414" y="167" type="curve" smooth="yes"/>
      <point x="414" y="291" type="line" smooth="yes"/>
      <point x="414" y="444"/>
      <point x="368" y="503"/>
      <point x="249" y="503" type="curve" smooth="yes"/>
      <point x="189" y="503"/>
      <point x="128" y="495"/>
      <point x="68" y="479" type="curve"/>
      <point x="79" y="343" type="line"/>
      <point x="137" y="346" type="line"/>
      <point x="137" y="387" type="line"/>
      <point x="144" y="429" type="line"/>
      <point x="169" y="441"/>
      <point x="206" y="449"/>
      <point x="239" y="449" type="curve" smooth="yes"/>
      <point x="302" y="449"/>
      <point x="333" y="404"/>
      <point x="333" y="311" type="curve" smooth="yes"/>
      <point x="333" y="278" type="line"/>
      <point x="173" y="251" type="line" smooth="yes"/>
      <point x="83" y="236"/>
      <point x="39" y="190"/>
      <point x="39" y="118" type="curve" smooth="yes"/>
      <point x="39" y="40"/>
      <point x="95" y="-10"/>
      <point x="184" y="-10" type="curve" smooth="yes"/>
      <point x="249" y="-10"/>
      <point x="317" y="28"/>
      <point x="343" y="79" type="curve"/>
    </contour>
    <contour>
      <point x="333" y="227" type="line"/>
      <point x="333" y="167" type="line"/>
      <point x="323" y="102"/>
      <point x="267" y="54"/>
      <point x="200" y="54" type="curve" smooth="yes"/>
      <point x="153" y="54"/>
      <point x="127" y="83"/>
      <point x="127" y="133" type="curve" smooth="yes"/>
      <point x="127" y="168"/>
      <point x="150" y="193"/>
      <point x="190" y="200" type="curve" smooth="yes"/>
    </contour>
    <contour>
      <point x="428" y="10" type="move" name="ogonek"/>
    </contour>
    <contour>
      <point x="244" y="0" type="move" name="bottom"/>
    </contour>
    <contour>
      <point x="242" y="494" type="move" name="top"/>
    </contour>
  </outline>
</glyph>
<glyph name="c" format="1">
  <advance width="466"/>
  <unicode hex="0063"/>
  <outline>
    <contour>
      <point x="117" y="503"/>
      <point x="40" y="399"/>
      <point x="40" y="246" type="curve" smooth="yes"/>
      <point x="40" y="93"/>
      <point x="116" y="-10"/>
      <point x="269" y="-10" type="curve" smooth="yes"/>
      <point x="373" y="-10"/>
      <point x="438" y="44"/>
      <point x="438" y="44" type="curve"/>
      <point x="410" y="91" type="line"/>
      <point x="410" y="91"/>
      <point x="348" y="55"/>
      <point x="270" y="55" type="curve" smooth="yes"/>
      <point x="170" y="55"/>
      <point x="134" y="146"/>
      <point x="134" y="246" type="curve" smooth="yes"/>
      <point x="134" y="346"/>
      <point x="170" y="446"/>
      <point x="270" y="446" type="curve" smooth="yes"/>
      <point x="299" y="446"/>
      <point x="323" y="440"/>
      <point x="352" y="416" type="curve"/>
      <point x="356" y="402"/>
      <point x="359" y="389"/>
      <point x="359" y="382" type="curve" smooth="yes"/>
      <point x="359" y="346" type="line"/>
      <point x="417" y="343" type="line"/>
      <point x="427" y="468" type="line"/>
      <point x="367" y="488"/>
      <point x="329" y="503"/>
      <point x="270" y="503" type="curve" smooth="yes"/>
    </contour>
    <contour>
      <point x="273" y="494" type="move" name="top"/>
    </contour>
    <contour>
      <point x="267" y="0" type="move" name="bottom"/>
    </contour>
  </outline>
</glyph>
<glyph name="d" format="1">
  <advance width="553"/>
  <unicode hex="0064"/>
  <outline>
    <contour>
      <point x="541" y="54" type="line"/>
      <point x="472" y="61" type="line"/>
      <point x="472" y="61"/>
      <point x="462" y="117"/>
      <point x="462" y="167" type="curve" smooth="yes"/>
      <point x="462" y="585" type="line" smooth="yes"/>
      <point x="462" y="635"/>
      <point x="469" y="738"/>
      <point x="469" y="738" type="curve"/>
      <point x="450" y="756" type="line"/>
      <point x="392" y="756" type="line" smooth="yes"/>
      <point x="372" y="756"/>
      <point x="288" y="760"/>
      <point x="288" y="760" type="curve"/>
      <point x="283" y="707" type="line"/>
      <point x="371" y="691" type="line"/>
      <point x="371" y="691"/>
      <point x="381" y="635"/>
      <point x="381" y="615" type="curve" smooth="yes"/>
      <point x="381" y="479" type="line"/>
      <point x="328" y="498"/>
      <point x="298" y="503"/>
      <point x="256" y="503" type="curve" smooth="yes"/>
      <point x="126" y="503"/>
      <point x="46" y="405"/>
      <point x="46" y="247" type="curve" smooth="yes"/>
      <point x="46" y="87"/>
      <point x="122" y="-10"/>
      <point x="247" y="-10" type="curve" smooth="yes"/>
      <point x="300" y="-10"/>
      <point x="371" y="34"/>
      <point x="391" y="80" type="curve"/>
      <point x="405" y="0" type="line"/>
      <point x="485" y="0"/>
      <point x="534" y="-5"/>
      <point x="534" y="-5" type="curve"/>
    </contour>
    <contour>
      <point x="381" y="207" type="line" smooth="yes"/>
      <point x="381" y="111"/>
      <point x="334" y="54"/>
      <point x="254" y="54" type="curve" smooth="yes"/>
      <point x="182" y="54"/>
      <point x="138" y="127"/>
      <point x="138" y="246" type="curve" smooth="yes"/>
      <point x="138" y="370"/>
      <point x="185" y="442"/>
      <point x="266" y="442" type="curve" smooth="yes"/>
      <point x="308" y="442"/>
      <point x="343" y="431"/>
      <point x="381" y="406" type="curve"/>
    </contour>
  </outline>
</glyph>
<glyph name="e" format="1">
  <advance width="478"/>
  <unicode hex="0065"/>
  <outline>
    <contour>
      <point x="111" y="503"/>
      <point x="40" y="395"/>
      <point x="40" y="245" type="curve" smooth="yes"/>
      <point x="40" y="94"/>
      <point x="119" y="-10"/>
      <point x="270" y="-10" type="curve" smooth="yes"/>
      <point x="383" y="-10"/>
      <point x="447" y="50"/>
      <point x="447" y="50" type="curve"/>
      <point x="419" y="96" type="line"/>
      <point x="419" y="96"/>
      <point x="355" y="55"/>
      <point x="270" y="55" type="curve" smooth="yes"/>
      <point x="176" y="55"/>
      <point x="134" y="156"/>
      <point x="134" y="250" type="curve" smooth="yes"/>
      <point x="134" y="344"/>
      <point x="160" y="451"/>
      <point x="254" y="451" type="curve" smooth="yes"/>
      <point x="325" y="451"/>
      <point x="358" y="395"/>
      <point x="358" y="324" type="curve" smooth="yes"/>
      <point x="358" y="319"/>
      <point x="357" y="304"/>
      <point x="357" y="304" type="curve"/>
      <point x="115" y="286" type="line"/>
      <point x="115" y="237" type="line"/>
      <point x="433" y="237" type="line"/>
      <point x="450" y="270" type="line"/>
      <point x="450" y="410"/>
      <point x="398" y="503"/>
      <point x="258" y="503" type="curve" smooth="yes"/>
    </contour>
    <contour>
      <point x="370" y="10" type="move" name="ogonek"/>
    </contour>
    <contour>
      <point x="268" y="0" type="move" name="bottom"/>
    </contour>
    <contour>
      <point x="261" y="494" type="move" name="top"/>
    </contour>
  </outline>
</glyph>
<glyph name="f" format="1">
  <advance width="351"/>
  <unicode hex="0066"/>
  <outline>
    <contour>
      <point x="183" y="770"/>
      <point x="122" y="702"/>
      <point x="122" y="597" type="curve" smooth="yes"/>
      <point x="122" y="511" type="line"/>
      <point x="99" y="497"/>
      <point x="75" y="493"/>
      <point x="42" y="482" type="curve"/>
      <point x="45" y="440" type="line"/>
      <point x="122" y="440" type="line"/>
      <point x="122" y="137" type="line" smooth="yes"/>
      <point x="122" y="117"/>
      <point x="112" y="61"/>
      <point x="112" y="61" type="curve"/>
      <point x="36" y="45" type="line"/>
      <point x="41" y="-5" type="line"/>
      <point x="41" y="-5"/>
      <point x="132" y="0"/>
      <point x="152" y="0" type="curve" smooth="yes"/>
      <point x="232" y="0"/>
      <point x="301" y="-5"/>
      <point x="301" y="-5" type="curve"/>
      <point x="308" y="54" type="line"/>
      <point x="210" y="61" type="line"/>
      <point x="210" y="61"/>
      <point x="203" y="117"/>
      <point x="203" y="167" type="curve" smooth="yes"/>
      <point x="203" y="440" type="line"/>
      <point x="338" y="440" type="line"/>
      <point x="343" y="494" type="line"/>
      <point x="203" y="494" type="line"/>
      <point x="203" y="566" type="line" smooth="yes"/>
      <point x="203" y="656"/>
      <point x="208" y="717"/>
      <point x="298" y="717" type="curve"/>
      <point x="325" y="716" type="line"/>
      <point x="331" y="695"/>
      <point x="337" y="673"/>
      <point x="337" y="664" type="curve" smooth="yes"/>
      <point x="337" y="628" type="line"/>
      <point x="390" y="625" type="line"/>
      <point x="401" y="760" type="line"/>
      <point x="401" y="760"/>
      <point x="339" y="770"/>
      <point x="298" y="770" type="curve" smooth="yes"/>
    </contour>
  </outline>
</glyph>
<glyph name="h" format="1">
  <advance width="594"/>
  <unicode hex="0068"/>
  <outline>
    <contour>
      <point x="20" y="707" type="line"/>
      <point x="96" y="691" type="line"/>
      <point x="96" y="691"/>
      <point x="106" y="635"/>
      <point x="106" y="615" type="curve" smooth="yes"/>
      <point x="106" y="137" type="line" smooth="yes"/>
      <point x="106" y="117"/>
      <point x="98" y="70"/>
      <point x="96" y="61" type="curve"/>
      <point x="19" y="45" type="line"/>
      <point x="24" y="-5" type="line"/>
      <point x="24" y="-5"/>
      <point x="115" y="0"/>
      <point x="135" y="0" type="curve" smooth="yes"/>
      <point x="215" y="0"/>
      <point x="264" y="-5"/>
      <point x="264" y="-5" type="curve"/>
      <point x="271" y="54" type="line"/>
      <point x="193" y="61" type="line"/>
      <point x="192" y="69"/>
      <point x="187" y="123"/>
      <point x="187" y="167" type="curve" smooth="yes"/>
      <point x="187" y="274" type="line" smooth="yes"/>
      <point x="188" y="372"/>
      <point x="236" y="442"/>
      <point x="315" y="442" type="curve" smooth="yes"/>
      <point x="399" y="442"/>
      <point x="418" y="360"/>
      <point x="418" y="276" type="curve" smooth="yes"/>
      <point x="418" y="137" type="line" smooth="yes"/>
      <point x="418" y="112"/>
      <point x="413" y="83"/>
      <point x="408" y="61" type="curve"/>
      <point x="341" y="45" type="line"/>
      <point x="346" y="-5" type="line"/>
      <point x="346" y="-5"/>
      <point x="428" y="0"/>
      <point x="448" y="0" type="curve" smooth="yes"/>
      <point x="528" y="0"/>
      <point x="577" y="-5"/>
      <point x="577" y="-5" type="curve"/>
      <point x="584" y="54" type="line"/>
      <point x="506" y="61" type="line"/>
      <point x="506" y="61"/>
      <point x="499" y="117"/>
      <point x="499" y="167" type="curve" smooth="yes"/>
      <point x="499" y="276" type="line" smooth="yes"/>
      <point x="499" y="414"/>
      <point x="468" y="503"/>
      <point x="330" y="503" type="curve" smooth="yes"/>
      <point x="262" y="503"/>
      <point x="214" y="467"/>
      <point x="187" y="427" type="curve"/>
      <point x="187" y="585" type="line" smooth="yes"/>
      <point x="187" y="632"/>
      <point x="191" y="707"/>
      <point x="194" y="738" type="curve"/>
      <point x="175" y="756" type="line"/>
      <point x="117" y="756" type="line" smooth="yes"/>
      <point x="97" y="756"/>
      <point x="25" y="760"/>
      <point x="25" y="760" type="curve"/>
    </contour>
  </outline>
</glyph>
<glyph name="i" format="1">
  <advance width="301"/>
  <unicode hex="0069"/>
  <outline>
    <contour>
      <point x="288" y="54" type="line"/>
      <point x="210" y="61" type="line"/>
      <point x="210" y="61"/>
      <point x="203" y="117"/>
      <point x="203" y="167" type="curve" smooth="yes"/>
      <point x="203" y="323" type="line" smooth="yes"/>
      <point x="203" y="373"/>
      <point x="210" y="476"/>
      <point x="210" y="476" type="curve"/>
      <point x="191" y="494" type="line"/>
      <point x="133" y="494" type="line" smooth="yes"/>
      <point x="113" y="494"/>
      <point x="41" y="498"/>
      <point x="41" y="498" type="curve"/>
      <point x="36" y="445" type="line"/>
      <point x="112" y="429" type="line"/>
      <point x="112" y="429"/>
      <point x="122" y="373"/>
      <point x="122" y="353" type="curve" smooth="yes"/>
      <point x="122" y="137" type="line" smooth="yes"/>
      <point x="122" y="117"/>
      <point x="112" y="61"/>
      <point x="112" y="61" type="curve"/>
      <point x="36" y="45" type="line"/>
      <point x="41" y="-5" type="line"/>
      <point x="41" y="-5"/>
      <point x="132" y="0"/>
      <point x="152" y="0" type="curve" smooth="yes"/>
      <point x="232" y="0"/>
      <point x="281" y="-5"/>
      <point x="281" y="-5" type="curve"/>
    </contour>
    <contour>
      <point x="120" y="720"/>
      <point x="99" y="693"/>
      <point x="99" y="655" type="curve" smooth="yes"/>
      <point x="99" y="617"/>
      <point x="120" y="591"/>
      <point x="158" y="591" type="curve" smooth="yes"/>
      <point x="196" y="591"/>
      <point x="217" y="617"/>
      <point x="217" y="655" type="curve" smooth="yes"/>
      <point x="217" y="696"/>
      <point x="195" y="720"/>
      <point x="158" y="720" type="curve" smooth="yes"/>
    </contour>
    <contour>
      <point x="160" y="0" type="move" name="bottom"/>
    </contour>
  </outline>
</glyph>
<glyph name="j" format="1">
  <advance width="279"/>
  <unicode hex="006A"/>
  <outline>
    <contour>
      <point x="103" y="720"/>
      <point x="82" y="693"/>
      <point x="82" y="655" type="curve" smooth="yes"/>
      <point x="82" y="617"/>
      <point x="103" y="591"/>
      <point x="141" y="591" type="curve" smooth="yes"/>
      <point x="179" y="591"/>
      <point x="200" y="617"/>
      <point x="200" y="655" type="curve" smooth="yes"/>
      <point x="200" y="696"/>
      <point x="178" y="720"/>
      <point x="141" y="720" type="curve" smooth="yes"/>
    </contour>
    <contour>
      <point x="25" y="445" type="line"/>
      <point x="101" y="429" type="line"/>
      <point x="101" y="429"/>
      <point x="111" y="373"/>
      <point x="111" y="353" type="curve" smooth="yes"/>
      <point x="111" y="117" type="line"/>
      <point x="111" y="21" type="line" smooth="yes"/>
      <point x="111" y="-19"/>
      <point x="35" y="-214"/>
      <point x="35" y="-214" type="curve"/>
      <point x="71" y="-235" type="line"/>
      <point x="71" y="-235"/>
      <point x="192" y="-50"/>
      <point x="192" y="-10" type="curve" smooth="yes"/>
      <point x="192" y="323" type="line" smooth="yes"/>
      <point x="192" y="373"/>
      <point x="199" y="476"/>
      <point x="199" y="476" type="curve"/>
      <point x="180" y="494" type="line"/>
      <point x="122" y="494" type="line" smooth="yes"/>
      <point x="102" y="494"/>
      <point x="30" y="498"/>
      <point x="30" y="498" type="curve"/>
    </contour>
  </outline>
</glyph>
<glyph name="l" format="1">
  <advance width="293"/>
  <unicode hex="006C"/>
  <outline>
    <contour>
      <point x="20" y="707" type="line"/>
      <point x="96" y="691" type="line"/>
      <point x="96" y="691"/>
      <point x="106" y="635"/>
      <point x="106" y="615" type="curve" smooth="yes"/>
      <point x="106" y="137" type="line" smooth="yes"/>
      <point x="106" y="117"/>
      <point x="98" y="70"/>
      <point x="96" y="61" type="curve"/>
      <point x="19" y="45" type="line"/>
      <point x="24" y="-5" type="line"/>
      <point x="24" y="-5"/>
      <point x="115" y="0"/>
      <point x="135" y="0" type="curve" smooth="yes"/>
      <point x="215" y="0"/>
      <point x="264" y="-5"/>
      <point x="264" y="-5" type="curve"/>
      <point x="271" y="54" type="line"/>
      <point x="193" y="61" type="line"/>
      <point x="192" y="69"/>
      <point x="187" y="123"/>
      <point x="187" y="167" type="curve" smooth="yes"/>
      <point x="187" y="585" type="line" smooth="yes"/>
      <point x="187" y="632"/>
      <point x="191" y="707"/>
      <point x="194" y="738" type="curve"/>
      <point x="175" y="756" type="line"/>
      <point x="117" y="756" type="line" smooth="yes"/>
      <point x="97" y="756"/>
      <point x="25" y="760"/>
      <point x="25" y="760" type="curve"/>
    </contour>
  </outline>
</glyph>
<glyph name="m" format="1">
  <advance width="890"/>
  <unicode hex="006D"/>
  <outline>
    <contour>
      <point x="560" y="503"/>
      <point x="505" y="452"/>
      <point x="479" y="399" type="curve"/>
      <point x="499" y="276" type="line"/>
      <point x="500" y="374"/>
      <point x="548" y="442"/>
      <point x="623" y="442" type="curve" smooth="yes"/>
      <point x="698" y="442"/>
      <point x="714" y="360"/>
      <point x="714" y="276" type="curve" smooth="yes"/>
      <point x="714" y="137" type="line" smooth="yes"/>
      <point x="714" y="112"/>
      <point x="709" y="83"/>
      <point x="704" y="61" type="curve"/>
      <point x="637" y="45" type="line"/>
      <point x="642" y="-5" type="line"/>
      <point x="642" y="-5"/>
      <point x="724" y="0"/>
      <point x="744" y="0" type="curve" smooth="yes"/>
      <point x="824" y="0"/>
      <point x="873" y="-5"/>
      <point x="873" y="-5" type="curve"/>
      <point x="880" y="54" type="line"/>
      <point x="802" y="61" type="line"/>
      <point x="802" y="61"/>
      <point x="795" y="117"/>
      <point x="795" y="167" type="curve" smooth="yes"/>
      <point x="795" y="276" type="line" smooth="yes"/>
      <point x="795" y="414"/>
      <point x="767" y="503"/>
      <point x="640" y="503" type="curve" smooth="yes"/>
    </contour>
    <contour>
      <point x="36" y="445" type="line"/>
      <point x="112" y="429" type="line"/>
      <point x="112" y="429"/>
      <point x="122" y="373"/>
      <point x="122" y="353" type="curve" smooth="yes"/>
      <point x="122" y="132" type="line"/>
      <point x="120" y="109"/>
      <point x="112" y="61"/>
      <point x="112" y="61" type="curve"/>
      <point x="36" y="45" type="line"/>
      <point x="41" y="-5" type="line"/>
      <point x="41" y="-5"/>
      <point x="132" y="0"/>
      <point x="152" y="0" type="curve" smooth="yes"/>
      <point x="232" y="0"/>
      <point x="281" y="-5"/>
      <point x="281" y="-5" type="curve"/>
      <point x="288" y="54" type="line"/>
      <point x="210" y="61" type="line"/>
      <point x="210" y="61"/>
      <point x="203" y="117"/>
      <point x="203" y="167" type="curve" smooth="yes"/>
      <point x="203" y="323" type="line"/>
      <point x="188" y="476" type="line"/>
      <point x="169" y="494" type="line"/>
      <point x="133" y="494" type="line" smooth="yes"/>
      <point x="113" y="494"/>
      <point x="41" y="498"/>
      <point x="41" y="498" type="curve"/>
    </contour>
    <contour>
      <point x="269" y="503"/>
      <point x="218" y="458"/>
      <point x="194" y="412" type="curve"/>
      <point x="203" y="274" type="line"/>
      <point x="204" y="372"/>
      <point x="252" y="442"/>
      <point x="327" y="442" type="curve" smooth="yes"/>
      <point x="402" y="442"/>
      <point x="418" y="360"/>
      <point x="418" y="276" type="curve" smooth="yes"/>
      <point x="418" y="137" type="line" smooth="yes"/>
      <point x="418" y="112"/>
      <point x="413" y="83"/>
      <point x="408" y="61" type="curve"/>
      <point x="341" y="45" type="line"/>
      <point x="346" y="-5" type="line"/>
      <point x="346" y="-5"/>
      <point x="428" y="0"/>
      <point x="448" y="0" type="curve" smooth="yes"/>
      <point x="528" y="0"/>
      <point x="577" y="-5"/>
      <point x="577" y="-5" type="curve"/>
      <point x="584" y="54" type="line"/>
      <point x="506" y="61" type="line"/>
      <point x="506" y="61"/>
      <point x="499" y="117"/>
      <point x="499" y="167" type="curve" smooth="yes"/>
      <point x="499" y="276" type="line" smooth="yes"/>
      <point x="499" y="414"/>
      <point x="471" y="503"/>
      <point x="344" y="503" type="curve" smooth="yes"/>
    </contour>
  </outline>
</glyph>
<glyph name="n" format="1">
  <advance width="599"/>
  <unicode hex="006E"/>
  <outline>
    <contour>
      <point x="257" y="503"/>
      <point x="205" y="458"/>
      <point x="181" y="412" type="curve"/>
      <point x="190" y="274" type="line"/>
      <point x="191" y="372"/>
      <point x="239" y="442"/>
      <point x="318" y="442" type="curve" smooth="yes"/>
      <point x="402" y="442"/>
      <point x="421" y="360"/>
      <point x="421" y="276" type="curve" smooth="yes"/>
      <point x="421" y="137" type="line"/>
      <point x="421" y="112"/>
      <point x="416" y="83"/>
      <point x="411" y="61" type="curve"/>
      <point x="344" y="45" type="line"/>
      <point x="349" y="-5" type="line"/>
      <point x="349" y="-5"/>
      <point x="431" y="0"/>
      <point x="451" y="0" type="curve" smooth="yes"/>
      <point x="531" y="0"/>
      <point x="580" y="-5"/>
      <point x="580" y="-5" type="curve"/>
      <point x="587" y="54" type="line"/>
      <point x="509" y="61" type="line"/>
      <point x="509" y="61"/>
      <point x="502" y="117"/>
      <point x="502" y="167" type="curve" smooth="yes"/>
      <point x="502" y="276" type="line" smooth="yes"/>
      <point x="502" y="414"/>
      <point x="471" y="503"/>
      <point x="333" y="503" type="curve" smooth="yes"/>
    </contour>
    <contour>
      <point x="23" y="445" type="line"/>
      <point x="99" y="429" type="line"/>
      <point x="99" y="429"/>
      <point x="109" y="373"/>
      <point x="109" y="353" type="curve" smooth="yes"/>
      <point x="109" y="132" type="line"/>
      <point x="107" y="109"/>
      <point x="99" y="61"/>
      <point x="99" y="61" type="curve"/>
      <point x="23" y="45" type="line"/>
      <point x="28" y="-5" type="line"/>
      <point x="28" y="-5"/>
      <point x="119" y="0"/>
      <point x="139" y="0" type="curve" smooth="yes"/>
      <point x="219" y="0"/>
      <point x="268" y="-5"/>
      <point x="268" y="-5" type="curve"/>
      <point x="275" y="54" type="line"/>
      <point x="197" y="61" type="line"/>
      <point x="197" y="61"/>
      <point x="190" y="117"/>
      <point x="190" y="167" type="curve" smooth="yes"/>
      <point x="190" y="323" type="line"/>
      <point x="175" y="476" type="line"/>
      <point x="156" y="494" type="line"/>
      <point x="120" y="494" type="line" smooth="yes"/>
      <point x="100" y="494"/>
      <point x="28" y="498"/>
      <point x="28" y="498" type="curve"/>
    </contour>
    <contour>
      <point x="322" y="494" type="move" name="top"/>
    </contour>
    <contour>
      <point x="292" y="0" type="move" name="bottom"/>
    </contour>
  </outline>
</glyph>
<glyph name="p" format="1">
  <advance width="559"/>
  <unicode hex="0070"/>
  <outline>
    <contour>
      <point x="260" y="503"/>
      <point x="194" y="461"/>
      <point x="173" y="412" type="curve"/>
      <point x="167" y="476" type="line"/>
      <point x="148" y="494" type="line"/>
      <point x="112" y="494" type="line" smooth="yes"/>
      <point x="92" y="494"/>
      <point x="20" y="498"/>
      <point x="20" y="498" type="curve"/>
      <point x="15" y="445" type="line"/>
      <point x="91" y="429" type="line"/>
      <point x="91" y="429"/>
      <point x="101" y="373"/>
      <point x="101" y="353" type="curve" smooth="yes"/>
      <point x="101" y="-96" type="line" smooth="yes"/>
      <point x="101" y="-119"/>
      <point x="91" y="-167"/>
      <point x="91" y="-167" type="curve"/>
      <point x="25" y="-183" type="line"/>
      <point x="30" y="-233" type="line"/>
      <point x="30" y="-233"/>
      <point x="102" y="-228"/>
      <point x="132" y="-228" type="curve" smooth="yes"/>
      <point x="212" y="-228"/>
      <point x="280" y="-233"/>
      <point x="280" y="-233" type="curve"/>
      <point x="287" y="-174" type="line"/>
      <point x="189" y="-167" type="line"/>
      <point x="189" y="-167"/>
      <point x="182" y="-111"/>
      <point x="182" y="-61" type="curve" smooth="yes"/>
      <point x="182" y="15" type="line"/>
      <point x="218" y="-1"/>
      <point x="255" y="-10"/>
      <point x="289" y="-10" type="curve" smooth="yes"/>
      <point x="422" y="-10"/>
      <point x="519" y="102"/>
      <point x="519" y="256" type="curve" smooth="yes"/>
      <point x="519" y="413"/>
      <point x="444" y="503"/>
      <point x="314" y="503" type="curve" smooth="yes"/>
    </contour>
    <contour>
      <point x="387" y="442"/>
      <point x="429" y="378"/>
      <point x="429" y="254" type="curve" smooth="yes"/>
      <point x="429" y="122"/>
      <point x="377" y="50"/>
      <point x="283" y="50" type="curve" smooth="yes"/>
      <point x="252" y="50"/>
      <point x="217" y="62"/>
      <point x="182" y="86" type="curve"/>
      <point x="182" y="284" type="line" smooth="yes"/>
      <point x="182" y="379"/>
      <point x="231" y="442"/>
      <point x="306" y="442" type="curve" smooth="yes"/>
    </contour>
  </outline>
</glyph>
<glyph name="q" format="1">
  <advance width="543"/>
  <unicode hex="0071"/>
  <outline>
    <contour>
      <point x="530" y="-174" type="line"/>
      <point x="463" y="-167" type="line"/>
      <point x="463" y="-167"/>
      <point x="456" y="-111"/>
      <point x="456" y="-61" type="curve" smooth="yes"/>
      <point x="456" y="322" type="line" smooth="yes"/>
      <point x="456" y="372"/>
      <point x="464" y="467"/>
      <point x="464" y="467" type="curve"/>
      <point x="357" y="496"/>
      <point x="317" y="503"/>
      <point x="250" y="503" type="curve" smooth="yes"/>
      <point x="124" y="503"/>
      <point x="40" y="400"/>
      <point x="40" y="247" type="curve" smooth="yes"/>
      <point x="40" y="87"/>
      <point x="116" y="-10"/>
      <point x="241" y="-10" type="curve" smooth="yes"/>
      <point x="287" y="-10"/>
      <point x="347" y="23"/>
      <point x="375" y="62" type="curve"/>
      <point x="375" y="-91" type="line" smooth="yes"/>
      <point x="375" y="-111"/>
      <point x="365" y="-167"/>
      <point x="365" y="-167" type="curve"/>
      <point x="268" y="-183" type="line"/>
      <point x="273" y="-233" type="line"/>
      <point x="273" y="-233"/>
      <point x="345" y="-228"/>
      <point x="375" y="-228" type="curve" smooth="yes"/>
      <point x="455" y="-228"/>
      <point x="523" y="-233"/>
      <point x="523" y="-233" type="curve"/>
    </contour>
    <contour>
      <point x="176" y="54"/>
      <point x="132" y="127"/>
      <point x="132" y="246" type="curve" smooth="yes"/>
      <point x="132" y="365"/>
      <point x="182" y="442"/>
      <point x="260" y="442" type="curve" smooth="yes"/>
      <point x="298" y="442"/>
      <point x="333" y="439"/>
      <point x="369" y="431" type="curve"/>
      <point x="370" y="416"/>
      <point x="375" y="369"/>
      <point x="375" y="352" type="curve" smooth="yes"/>
      <point x="375" y="207" type="line" smooth="yes"/>
      <point x="375" y="111"/>
      <point x="328" y="54"/>
      <point x="248" y="54" type="curve" smooth="yes"/>
    </contour>
  </outline>
</glyph>
<glyph name="s" format="1">
  <advance width="413"/>
  <unicode hex="0073"/>
  <outline>
    <contour>
      <point x="55" y="162" type="line"/>
      <point x="54" y="29" type="line"/>
      <point x="54" y="29"/>
      <point x="117" y="-10"/>
      <point x="211" y="-10" type="curve" smooth="yes"/>
      <point x="314" y="-10"/>
      <point x="380" y="31"/>
      <point x="380" y="136" type="curve" smooth="yes"/>
      <point x="380" y="294"/>
      <point x="131" y="284"/>
      <point x="131" y="386" type="curve" smooth="yes"/>
      <point x="131" y="427"/>
      <point x="162" y="451"/>
      <point x="209" y="451" type="curve" smooth="yes"/>
      <point x="236" y="451"/>
      <point x="253" y="448"/>
      <point x="273" y="439" type="curve"/>
      <point x="282" y="416"/>
      <point x="292" y="392"/>
      <point x="292" y="382" type="curve" smooth="yes"/>
      <point x="292" y="346" type="line"/>
      <point x="350" y="343" type="line"/>
      <point x="352" y="486" type="line"/>
      <point x="305" y="496"/>
      <point x="255" y="503"/>
      <point x="208" y="503" type="curve" smooth="yes"/>
      <point x="119" y="503"/>
      <point x="51" y="454"/>
      <point x="51" y="370" type="curve" smooth="yes"/>
      <point x="51" y="208"/>
      <point x="298" y="222"/>
      <point x="298" y="117" type="curve" smooth="yes"/>
      <point x="298" y="64"/>
      <point x="263" y="41"/>
      <point x="212" y="41" type="curve" smooth="yes"/>
      <point x="181" y="41"/>
      <point x="155" y="47"/>
      <point x="133" y="65" type="curve"/>
      <point x="122" y="88"/>
      <point x="113" y="114"/>
      <point x="113" y="124" type="curve" smooth="yes"/>
      <point x="113" y="134"/>
      <point x="113" y="165"/>
      <point x="113" y="165" type="curve"/>
    </contour>
    <contour>
      <point x="211" y="494" type="move" name="top"/>
    </contour>
    <contour>
      <point x="208" y="0" type="move" name="bottom"/>
    </contour>
  </outline>
</glyph>
<glyph name="t" format="1">
  <advance width="344"/>
  <unicode hex="0074"/>
  <outline>
    <contour>
      <point x="314" y="83" type="line"/>
      <point x="314" y="83"/>
      <point x="271" y="54"/>
      <point x="235" y="54" type="curve" smooth="yes"/>
      <point x="198" y="54"/>
      <point x="181" y="82"/>
      <point x="181" y="132" type="curve" smooth="yes"/>
      <point x="181" y="440" type="line"/>
      <point x="316" y="440" type="line"/>
      <point x="321" y="494" type="line"/>
      <point x="181" y="494" type="line"/>
      <point x="181" y="597" type="line"/>
      <point x="146" y="601" type="line"/>
      <point x="146" y="601"/>
      <point x="108" y="521"/>
      <point x="100" y="511" type="curve"/>
      <point x="77" y="497"/>
      <point x="53" y="493"/>
      <point x="20" y="482" type="curve"/>
      <point x="23" y="440" type="line"/>
      <point x="100" y="440" type="line"/>
      <point x="100" y="156" type="line" smooth="yes"/>
      <point x="100" y="46"/>
      <point x="129" y="-10"/>
      <point x="224" y="-10" type="curve" smooth="yes"/>
      <point x="274" y="-10"/>
      <point x="310" y="17"/>
      <point x="342" y="42" type="curve"/>
    </contour>
    <contour>
      <point x="172" y="247" type="move" name="center"/>
    </contour>
    <contour>
      <point x="222" y="0" type="move" name="bottom"/>
    </contour>
  </outline>
</glyph>
<glyph name="u" format="1">
  <advance width="592"/>
  <unicode hex="0075"/>
  <outline>
    <contour>
      <point x="324" y="445" type="line"/>
      <point x="395" y="429" type="line"/>
      <point x="395" y="429"/>
      <point x="405" y="373"/>
      <point x="405" y="353" type="curve" smooth="yes"/>
      <point x="405" y="210" type="line" smooth="yes"/>
      <point x="405" y="130"/>
      <point x="361" y="54"/>
      <point x="279" y="54" type="curve" smooth="yes"/>
      <point x="205" y="54"/>
      <point x="180" y="109"/>
      <point x="180" y="183" type="curve" smooth="yes"/>
      <point x="180" y="323" type="line" smooth="yes"/>
      <point x="180" y="373"/>
      <point x="187" y="476"/>
      <point x="187" y="476" type="curve"/>
      <point x="168" y="494" type="line"/>
      <point x="110" y="494" type="line" smooth="yes"/>
      <point x="90" y="494"/>
      <point x="28" y="498"/>
      <point x="28" y="498" type="curve"/>
      <point x="23" y="445" type="line"/>
      <point x="89" y="429" type="line"/>
      <point x="89" y="429"/>
      <point x="99" y="373"/>
      <point x="99" y="353" type="curve" smooth="yes"/>
      <point x="99" y="217" type="line" smooth="yes"/>
      <point x="99" y="82"/>
      <point x="123" y="-10"/>
      <point x="261" y="-10" type="curve" smooth="yes"/>
      <point x="354" y="-10"/>
      <point x="397" y="45"/>
      <point x="416" y="78" type="curve"/>
      <point x="429" y="0" type="line"/>
      <point x="509" y="0"/>
      <point x="558" y="-5"/>
      <point x="558" y="-5" type="curve"/>
      <point x="565" y="54" type="line"/>
      <point x="496" y="61" type="line"/>
      <point x="496" y="61"/>
      <point x="486" y="117"/>
      <point x="486" y="167" type="curve" smooth="yes"/>
      <point x="486" y="323" type="line" smooth="yes"/>
      <point x="486" y="373"/>
      <point x="493" y="476"/>
      <point x="493" y="476" type="curve"/>
      <point x="474" y="494" type="line"/>
      <point x="416" y="494" type="line" smooth="yes"/>
      <point x="396" y="494"/>
      <point x="329" y="498"/>
      <point x="329" y="498" type="curve"/>
    </contour>
  </outline>
</glyph>
<glyph name="v" format="1">
  <advance width="530"/>
  <unicode hex="0076"/>
  <outline>
    <contour>
      <point x="521" y="441" type="line"/>
      <point x="518" y="499" type="line"/>
      <point x="518" y="499"/>
      <point x="475" y="494"/>
      <point x="395" y="494" type="curve" smooth="yes"/>
      <point x="375" y="494"/>
      <point x="311" y="497"/>
      <point x="311" y="497" type="curve"/>
      <point x="306" y="445" type="line"/>
      <point x="381" y="434" type="line"/>
      <point x="374" y="402"/>
      <point x="366" y="364"/>
      <point x="361" y="351" type="curve"/>
      <point x="278" y="103" type="line"/>
      <point x="192" y="349" type="line" smooth="yes"/>
      <point x="187" y="362"/>
      <point x="177" y="400"/>
      <point x="168" y="434" type="curve"/>
      <point x="228" y="441" type="line"/>
      <point x="225" y="499" type="line"/>
      <point x="225" y="499"/>
      <point x="175" y="494"/>
      <point x="95" y="494" type="curve" smooth="yes"/>
      <point x="75" y="494"/>
      <point x="6" y="497"/>
      <point x="6" y="497" type="curve"/>
      <point x="1" y="445" type="line"/>
      <point x="62" y="434" type="line"/>
      <point x="80" y="401"/>
      <point x="98" y="358"/>
      <point x="103" y="344" type="curve" smooth="yes"/>
      <point x="111" y="322"/>
      <point x="234" y="0"/>
      <point x="234" y="0" type="curve"/>
      <point x="301" y="0" type="line"/>
      <point x="416" y="319" type="line" smooth="yes"/>
      <point x="422" y="334"/>
      <point x="447" y="393"/>
      <point x="466" y="435" type="curve"/>
    </contour>
  </outline>
</glyph>
<glyph name="w" format="1">
  <advance width="800"/>
  <unicode hex="0077"/>
  <outline>
    <contour>
      <point x="796" y="441" type="line"/>
      <point x="793" y="499" type="line"/>
      <point x="793" y="499"/>
      <point x="760" y="494"/>
      <point x="680" y="494" type="curve" smooth="yes"/>
      <point x="660" y="494"/>
      <point x="586" y="497"/>
      <point x="586" y="497" type="curve"/>
      <point x="581" y="445" type="line"/>
      <point x="666" y="434" type="line"/>
      <point x="659" y="402"/>
      <point x="651" y="364"/>
      <point x="646" y="351" type="curve"/>
      <point x="563" y="103" type="line"/>
      <point x="429" y="494" type="line"/>
      <point x="390" y="494" type="line"/>
      <point x="263" y="103" type="line"/>
      <point x="177" y="349" type="line" smooth="yes"/>
      <point x="172" y="362"/>
      <point x="162" y="400"/>
      <point x="153" y="434" type="curve"/>
      <point x="233" y="441" type="line"/>
      <point x="230" y="499" type="line"/>
      <point x="230" y="499"/>
      <point x="160" y="494"/>
      <point x="80" y="494" type="curve" smooth="yes"/>
      <point x="60" y="494"/>
      <point x="11" y="497"/>
      <point x="11" y="497" type="curve"/>
      <point x="6" y="445" type="line"/>
      <point x="47" y="434" type="line"/>
      <point x="65" y="401"/>
      <point x="83" y="358"/>
      <point x="88" y="344" type="curve" smooth="yes"/>
      <point x="96" y="322"/>
      <point x="219" y="0"/>
      <point x="219" y="0" type="curve"/>
      <point x="286" y="0" type="line"/>
      <point x="400" y="335" type="line"/>
      <point x="518" y="0" type="line"/>
      <point x="586" y="0" type="line"/>
      <point x="701" y="319" type="line" smooth="yes"/>
      <point x="707" y="334"/>
      <point x="732" y="393"/>
      <point x="751" y="435" type="curve"/>
    </contour>
  </outline>
</glyph>
<glyph name="x" format="1">
  <advance width="543"/>
  <unicode hex="0078"/>
  <outline>
    <contour>
      <point x="543" y="54" type="line"/>
      <point x="482" y="59" type="line"/>
      <point x="394" y="149" type="line"/>
      <point x="312" y="256" type="line"/>
      <point x="375" y="353" type="line"/>
      <point x="443" y="433" type="line"/>
      <point x="504" y="441" type="line"/>
      <point x="501" y="499" type="line"/>
      <point x="501" y="499"/>
      <point x="457" y="494"/>
      <point x="377" y="494" type="curve" smooth="yes"/>
      <point x="357" y="494"/>
      <point x="300" y="497"/>
      <point x="300" y="497" type="curve"/>
      <point x="295" y="445" type="line"/>
      <point x="359" y="433" type="line"/>
      <point x="334" y="387" type="line"/>
      <point x="278" y="300" type="line"/>
      <point x="211" y="387" type="line"/>
      <point x="182" y="434" type="line"/>
      <point x="242" y="441" type="line"/>
      <point x="239" y="499" type="line"/>
      <point x="239" y="499"/>
      <point x="198" y="494"/>
      <point x="118" y="494" type="curve" smooth="yes"/>
      <point x="98" y="494"/>
      <point x="28" y="497"/>
      <point x="28" y="497" type="curve"/>
      <point x="23" y="445" type="line"/>
      <point x="74" y="435" type="line"/>
      <point x="147" y="353" type="line"/>
      <point x="227" y="249" type="line"/>
      <point x="157" y="149" type="line"/>
      <point x="76" y="61" type="line"/>
      <point x="14" y="45" type="line"/>
      <point x="19" y="-5" type="line"/>
      <point x="19" y="-5"/>
      <point x="96" y="0"/>
      <point x="116" y="0" type="curve" smooth="yes"/>
      <point x="196" y="0"/>
      <point x="226" y="-5"/>
      <point x="226" y="-5" type="curve"/>
      <point x="233" y="54" type="line"/>
      <point x="170" y="61" type="line"/>
      <point x="201" y="115" type="line"/>
      <point x="263" y="203" type="line"/>
      <point x="331" y="115" type="line"/>
      <point x="363" y="60" type="line"/>
      <point x="301" y="45" type="line"/>
      <point x="306" y="-5" type="line"/>
      <point x="306" y="-5"/>
      <point x="383" y="0"/>
      <point x="403" y="0" type="curve" smooth="yes"/>
      <point x="483" y="0"/>
      <point x="536" y="-5"/>
      <point x="536" y="-5" type="curve"/>
    </contour>
  </outline>
</glyph>
<glyph name="y" format="1">
  <advance width="539"/>
  <unicode hex="0079"/>
  <outline>
    <contour>
      <point x="279" y="104" type="line"/>
      <point x="180" y="349" type="line" smooth="yes"/>
      <point x="172" y="368"/>
      <point x="162" y="404"/>
      <point x="155" y="434" type="curve"/>
      <point x="227" y="441" type="line"/>
      <point x="224" y="499" type="line"/>
      <point x="224" y="499"/>
      <point x="167" y="494"/>
      <point x="87" y="494" type="curve" smooth="yes"/>
      <point x="67" y="494"/>
      <point x="5" y="497"/>
      <point x="5" y="497" type="curve"/>
      <point x="0" y="445" type="line"/>
      <point x="49" y="433" type="line"/>
      <point x="68" y="400"/>
      <point x="90" y="358"/>
      <point x="100" y="333" type="curve" smooth="yes"/>
      <point x="243" y="0" type="line"/>
      <point x="211" y="-89" type="line" smooth="yes"/>
      <point x="205" y="-104"/>
      <point x="190" y="-133"/>
      <point x="173" y="-157" type="curve"/>
      <point x="152" y="-161"/>
      <point x="119" y="-167"/>
      <point x="106" y="-167" type="curve"/>
      <point x="66" y="-166" type="line"/>
      <point x="58" y="-224" type="line"/>
      <point x="219" y="-235" type="line"/>
      <point x="425" y="319" type="line" smooth="yes"/>
      <point x="433" y="339"/>
      <point x="457" y="392"/>
      <point x="477" y="433" type="curve"/>
      <point x="530" y="441" type="line"/>
      <point x="527" y="499" type="line"/>
      <point x="527" y="499"/>
      <point x="488" y="494"/>
      <point x="412" y="494" type="curve" smooth="yes"/>
      <point x="392" y="494"/>
      <point x="325" y="497"/>
      <point x="325" y="497" type="curve"/>
      <point x="320" y="445" type="line"/>
      <point x="393" y="433" type="line"/>
      <point x="386" y="401"/>
      <point x="373" y="355"/>
      <point x="366" y="336" type="curve" smooth="yes"/>
    </contour>
    <contour>
      <point x="270" y="494" type="move" name="top"/>
    </contour>
    <contour>
      <point x="420" y="0" type="move" name="bottom"/>
    </contour>
  </outline>
</glyph>
<glyph name="z" format="1">
  <advance width="460"/>
  <unicode hex="007A"/>
  <outline>
    <contour>
      <point x="54" y="478" type="line"/>
      <point x="49" y="339" type="line"/>
      <point x="107" y="335" type="line"/>
      <point x="111" y="374" type="line" smooth="yes"/>
      <point x="112" y="385"/>
      <point x="129" y="425"/>
      <point x="135" y="436" type="curve"/>
      <point x="157" y="439"/>
      <point x="182" y="442"/>
      <point x="188" y="442" type="curve" smooth="yes"/>
      <point x="310" y="442" type="line"/>
      <point x="294" y="411"/>
      <point x="269" y="366"/>
      <point x="260" y="352" type="curve" smooth="yes"/>
      <point x="136" y="168" type="line" smooth="yes"/>
      <point x="121" y="146"/>
      <point x="41" y="58"/>
      <point x="41" y="58" type="curve"/>
      <point x="48" y="0" type="line"/>
      <point x="291" y="0" type="line" smooth="yes"/>
      <point x="311" y="0"/>
      <point x="401" y="-3"/>
      <point x="401" y="-3" type="curve"/>
      <point x="419" y="16" type="line"/>
      <point x="428" y="143" type="line"/>
      <point x="370" y="149" type="line"/>
      <point x="367" y="130"/>
      <point x="365" y="112"/>
      <point x="364" y="109" type="curve" smooth="yes"/>
      <point x="357" y="88"/>
      <point x="349" y="72"/>
      <point x="342" y="58" type="curve"/>
      <point x="318" y="55"/>
      <point x="288" y="52"/>
      <point x="283" y="52" type="curve" smooth="yes"/>
      <point x="158" y="52" type="line"/>
      <point x="175" y="84"/>
      <point x="199" y="128"/>
      <point x="208" y="142" type="curve" smooth="yes"/>
      <point x="330" y="327" type="line"/>
      <point x="416" y="436" type="line"/>
      <point x="409" y="494" type="line"/>
      <point x="167" y="494" type="line" smooth="yes"/>
      <point x="147" y="494"/>
      <point x="72" y="497"/>
      <point x="72" y="497" type="curve"/>
    </contour>
    <contour>
      <point x="230" y="494" type="move" name="top"/>
    </contour>
  </outline>
</glyph>
<glyph name="bar" format="1">
  <advance width="279"/>
  <unicode hex="007C"/>
  <outline>
    <contour>
      <point x="107" y="760" type="line"/>
      <point x="107" y="-113" type="line"/>
      <point x="172" y="-122" type="line"/>
      <point x="172" y="752" type="line"/>
    </contour>
  </outline>
</glyph>
<glyph name="cent" format="1">
  <advance width="483"/>
  <unicode hex="00A2"/>
  <outline>
    <contour>
      <point x="410" y="168" type="line"/>
      <point x="410" y="168"/>
      <point x="351" y="134"/>
      <point x="275" y="132" type="curve"/>
      <point x="290" y="522" type="line"/>
      <point x="311" y="519"/>
      <point x="330" y="511"/>
      <point x="352" y="493" type="curve"/>
      <point x="356" y="479"/>
      <point x="359" y="466"/>
      <point x="359" y="459" type="curve" smooth="yes"/>
      <point x="359" y="423" type="line"/>
      <point x="417" y="420" type="line"/>
      <point x="427" y="545" type="line"/>
      <point x="375" y="562"/>
      <point x="340" y="576"/>
      <point x="293" y="579" type="curve"/>
      <point x="297" y="686" type="line"/>
      <point x="263" y="689" type="line"/>
      <point x="258" y="580" type="line"/>
      <point x="113" y="575"/>
      <point x="40" y="472"/>
      <point x="40" y="323" type="curve" smooth="yes"/>
      <point x="40" y="181"/>
      <point x="106" y="82"/>
      <point x="237" y="69" type="curve"/>
      <point x="233" y="-39" type="line"/>
      <point x="268" y="-42" type="line"/>
      <point x="272" y="67" type="line"/>
      <point x="374" y="68"/>
      <point x="438" y="121"/>
      <point x="438" y="121" type="curve"/>
    </contour>
    <contour>
      <point x="134" y="418"/>
      <point x="167" y="513"/>
      <point x="256" y="522" type="curve"/>
      <point x="240" y="135" type="line"/>
      <point x="163" y="152"/>
      <point x="134" y="234"/>
      <point x="134" y="323" type="curve" smooth="yes"/>
    </contour>
  </outline>
</glyph>
<glyph name="sterling" format="1">
  <advance width="571"/>
  <unicode hex="00A3"/>
  <outline>
    <contour>
      <point x="556" y="165" type="line"/>
      <point x="501" y="170" type="line"/>
      <point x="499" y="154"/>
      <point x="490" y="118"/>
      <point x="486" y="103" type="curve"/>
      <point x="485" y="96"/>
      <point x="475" y="80"/>
      <point x="465" y="66" type="curve"/>
      <point x="443" y="62"/>
      <point x="409" y="57"/>
      <point x="378" y="57" type="curve" smooth="yes"/>
      <point x="250" y="57" type="line" smooth="yes"/>
      <point x="250" y="57"/>
      <point x="243" y="117"/>
      <point x="243" y="167" type="curve" smooth="yes"/>
      <point x="243" y="246" type="line"/>
      <point x="462" y="256" type="line"/>
      <point x="460" y="290" type="line"/>
      <point x="243" y="280" type="line"/>
      <point x="243" y="352" type="line"/>
      <point x="457" y="362" type="line"/>
      <point x="455" y="396" type="line"/>
      <point x="243" y="387" type="line"/>
      <point x="243" y="509" type="line" smooth="yes"/>
      <point x="243" y="571"/>
      <point x="282" y="607"/>
      <point x="352" y="607" type="curve" smooth="yes"/>
      <point x="392" y="607"/>
      <point x="420" y="602"/>
      <point x="456" y="585" type="curve"/>
      <point x="462" y="561"/>
      <point x="468" y="538"/>
      <point x="468" y="529" type="curve" smooth="yes"/>
      <point x="468" y="489" type="line"/>
      <point x="527" y="483" type="line"/>
      <point x="541" y="630" type="line"/>
      <point x="481" y="646"/>
      <point x="413" y="662"/>
      <point x="353" y="662" type="curve" smooth="yes"/>
      <point x="238" y="662"/>
      <point x="152" y="603"/>
      <point x="152" y="495" type="curve" smooth="yes"/>
      <point x="152" y="383" type="line"/>
      <point x="45" y="378" type="line"/>
      <point x="47" y="343" type="line"/>
      <point x="152" y="348" type="line"/>
      <point x="152" y="276" type="line"/>
      <point x="50" y="272" type="line"/>
      <point x="52" y="237" type="line"/>
      <point x="152" y="242" type="line"/>
      <point x="152" y="137" type="line" smooth="yes"/>
      <point x="152" y="120"/>
      <point x="145" y="74"/>
      <point x="143" y="61" type="curve"/>
      <point x="64" y="45" type="line"/>
      <point x="69" y="-5" type="line"/>
      <point x="69" y="-5"/>
      <point x="167" y="0"/>
      <point x="187" y="0" type="curve" smooth="yes"/>
      <point x="408" y="0" type="line" smooth="yes"/>
      <point x="428" y="0"/>
      <point x="522" y="-4"/>
      <point x="522" y="-4" type="curve"/>
      <point x="541" y="14" type="line"/>
    </contour>
  </outline>
</glyph>
<glyph name="yen" format="1">
  <advance width="645"/>
  <unicode hex="00A5"/>
  <outline>
    <contour>
      <point x="364" y="248" type="line"/>
      <point x="529" y="256" type="line"/>
      <point x="527" y="290" type="line"/>
      <point x="364" y="283" type="line"/>
      <point x="364" y="292" type="line"/>
      <point x="403" y="357" type="line"/>
      <point x="525" y="362" type="line"/>
      <point x="524" y="396" type="line"/>
      <point x="423" y="391" type="line"/>
      <point x="496" y="513" type="line"/>
      <point x="510" y="529"/>
      <point x="545" y="567"/>
      <point x="568" y="592" type="curve"/>
      <point x="636" y="611" type="line"/>
      <point x="631" y="658" type="line"/>
      <point x="476" y="653" type="line"/>
      <point x="396" y="653" type="line"/>
      <point x="389" y="599" type="line"/>
      <point x="463" y="590" type="line"/>
      <point x="457" y="573"/>
      <point x="449" y="556"/>
      <point x="444" y="545" type="curve"/>
      <point x="326" y="346" type="line"/>
      <point x="234" y="499" type="line" smooth="yes"/>
      <point x="224" y="517"/>
      <point x="204" y="562"/>
      <point x="193" y="589" type="curve"/>
      <point x="270" y="611" type="line"/>
      <point x="265" y="658" type="line"/>
      <point x="111" y="653" type="line"/>
      <point x="12" y="653" type="line"/>
      <point x="5" y="599" type="line"/>
      <point x="59" y="591" type="line"/>
      <point x="77" y="571"/>
      <point x="105" y="539"/>
      <point x="119" y="523" type="curve"/>
      <point x="204" y="382" type="line"/>
      <point x="112" y="378" type="line"/>
      <point x="114" y="343" type="line"/>
      <point x="224" y="348" type="line"/>
      <point x="266" y="279" type="line"/>
      <point x="116" y="272" type="line"/>
      <point x="117" y="237" type="line"/>
      <point x="271" y="244" type="line"/>
      <point x="271" y="137" type="line" smooth="yes"/>
      <point x="271" y="117"/>
      <point x="261" y="57"/>
      <point x="261" y="57" type="curve"/>
      <point x="184" y="48" type="line"/>
      <point x="189" y="-4" type="line"/>
      <point x="189" y="-4"/>
      <point x="244" y="0"/>
      <point x="284" y="0" type="curve" smooth="yes"/>
      <point x="355" y="0"/>
      <point x="443" y="-4"/>
      <point x="443" y="-4" type="curve"/>
      <point x="449" y="51" type="line"/>
      <point x="371" y="57" type="line"/>
      <point x="371" y="57"/>
      <point x="364" y="117"/>
      <point x="364" y="167" type="curve" smooth="yes"/>
    </contour>
  </outline>
</glyph>
<glyph name="brokenbar" format="1">
  <advance width="279"/>
  <unicode hex="00A6"/>
  <outline>
    <contour>
      <point x="172" y="392" type="line"/>
      <point x="172" y="752" type="line"/>
      <point x="107" y="760" type="line"/>
      <point x="107" y="400" type="line"/>
    </contour>
    <contour>
      <point x="107" y="212" type="line"/>
      <point x="107" y="-113" type="line"/>
      <point x="172" y="-122" type="line"/>
      <point x="172" y="205" type="line"/>
    </contour>
  </outline>
</glyph>
<glyph name="section" format="1">
  <advance width="537"/>
  <unicode hex="00A7"/>
  <outline>
    <contour>
      <point x="397" y="209" type="line"/>
      <point x="427" y="231"/>
      <point x="458" y="273"/>
      <point x="458" y="308" type="curve" smooth="yes"/>
      <point x="458" y="459"/>
      <point x="177" y="464"/>
      <point x="177" y="584" type="curve" smooth="yes"/>
      <point x="177" y="637"/>
      <point x="212" y="665"/>
      <point x="256" y="665" type="curve" smooth="yes"/>
      <point x="293" y="665"/>
      <point x="319" y="660"/>
      <point x="353" y="646" type="curve"/>
      <point x="359" y="627"/>
      <point x="365" y="608"/>
      <point x="365" y="601" type="curve" smooth="yes"/>
      <point x="365" y="568" type="line"/>
      <point x="412" y="563" type="line"/>
      <point x="424" y="694" type="line"/>
      <point x="372" y="707"/>
      <point x="312" y="720"/>
      <point x="258" y="720" type="curve" smooth="yes"/>
      <point x="157" y="720"/>
      <point x="80" y="666"/>
      <point x="80" y="568" type="curve" smooth="yes"/>
      <point x="80" y="378"/>
      <point x="386" y="398"/>
      <point x="386" y="272" type="curve" smooth="yes"/>
      <point x="386" y="252"/>
      <point x="375" y="234"/>
      <point x="368" y="226" type="curve"/>
    </contour>
    <contour>
      <point x="147" y="411" type="line"/>
      <point x="117" y="391"/>
      <point x="85" y="348"/>
      <point x="85" y="313" type="curve" smooth="yes"/>
      <point x="85" y="159"/>
      <point x="366" y="173"/>
      <point x="366" y="36" type="curve" smooth="yes"/>
      <point x="366" y="-23"/>
      <point x="329" y="-55"/>
      <point x="272" y="-55" type="curve" smooth="yes"/>
      <point x="230" y="-55"/>
      <point x="194" y="-45"/>
      <point x="166" y="-33" type="curve"/>
      <point x="162" y="-15"/>
      <point x="157" y="11"/>
      <point x="157" y="21" type="curve" smooth="yes"/>
      <point x="157" y="60" type="line"/>
      <point x="102" y="65" type="line"/>
      <point x="90" y="-71" type="line"/>
      <point x="90" y="-71"/>
      <point x="161" y="-115"/>
      <point x="271" y="-115" type="curve" smooth="yes"/>
      <point x="380" y="-115"/>
      <point x="467" y="-62"/>
      <point x="467" y="46" type="curve" smooth="yes"/>
      <point x="467" y="237"/>
      <point x="159" y="223"/>
      <point x="159" y="351" type="curve" smooth="yes"/>
      <point x="159" y="358"/>
      <point x="163" y="380"/>
      <point x="175" y="394" type="curve"/>
    </contour>
  </outline>
</glyph>
<glyph name="dieresis" format="1">
  <advance width="360"/>
  <unicode hex="00A8"/>
  <outline>
    <contour>
      <point x="26" y="713"/>
      <point x="8" y="689"/>
      <point x="8" y="653" type="curve" smooth="yes"/>
      <point x="8" y="617"/>
      <point x="26" y="594"/>
      <point x="62" y="594" type="curve" smooth="yes"/>
      <point x="98" y="594"/>
      <point x="116" y="617"/>
      <point x="116" y="653" type="curve" smooth="yes"/>
      <point x="116" y="692"/>
      <point x="97" y="713"/>
      <point x="62" y="713" type="curve" smooth="yes"/>
    </contour>
    <contour>
      <point x="262" y="713"/>
      <point x="244" y="689"/>
      <point x="244" y="653" type="curve" smooth="yes"/>
      <point x="244" y="617"/>
      <point x="262" y="594"/>
      <point x="298" y="594" type="curve" smooth="yes"/>
      <point x="334" y="594"/>
      <point x="352" y="617"/>
      <point x="352" y="653" type="curve" smooth="yes"/>
      <point x="352" y="692"/>
      <point x="333" y="713"/>
      <point x="298" y="713" type="curve" smooth="yes"/>
    </contour>
  </outline>
</glyph>
<glyph name="copyright" format="1">
  <advance width="845"/>
  <unicode hex="00A9"/>
  <outline>
    <contour>
      <point x="564" y="152" type="line"/>
      <point x="522" y="151" type="line"/>
      <point x="522" y="151"/>
      <point x="522" y="126"/>
      <point x="521" y="118" type="curve" smooth="yes"/>
      <point x="521" y="113"/>
      <point x="517" y="97"/>
      <point x="512" y="86" type="curve"/>
      <point x="487" y="80"/>
      <point x="455" y="76"/>
      <point x="431" y="76" type="curve" smooth="yes"/>
      <point x="349" y="76"/>
      <point x="308" y="153"/>
      <point x="308" y="250" type="curve" smooth="yes"/>
      <point x="308" y="347"/>
      <point x="349" y="423"/>
      <point x="431" y="423" type="curve" smooth="yes"/>
      <point x="454" y="423"/>
      <point x="483" y="418"/>
      <point x="507" y="412" type="curve"/>
      <point x="510" y="403"/>
      <point x="514" y="389"/>
      <point x="514" y="384" type="curve" smooth="yes"/>
      <point x="514" y="352" type="line"/>
      <point x="555" y="349" type="line"/>
      <point x="562" y="450" type="line"/>
      <point x="522" y="459"/>
      <point x="482" y="470"/>
      <point x="430" y="470" type="curve" smooth="yes"/>
      <point x="294" y="470"/>
      <point x="225" y="380"/>
      <point x="225" y="249" type="curve" smooth="yes"/>
      <point x="225" y="118"/>
      <point x="294" y="29"/>
      <point x="430" y="29" type="curve" smooth="yes"/>
      <point x="482" y="29"/>
      <point x="527" y="40"/>
      <point x="567" y="49" type="curve"/>
    </contour>
    <contour>
      <point x="788" y="454"/>
      <point x="625" y="615"/>
      <point x="422" y="615" type="curve" smooth="yes"/>
      <point x="222" y="615"/>
      <point x="57" y="452"/>
      <point x="57" y="250" type="curve" smooth="yes"/>
      <point x="57" y="44"/>
      <point x="224" y="-115"/>
      <point x="422" y="-115" type="curve" smooth="yes"/>
      <point x="624" y="-115"/>
      <point x="788" y="52"/>
      <point x="788" y="250" type="curve" smooth="yes"/>
    </contour>
    <contour>
      <point x="743" y="74"/>
      <point x="600" y="-71"/>
      <point x="422" y="-71" type="curve" smooth="yes"/>
      <point x="246" y="-71"/>
      <point x="101" y="74"/>
      <point x="101" y="250" type="curve" smooth="yes"/>
      <point x="101" y="430"/>
      <point x="246" y="571"/>
      <point x="422" y="571" type="curve" smooth="yes"/>
      <point x="599" y="571"/>
      <point x="743" y="425"/>
      <point x="743" y="250" type="curve" smooth="yes"/>
    </contour>
  </outline>
</glyph>
<glyph name="ordfeminine" format="1">
  <advance width="331"/>
  <unicode hex="00AA"/>
  <outline>
    <contour>
      <point x="214" y="450" type="line"/>
      <point x="283" y="450"/>
      <point x="314" y="447"/>
      <point x="314" y="447" type="curve"/>
      <point x="318" y="489" type="line"/>
      <point x="278" y="493" type="line"/>
      <point x="278" y="493"/>
      <point x="272" y="531"/>
      <point x="272" y="561" type="curve" smooth="yes"/>
      <point x="272" y="639" type="line" smooth="yes"/>
      <point x="272" y="718"/>
      <point x="233" y="757"/>
      <point x="154" y="757" type="curve" smooth="yes"/>
      <point x="122" y="757"/>
      <point x="78" y="751"/>
      <point x="41" y="741" type="curve"/>
      <point x="50" y="646" type="line"/>
      <point x="92" y="648" type="line"/>
      <point x="91" y="676" type="line"/>
      <point x="96" y="701" type="line"/>
      <point x="110" y="708"/>
      <point x="132" y="712"/>
      <point x="150" y="712" type="curve" smooth="yes"/>
      <point x="184" y="712"/>
      <point x="201" y="691"/>
      <point x="201" y="644" type="curve" smooth="yes"/>
      <point x="201" y="625" type="line"/>
      <point x="108" y="610" type="line" smooth="yes"/>
      <point x="53" y="601"/>
      <point x="26" y="573"/>
      <point x="26" y="527" type="curve" smooth="yes"/>
      <point x="26" y="476"/>
      <point x="61" y="444"/>
      <point x="117" y="444" type="curve" smooth="yes"/>
      <point x="156" y="444"/>
      <point x="190" y="463"/>
      <point x="208" y="496" type="curve"/>
    </contour>
    <contour>
      <point x="201" y="589" type="line"/>
      <point x="201" y="548" type="line"/>
      <point x="195" y="518"/>
      <point x="170" y="497"/>
      <point x="140" y="497" type="curve" smooth="yes"/>
      <point x="114" y="497"/>
      <point x="101" y="511"/>
      <point x="101" y="539" type="curve" smooth="yes"/>
      <point x="101" y="561"/>
      <point x="113" y="573"/>
      <point x="137" y="578" type="curve"/>
    </contour>
  </outline>
</glyph>
<glyph name="guillemetleft" format="1">
  <advance width="416"/>
  <unicode hex="00AB"/>
  <outline>
    <contour>
      <point x="25" y="242" type="line"/>
      <point x="178" y="20" type="line"/>
      <point x="215" y="45" type="line"/>
      <point x="108" y="242" type="line"/>
      <point x="215" y="439" type="line"/>
      <point x="178" y="464" type="line"/>
    </contour>
    <contour>
      <point x="188" y="242" type="line"/>
      <point x="338" y="24" type="line"/>
      <point x="374" y="49" type="line"/>
      <point x="270" y="242" type="line"/>
      <point x="374" y="435" type="line"/>
      <point x="338" y="460" type="line"/>
    </contour>
  </outline>
</glyph>
<glyph name="degree" format="1">
  <advance width="360"/>
  <unicode hex="00B0"/>
  <outline>
    <contour>
      <point x="331" y="609"/>
      <point x="273" y="666"/>
      <point x="180" y="666" type="curve" smooth="yes"/>
      <point x="88" y="666"/>
      <point x="30" y="609"/>
      <point x="30" y="517" type="curve" smooth="yes"/>
      <point x="30" y="425"/>
      <point x="88" y="368"/>
      <point x="180" y="368" type="curve" smooth="yes"/>
      <point x="273" y="368"/>
      <point x="331" y="425"/>
      <point x="331" y="517" type="curve" smooth="yes"/>
    </contour>
    <contour>
      <point x="107" y="569"/>
      <point x="128" y="615"/>
      <point x="181" y="615" type="curve" smooth="yes"/>
      <point x="233" y="615"/>
      <point x="254" y="569"/>
      <point x="254" y="517" type="curve" smooth="yes"/>
      <point x="254" y="465"/>
      <point x="233" y="419"/>
      <point x="181" y="419" type="curve" smooth="yes"/>
      <point x="128" y="419"/>
      <point x="107" y="465"/>
      <point x="107" y="517" type="curve" smooth="yes"/>
    </contour>
  </outline>
</glyph>
<glyph name="plusminus" format="1">
  <advance width="560"/>
  <unicode hex="00B1"/>
  <outline>
    <contour>
      <point x="507" y="371" type="line"/>
      <point x="311" y="371" type="line"/>
      <point x="309" y="562" type="line"/>
      <point x="244" y="562" type="line"/>
      <point x="244" y="371" type="line"/>
      <point x="52" y="371" type="line"/>
      <point x="52" y="301" type="line"/>
      <point x="244" y="303" type="line"/>
      <point x="244" y="109" type="line"/>
      <point x="314" y="109" type="line"/>
      <point x="312" y="304" type="line"/>
      <point x="507" y="306" type="line"/>
    </contour>
    <contour>
      <point x="52" y="66" type="line"/>
      <point x="52" y="0" type="line"/>
      <point x="507" y="0" type="line"/>
      <point x="507" y="71" type="line"/>
    </contour>
  </outline>
</glyph>
<glyph name="mu" format="1">
  <advance width="580"/>
  <unicode hex="00B5"/>
  <outline>
    <contour>
      <point x="484" y="327" type="line" smooth="yes"/>
      <point x="484" y="377"/>
      <point x="491" y="491"/>
      <point x="491" y="491" type="curve"/>
      <point x="485" y="497" type="line"/>
      <point x="485" y="497"/>
      <point x="459" y="494"/>
      <point x="439" y="494" type="curve" smooth="yes"/>
      <point x="428" y="494"/>
      <point x="402" y="497"/>
      <point x="402" y="497" type="curve"/>
      <point x="396" y="491" type="line"/>
      <point x="403" y="357" type="line"/>
      <point x="403" y="210" type="line" smooth="yes"/>
      <point x="403" y="130"/>
      <point x="359" y="54"/>
      <point x="277" y="54" type="curve" smooth="yes"/>
      <point x="203" y="54"/>
      <point x="176" y="109"/>
      <point x="176" y="183" type="curve" smooth="yes"/>
      <point x="176" y="327" type="line" smooth="yes"/>
      <point x="176" y="377"/>
      <point x="183" y="491"/>
      <point x="183" y="491" type="curve"/>
      <point x="177" y="497" type="line"/>
      <point x="177" y="497"/>
      <point x="151" y="494"/>
      <point x="131" y="494" type="curve" smooth="yes"/>
      <point x="124" y="494"/>
      <point x="94" y="497"/>
      <point x="94" y="497" type="curve"/>
      <point x="88" y="491" type="line"/>
      <point x="95" y="357" type="line"/>
      <point x="95" y="-47" type="line" smooth="yes"/>
      <point x="95" y="-64"/>
      <point x="91" y="-176"/>
      <point x="92" y="-210" type="curve"/>
      <point x="101" y="-218" type="line"/>
      <point x="101" y="-218"/>
      <point x="134" y="-214"/>
      <point x="159" y="-214" type="curve" smooth="yes"/>
      <point x="181" y="-214" type="line"/>
      <point x="190" y="-206" type="line"/>
      <point x="190" y="-206"/>
      <point x="171" y="-97"/>
      <point x="170" y="-77" type="curve" smooth="yes"/>
      <point x="165" y="33" type="line"/>
      <point x="188" y="7"/>
      <point x="221" y="-10"/>
      <point x="264" y="-10" type="curve" smooth="yes"/>
      <point x="349" y="-10"/>
      <point x="388" y="36"/>
      <point x="408" y="69" type="curve"/>
      <point x="426" y="14"/>
      <point x="482" y="3"/>
      <point x="529" y="-15" type="curve"/>
      <point x="548" y="27" type="line"/>
      <point x="494" y="57"/>
      <point x="484" y="76"/>
      <point x="484" y="137" type="curve" smooth="yes"/>
    </contour>
  </outline>
</glyph>
<glyph name="paragraph" format="1">
  <advance width="556"/>
  <unicode hex="00B6"/>
  <outline>
    <contour>
      <point x="290" y="316" type="line"/>
      <point x="290" y="712" type="line"/>
      <point x="271" y="714"/>
      <point x="255" y="715"/>
      <point x="240" y="715" type="curve" smooth="yes"/>
      <point x="102" y="715"/>
      <point x="17" y="644"/>
      <point x="17" y="502" type="curve" smooth="yes"/>
      <point x="17" y="367"/>
      <point x="129" y="291"/>
      <point x="263" y="291" type="curve"/>
    </contour>
    <contour>
      <point x="515" y="657" type="line"/>
      <point x="510" y="710" type="line"/>
      <point x="359" y="705" type="line"/>
      <point x="340" y="687" type="line"/>
      <point x="340" y="77" type="line" smooth="yes"/>
      <point x="340" y="32"/>
      <point x="333" y="-16"/>
      <point x="331" y="-26" type="curve"/>
      <point x="235" y="-48" type="line"/>
      <point x="240" y="-95" type="line"/>
      <point x="404" y="-90" type="line"/>
      <point x="417" y="-90" type="line"/>
      <point x="436" y="-72" type="line"/>
      <point x="436" y="-72"/>
      <point x="427" y="27"/>
      <point x="427" y="47" type="curve" smooth="yes"/>
      <point x="427" y="568" type="line" smooth="yes"/>
      <point x="427" y="584"/>
      <point x="433" y="625"/>
      <point x="436" y="641" type="curve"/>
    </contour>
  </outline>
</glyph>
<glyph name="cedilla" format="1">
  <advance width="360"/>
  <unicode hex="00B8"/>
  <outline>
    <contour>
      <point x="208" y="10" type="line"/>
      <point x="160" y="10" type="line"/>
      <point x="151" y="-94" type="line"/>
      <point x="162" y="-104" type="line"/>
      <point x="162" y="-104"/>
      <point x="177" y="-103"/>
      <point x="183" y="-103" type="curve" smooth="yes"/>
      <point x="210" y="-103"/>
      <point x="230" y="-116"/>
      <point x="230" y="-146" type="curve" smooth="yes"/>
      <point x="230" y="-176"/>
      <point x="208" y="-193"/>
      <point x="176" y="-193" type="curve" smooth="yes"/>
      <point x="156" y="-193"/>
      <point x="134" y="-187"/>
      <point x="118" y="-182" type="curve"/>
      <point x="105" y="-217" type="line"/>
      <point x="122" y="-225"/>
      <point x="151" y="-235"/>
      <point x="188" y="-235" type="curve" smooth="yes"/>
      <point x="247" y="-235"/>
      <point x="295" y="-200"/>
      <point x="295" y="-146" type="curve" smooth="yes"/>
      <point x="295" y="-92"/>
      <point x="253" y="-60"/>
      <point x="194" y="-59" type="curve"/>
    </contour>
    <contour>
      <point x="180" y="0" type="move" name="_bottom"/>
    </contour>
  </outline>
</glyph>
<glyph name="ordmasculine" format="1">
  <advance width="345"/>
  <unicode hex="00BA"/>
  <outline>
    <contour>
      <point x="321" y="698"/>
      <point x="269" y="757"/>
      <point x="172" y="757" type="curve" smooth="yes"/>
      <point x="75" y="757"/>
      <point x="24" y="698"/>
      <point x="24" y="599" type="curve" smooth="yes"/>
      <point x="24" y="502"/>
      <point x="75" y="442"/>
      <point x="172" y="442" type="curve" smooth="yes"/>
      <point x="269" y="442"/>
      <point x="321" y="502"/>
      <point x="321" y="599" type="curve" smooth="yes"/>
    </contour>
    <contour>
      <point x="240" y="529"/>
      <point x="222" y="487"/>
      <point x="172" y="487" type="curve" smooth="yes"/>
      <point x="123" y="487"/>
      <point x="105" y="529"/>
      <point x="105" y="599" type="curve" smooth="yes"/>
      <point x="105" y="669"/>
      <point x="123" y="712"/>
      <point x="172" y="712" type="curve" smooth="yes"/>
      <point x="222" y="712"/>
      <point x="240" y="669"/>
      <point x="240" y="599" type="curve" smooth="yes"/>
    </contour>
  </outline>
</glyph>
<glyph name="questiondown" format="1">
  <advance width="403"/>
  <unicode hex="00BF"/>
  <outline>
    <contour>
      <point x="303" y="503"/>
      <point x="325" y="479"/>
      <point x="325" y="438" type="curve" smooth="yes"/>
      <point x="325" y="400"/>
      <point x="304" y="374"/>
      <point x="266" y="374" type="curve" smooth="yes"/>
      <point x="228" y="374"/>
      <point x="207" y="400"/>
      <point x="207" y="438" type="curve" smooth="yes"/>
      <point x="207" y="476"/>
      <point x="228" y="503"/>
      <point x="266" y="503" type="curve" smooth="yes"/>
    </contour>
    <contour>
      <point x="105" y="-104"/>
      <point x="144" y="-177"/>
      <point x="230" y="-177" type="curve" smooth="yes"/>
      <point x="258" y="-177"/>
      <point x="285" y="-173"/>
      <point x="314" y="-151" type="curve"/>
      <point x="318" y="-137"/>
      <point x="320" y="-100"/>
      <point x="320" y="-93" type="curve" smooth="yes"/>
      <point x="318" y="-57" type="line"/>
      <point x="376" y="-57" type="line"/>
      <point x="388" y="-195" type="line"/>
      <point x="336" y="-219"/>
      <point x="290" y="-234"/>
      <point x="231" y="-234" type="curve" smooth="yes"/>
      <point x="95" y="-234"/>
      <point x="11" y="-153"/>
      <point x="11" y="-17" type="curve" smooth="yes"/>
      <point x="11" y="108"/>
      <point x="108" y="182"/>
      <point x="233" y="182" type="curve"/>
      <point x="229" y="270" type="line"/>
      <point x="236" y="276" type="line"/>
      <point x="242" y="275"/>
      <point x="274" y="273"/>
      <point x="304" y="273" type="curve"/>
      <point x="308" y="270" type="line"/>
      <point x="308" y="141" type="line"/>
      <point x="282" y="117" type="line"/>
      <point x="267" y="119"/>
      <point x="243" y="121"/>
      <point x="231" y="121" type="curve" smooth="yes"/>
      <point x="151" y="121"/>
      <point x="105" y="62"/>
      <point x="105" y="-18" type="curve" smooth="yes"/>
    </contour>
  </outline>
</glyph>
<glyph name="AE" format="1">
  <advance width="907"/>
  <unicode hex="00C6"/>
  <outline>
    <contour>
      <point x="827" y="561" type="line"/>
      <point x="820" y="697" type="line"/>
      <point x="801" y="715" type="line"/>
      <point x="801" y="715"/>
      <point x="707" y="705"/>
      <point x="687" y="705" type="curve" smooth="yes"/>
      <point x="388" y="705" type="line" smooth="yes"/>
      <point x="368" y="705"/>
      <point x="272" y="710"/>
      <point x="272" y="710" type="curve"/>
      <point x="267" y="656" type="line"/>
      <point x="345" y="644" type="line"/>
      <point x="111" y="153" type="line" smooth="yes"/>
      <point x="104" y="138"/>
      <point x="73" y="93"/>
      <point x="50" y="61" type="curve"/>
      <point x="-10" y="45" type="line"/>
      <point x="-5" y="-5" type="line"/>
      <point x="-5" y="-5"/>
      <point x="68" y="0"/>
      <point x="88" y="0" type="curve" smooth="yes"/>
      <point x="168" y="0"/>
      <point x="219" y="-5"/>
      <point x="219" y="-5" type="curve"/>
      <point x="226" y="54" type="line"/>
      <point x="144" y="61" type="line"/>
      <point x="149" y="77"/>
      <point x="152" y="93"/>
      <point x="156" y="102" type="curve" smooth="yes"/>
      <point x="225" y="248" type="line"/>
      <point x="439" y="248" type="line"/>
      <point x="457" y="130" type="line" smooth="yes"/>
      <point x="460" y="110"/>
      <point x="462" y="87"/>
      <point x="462" y="61" type="curve"/>
      <point x="380" y="45" type="line"/>
      <point x="385" y="-5" type="line"/>
      <point x="385" y="-5"/>
      <point x="483" y="0"/>
      <point x="503" y="0" type="curve" smooth="yes"/>
      <point x="721" y="0" type="line" smooth="yes"/>
      <point x="741" y="0"/>
      <point x="835" y="-4"/>
      <point x="835" y="-4" type="curve"/>
      <point x="854" y="14" type="line"/>
      <point x="869" y="165" type="line"/>
      <point x="814" y="170" type="line"/>
      <point x="812" y="154"/>
      <point x="803" y="118"/>
      <point x="799" y="103" type="curve" smooth="yes"/>
      <point x="797" y="96"/>
      <point x="788" y="80"/>
      <point x="778" y="66" type="curve"/>
      <point x="756" y="62"/>
      <point x="721" y="57"/>
      <point x="691" y="57" type="curve" smooth="yes"/>
      <point x="569" y="57" type="line"/>
      <point x="544" y="174" type="line"/>
      <point x="520" y="326" type="line"/>
      <point x="546" y="328"/>
      <point x="576" y="330"/>
      <point x="587" y="330" type="curve" smooth="yes"/>
      <point x="615" y="330" type="line" smooth="yes"/>
      <point x="635" y="330"/>
      <point x="695" y="324"/>
      <point x="695" y="324" type="curve"/>
      <point x="704" y="257" type="line"/>
      <point x="752" y="263" type="line"/>
      <point x="752" y="263"/>
      <point x="749" y="322"/>
      <point x="749" y="372" type="curve" smooth="yes"/>
      <point x="750" y="452" type="line"/>
      <point x="704" y="457" type="line"/>
      <point x="695" y="391" type="line"/>
      <point x="695" y="391"/>
      <point x="655" y="382"/>
      <point x="635" y="382" type="curve" smooth="yes"/>
      <point x="587" y="382" type="line" smooth="yes"/>
      <point x="575" y="382"/>
      <point x="539" y="384"/>
      <point x="511" y="386" type="curve"/>
      <point x="487" y="541" type="line" smooth="yes"/>
      <point x="482" y="578"/>
      <point x="478" y="626"/>
      <point x="476" y="648" type="curve"/>
      <point x="657" y="648" type="line" smooth="yes"/>
      <point x="685" y="648"/>
      <point x="716" y="645"/>
      <point x="738" y="643" type="curve"/>
      <point x="748" y="630"/>
      <point x="757" y="617"/>
      <point x="758" y="610" type="curve"/>
      <point x="762" y="595"/>
      <point x="767" y="572"/>
      <point x="769" y="556" type="curve"/>
    </contour>
    <contour>
      <point x="392" y="556" type="line"/>
      <point x="431" y="302" type="line"/>
      <point x="250" y="299" type="line"/>
      <point x="385" y="584" type="line"/>
    </contour>
  </outline>
</glyph>
<glyph name="Ccedilla" format="1">
  <advance width="610"/>
  <unicode hex="00C7"/>
  <outline>
    <contour>
      <point x="392" y="-14" type="line"/>
      <point x="460" y="-10"/>
      <point x="521" y="5"/>
      <point x="575" y="19" type="curve"/>
      <point x="569" y="170" type="line"/>
      <point x="510" y="168" type="line" smooth="yes"/>
      <point x="510" y="168"/>
      <point x="510" y="131"/>
      <point x="508" y="121" type="curve"/>
      <point x="508" y="111"/>
      <point x="501" y="88"/>
      <point x="494" y="65" type="curve"/>
      <point x="452" y="52"/>
      <point x="399" y="43"/>
      <point x="358" y="43" type="curve" smooth="yes"/>
      <point x="215" y="43"/>
      <point x="145" y="180"/>
      <point x="145" y="353" type="curve" smooth="yes"/>
      <point x="145" y="526"/>
      <point x="215" y="662"/>
      <point x="359" y="662" type="curve" smooth="yes"/>
      <point x="397" y="662"/>
      <point x="446" y="652"/>
      <point x="485" y="639" type="curve"/>
      <point x="491" y="619"/>
      <point x="497" y="598"/>
      <point x="497" y="589" type="curve" smooth="yes"/>
      <point x="497" y="542" type="line"/>
      <point x="556" y="538" type="line"/>
      <point x="566" y="686" type="line"/>
      <point x="503" y="702"/>
      <point x="441" y="720"/>
      <point x="359" y="720" type="curve" smooth="yes"/>
      <point x="149" y="720"/>
      <point x="42" y="570"/>
      <point x="42" y="352" type="curve" smooth="yes"/>
      <point x="42" y="138"/>
      <point x="145" y="-9"/>
      <point x="347" y="-15" type="curve"/>
      <point x="340" y="-94" type="line"/>
      <point x="351" y="-104" type="line"/>
      <point x="372" y="-103" type="line"/>
      <point x="399" y="-103"/>
      <point x="419" y="-116"/>
      <point x="419" y="-146" type="curve" smooth="yes"/>
      <point x="419" y="-176"/>
      <point x="397" y="-193"/>
      <point x="365" y="-193" type="curve" smooth="yes"/>
      <point x="345" y="-193"/>
      <point x="323" y="-187"/>
      <point x="307" y="-182" type="curve"/>
      <point x="294" y="-217" type="line"/>
      <point x="311" y="-225"/>
      <point x="340" y="-235"/>
      <point x="377" y="-235" type="curve" smooth="yes"/>
      <point x="436" y="-235"/>
      <point x="484" y="-200"/>
      <point x="484" y="-146" type="curve" smooth="yes"/>
      <point x="484" y="-92"/>
      <point x="442" y="-60"/>
      <point x="383" y="-59" type="curve"/>
    </contour>
  </outline>
</glyph>
<glyph name="Eth" format="1">
  <advance width="721"/>
  <unicode hex="00D0"/>
  <outline>
    <contour>
      <point x="49" y="710" type="line"/>
      <point x="44" y="656" type="line"/>
      <point x="121" y="644" type="line"/>
      <point x="123" y="631"/>
      <point x="130" y="585"/>
      <point x="130" y="568" type="curve" smooth="yes"/>
      <point x="130" y="380" type="line"/>
      <point x="42" y="380" type="line"/>
      <point x="42" y="337" type="line"/>
      <point x="130" y="337" type="line"/>
      <point x="130" y="137" type="line" smooth="yes"/>
      <point x="130" y="120"/>
      <point x="123" y="74"/>
      <point x="121" y="61" type="curve"/>
      <point x="42" y="45" type="line"/>
      <point x="47" y="-5" type="line"/>
      <point x="47" y="-5"/>
      <point x="144" y="0"/>
      <point x="165" y="0" type="curve" smooth="yes"/>
      <point x="225" y="0"/>
      <point x="294" y="-6"/>
      <point x="334" y="-6" type="curve" smooth="yes"/>
      <point x="550" y="-6"/>
      <point x="679" y="139"/>
      <point x="679" y="352" type="curve" smooth="yes"/>
      <point x="679" y="575"/>
      <point x="557" y="715"/>
      <point x="334" y="715" type="curve" smooth="yes"/>
      <point x="268" y="715"/>
      <point x="211" y="707"/>
      <point x="147" y="705" type="curve"/>
    </contour>
    <contour>
      <point x="221" y="337" type="line"/>
      <point x="359" y="337" type="line"/>
      <point x="364" y="380" type="line"/>
      <point x="221" y="380" type="line"/>
      <point x="221" y="538" type="line" smooth="yes"/>
      <point x="221" y="578"/>
      <point x="226" y="631"/>
      <point x="228" y="650" type="curve"/>
      <point x="253" y="653"/>
      <point x="289" y="655"/>
      <point x="335" y="655" type="curve" smooth="yes"/>
      <point x="502" y="655"/>
      <point x="580" y="519"/>
      <point x="580" y="352" type="curve" smooth="yes"/>
      <point x="580" y="187"/>
      <point x="502" y="53"/>
      <point x="335" y="53" type="curve" smooth="yes"/>
      <point x="291" y="53"/>
      <point x="254" y="55"/>
      <point x="228" y="57" type="curve"/>
      <point x="227" y="61"/>
      <point x="221" y="119"/>
      <point x="221" y="167" type="curve" smooth="yes"/>
    </contour>
  </outline>
</glyph>
<glyph name="multiply" format="1">
  <advance width="538"/>
  <unicode hex="00D7"/>
  <outline>
    <contour>
      <point x="425" y="41" type="line"/>
      <point x="478" y="94" type="line"/>
      <point x="321" y="248" type="line"/>
      <point x="477" y="404" type="line"/>
      <point x="424" y="457" type="line"/>
      <point x="269" y="299" type="line"/>
      <point x="110" y="455" type="line"/>
      <point x="60" y="405" type="line"/>
      <point x="218" y="248" type="line"/>
      <point x="62" y="90" type="line"/>
      <point x="112" y="40" type="line"/>
      <point x="269" y="197" type="line"/>
    </contour>
  </outline>
</glyph>
<glyph name="Oslash" format="1">
  <advance width="740"/>
  <unicode hex="00D8"/>
  <outline>
    <contour>
      <point x="642" y="815" type="line"/>
      <point x="600" y="838" type="line"/>
      <point x="522" y="689" type="line"/>
      <point x="479" y="709"/>
      <point x="428" y="720"/>
      <point x="370" y="720" type="curve" smooth="yes"/>
      <point x="153" y="720"/>
      <point x="42" y="570"/>
      <point x="42" y="352" type="curve" smooth="yes"/>
      <point x="42" y="212"/>
      <point x="88" y="100"/>
      <point x="179" y="38" type="curve"/>
      <point x="100" y="-113" type="line"/>
      <point x="140" y="-136" type="line"/>
      <point x="220" y="15" type="line"/>
      <point x="262" y="-4"/>
      <point x="312" y="-15"/>
      <point x="370" y="-15" type="curve" smooth="yes"/>
      <point x="587" y="-15"/>
      <point x="698" y="135"/>
      <point x="698" y="352" type="curve" smooth="yes"/>
      <point x="698" y="491"/>
      <point x="653" y="603"/>
      <point x="563" y="665" type="curve"/>
    </contour>
    <contour>
      <point x="149" y="527"/>
      <point x="221" y="667"/>
      <point x="370" y="667" type="curve" smooth="yes"/>
      <point x="418" y="667"/>
      <point x="457" y="653"/>
      <point x="489" y="628" type="curve"/>
      <point x="217" y="110" type="line"/>
      <point x="172" y="168"/>
      <point x="149" y="255"/>
      <point x="149" y="352" type="curve" smooth="yes"/>
    </contour>
    <contour>
      <point x="323" y="38"/>
      <point x="284" y="52"/>
      <point x="252" y="76" type="curve"/>
      <point x="524" y="592" type="line"/>
      <point x="569" y="535"/>
      <point x="591" y="449"/>
      <point x="591" y="352" type="curve" smooth="yes"/>
      <point x="591" y="178"/>
      <point x="519" y="38"/>
      <point x="370" y="38" type="curve" smooth="yes"/>
    </contour>
  </outline>
</glyph>
<glyph name="atilde" format="1">
  <advance width="505"/>
  <unicode hex="00E3"/>
  <outline>
    <contour>
      <point x="369" y="723" type="line"/>
      <point x="369" y="723"/>
      <point x="343" y="673"/>
      <point x="316" y="673" type="curve" smooth="yes"/>
      <point x="276" y="673"/>
      <point x="201" y="714"/>
      <point x="161" y="714" type="curve" smooth="yes"/>
      <point x="121" y="714"/>
      <point x="79" y="612"/>
      <point x="79" y="612" type="curve"/>
      <point x="115" y="591" type="line"/>
      <point x="115" y="591"/>
      <point x="141" y="644"/>
      <point x="168" y="644" type="curve" smooth="yes"/>
      <point x="208" y="644"/>
      <point x="282" y="603"/>
      <point x="322" y="603" type="curve" smooth="yes"/>
      <point x="362" y="603"/>
      <point x="405" y="702"/>
      <point x="405" y="702" type="curve"/>
    </contour>
    <contour>
      <point x="357" y="0" type="line"/>
      <point x="437" y="0"/>
      <point x="486" y="-5"/>
      <point x="486" y="-5" type="curve"/>
      <point x="493" y="54" type="line"/>
      <point x="424" y="61" type="line"/>
      <point x="424" y="61"/>
      <point x="414" y="117"/>
      <point x="414" y="167" type="curve" smooth="yes"/>
      <point x="414" y="291" type="line" smooth="yes"/>
      <point x="414" y="444"/>
      <point x="368" y="503"/>
      <point x="249" y="503" type="curve" smooth="yes"/>
      <point x="189" y="503"/>
      <point x="128" y="495"/>
      <point x="68" y="479" type="curve"/>
      <point x="79" y="343" type="line"/>
      <point x="137" y="346" type="line"/>
      <point x="137" y="387" type="line"/>
      <point x="144" y="429" type="line"/>
      <point x="169" y="441"/>
      <point x="206" y="449"/>
      <point x="239" y="449" type="curve" smooth="yes"/>
      <point x="302" y="449"/>
      <point x="333" y="404"/>
      <point x="333" y="311" type="curve" smooth="yes"/>
      <point x="333" y="278" type="line"/>
      <point x="173" y="251" type="line" smooth="yes"/>
      <point x="83" y="236"/>
      <point x="39" y="190"/>
      <point x="39" y="118" type="curve" smooth="yes"/>
      <point x="39" y="40"/>
      <point x="95" y="-10"/>
      <point x="184" y="-10" type="curve" smooth="yes"/>
      <point x="249" y="-10"/>
      <point x="317" y="28"/>
      <point x="343" y="79" type="curve"/>
    </contour>
    <contour>
      <point x="333" y="227" type="line"/>
      <point x="333" y="167" type="line"/>
      <point x="323" y="102"/>
      <point x="267" y="54"/>
      <point x="200" y="54" type="curve" smooth="yes"/>
      <point x="153" y="54"/>
      <point x="127" y="83"/>
      <point x="127" y="133" type="curve" smooth="yes"/>
      <point x="127" y="168"/>
      <point x="150" y="193"/>
      <point x="190" y="200" type="curve" smooth="yes"/>
    </contour>
  </outline>
</glyph>
<glyph name="adieresis" format="1">
  <advance width="505"/>
  <unicode hex="00E4"/>
  <outline>
    <contour>
      <point x="88" y="713"/>
      <point x="70" y="689"/>
      <point x="70" y="653" type="curve" smooth="yes"/>
      <point x="70" y="617"/>
      <point x="88" y="594"/>
      <point x="124" y="594" type="curve" smooth="yes"/>
      <point x="160" y="594"/>
      <point x="178" y="617"/>
      <point x="178" y="653" type="curve" smooth="yes"/>
      <point x="178" y="692"/>
      <point x="159" y="713"/>
      <point x="124" y="713" type="curve" smooth="yes"/>
    </contour>
    <contour>
      <point x="324" y="713"/>
      <point x="306" y="689"/>
      <point x="306" y="653" type="curve" smooth="yes"/>
      <point x="306" y="617"/>
      <point x="324" y="594"/>
      <point x="360" y="594" type="curve" smooth="yes"/>
      <point x="396" y="594"/>
      <point x="414" y="617"/>
      <point x="414" y="653" type="curve" smooth="yes"/>
      <point x="414" y="692"/>
      <point x="395" y="713"/>
      <point x="360" y="713" type="curve" smooth="yes"/>
    </contour>
    <contour>
      <point x="357" y="0" type="line"/>
      <point x="437" y="0"/>
      <point x="486" y="-5"/>
      <point x="486" y="-5" type="curve"/>
      <point x="493" y="54" type="line"/>
      <point x="424" y="61" type="line"/>
      <point x="424" y="61"/>
      <point x="414" y="117"/>
      <point x="414" y="167" type="curve" smooth="yes"/>
      <point x="414" y="291" type="line" smooth="yes"/>
      <point x="414" y="444"/>
      <point x="368" y="503"/>
      <point x="249" y="503" type="curve" smooth="yes"/>
      <point x="189" y="503"/>
      <point x="128" y="495"/>
      <point x="68" y="479" type="curve"/>
      <point x="79" y="343" type="line"/>
      <point x="137" y="346" type="line"/>
      <point x="137" y="387" type="line"/>
      <point x="144" y="429" type="line"/>
      <point x="169" y="441"/>
      <point x="206" y="449"/>
      <point x="239" y="449" type="curve" smooth="yes"/>
      <point x="302" y="449"/>
      <point x="333" y="404"/>
      <point x="333" y="311" type="curve" smooth="yes"/>
      <point x="333" y="278" type="line"/>
      <point x="173" y="251" type="line" smooth="yes"/>
      <point x="83" y="236"/>
      <point x="39" y="190"/>
      <point x="39" y="118" type="curve" smooth="yes"/>
      <point x="39" y="40"/>
      <point x="95" y="-10"/>
      <point x="184" y="-10" type="curve" smooth="yes"/>
      <point x="249" y="-10"/>
      <point x="317" y="28"/>
      <point x="343" y="79" type="curve"/>
    </contour>
    <contour>
      <point x="333" y="227" type="line"/>
      <point x="333" y="167" type="line"/>
      <point x="323" y="102"/>
      <point x="267" y="54"/>
      <point x="200" y="54" type="curve" smooth="yes"/>
      <point x="153" y="54"/>
      <point x="127" y="83"/>
      <point x="127" y="133" type="curve" smooth="yes"/>
      <point x="127" y="168"/>
      <point x="150" y="193"/>
      <point x="190" y="200" type="curve" smooth="yes"/>
    </contour>
  </outline>
</glyph>
<glyph name="ae" format="1">
  <advance width="756"/>
  <unicode hex="00E6"/>
  <outline>
    <contour>
      <point x="80" y="344" type="line"/>
      <point x="138" y="347" type="line"/>
      <point x="138" y="383" type="line"/>
      <point x="147" y="430" type="line"/>
      <point x="171" y="442"/>
      <point x="205" y="449"/>
      <point x="240" y="449" type="curve" smooth="yes"/>
      <point x="303" y="449"/>
      <point x="334" y="404"/>
      <point x="334" y="311" type="curve" smooth="yes"/>
      <point x="334" y="277" type="line"/>
      <point x="155" y="247" type="line" smooth="yes"/>
      <point x="80" y="235"/>
      <point x="40" y="191"/>
      <point x="40" y="123" type="curve" smooth="yes"/>
      <point x="40" y="42"/>
      <point x="96" y="-10"/>
      <point x="185" y="-10" type="curve" smooth="yes"/>
      <point x="259" y="-10"/>
      <point x="320" y="29"/>
      <point x="365" y="106" type="curve"/>
      <point x="398" y="31"/>
      <point x="463" y="-10"/>
      <point x="550" y="-10" type="curve" smooth="yes"/>
      <point x="653" y="-10"/>
      <point x="727" y="50"/>
      <point x="727" y="50" type="curve"/>
      <point x="699" y="96" type="line"/>
      <point x="699" y="96"/>
      <point x="639" y="55"/>
      <point x="560" y="55" type="curve" smooth="yes"/>
      <point x="477" y="55"/>
      <point x="418" y="129"/>
      <point x="414" y="238" type="curve"/>
      <point x="713" y="272" type="line"/>
      <point x="728" y="310" type="line"/>
      <point x="719" y="438"/>
      <point x="656" y="502"/>
      <point x="538" y="502" type="curve" smooth="yes"/>
      <point x="478" y="502"/>
      <point x="427" y="480"/>
      <point x="388" y="438" type="curve"/>
      <point x="364" y="482"/>
      <point x="319" y="503"/>
      <point x="250" y="503" type="curve" smooth="yes"/>
      <point x="190" y="503"/>
      <point x="129" y="495"/>
      <point x="69" y="479" type="curve"/>
    </contour>
    <contour>
      <point x="600" y="450"/>
      <point x="638" y="403"/>
      <point x="638" y="322" type="curve" smooth="yes"/>
      <point x="638" y="320" type="line"/>
      <point x="416" y="289" type="line"/>
      <point x="423" y="391"/>
      <point x="466" y="450"/>
      <point x="534" y="450" type="curve" smooth="yes"/>
    </contour>
    <contour>
      <point x="334" y="226" type="line"/>
      <point x="334" y="215" type="line" smooth="yes"/>
      <point x="334" y="124"/>
      <point x="276" y="54"/>
      <point x="201" y="54" type="curve" smooth="yes"/>
      <point x="154" y="54"/>
      <point x="128" y="81"/>
      <point x="128" y="128" type="curve" smooth="yes"/>
      <point x="128" y="171"/>
      <point x="146" y="191"/>
      <point x="191" y="200" type="curve" smooth="yes"/>
    </contour>
  </outline>
</glyph>
<glyph name="ccedilla" format="1">
  <advance width="466"/>
  <unicode hex="00E7"/>
  <outline>
    <contour>
      <point x="291" y="-9" type="line"/>
      <point x="382" y="-2"/>
      <point x="438" y="44"/>
      <point x="438" y="44" type="curve"/>
      <point x="410" y="91" type="line"/>
      <point x="410" y="91"/>
      <point x="348" y="55"/>
      <point x="270" y="55" type="curve" smooth="yes"/>
      <point x="170" y="55"/>
      <point x="134" y="146"/>
      <point x="134" y="246" type="curve" smooth="yes"/>
      <point x="134" y="346"/>
      <point x="170" y="446"/>
      <point x="270" y="446" type="curve" smooth="yes"/>
      <point x="299" y="446"/>
      <point x="323" y="440"/>
      <point x="352" y="416" type="curve"/>
      <point x="356" y="402"/>
      <point x="359" y="389"/>
      <point x="359" y="382" type="curve" smooth="yes"/>
      <point x="359" y="346" type="line"/>
      <point x="417" y="343" type="line"/>
      <point x="427" y="468" type="line"/>
      <point x="367" y="488"/>
      <point x="329" y="503"/>
      <point x="270" y="503" type="curve" smooth="yes"/>
      <point x="117" y="503"/>
      <point x="40" y="399"/>
      <point x="40" y="246" type="curve" smooth="yes"/>
      <point x="40" y="101"/>
      <point x="108" y="1"/>
      <point x="245" y="-9" type="curve"/>
      <point x="238" y="-94" type="line"/>
      <point x="249" y="-104" type="line"/>
      <point x="270" y="-103" type="line"/>
      <point x="297" y="-103"/>
      <point x="317" y="-116"/>
      <point x="317" y="-146" type="curve" smooth="yes"/>
      <point x="317" y="-176"/>
      <point x="295" y="-193"/>
      <point x="263" y="-193" type="curve" smooth="yes"/>
      <point x="243" y="-193"/>
      <point x="221" y="-187"/>
      <point x="205" y="-182" type="curve"/>
      <point x="192" y="-217" type="line"/>
      <point x="209" y="-225"/>
      <point x="238" y="-235"/>
      <point x="275" y="-235" type="curve" smooth="yes"/>
      <point x="334" y="-235"/>
      <point x="382" y="-200"/>
      <point x="382" y="-146" type="curve" smooth="yes"/>
      <point x="382" y="-92"/>
      <point x="340" y="-60"/>
      <point x="281" y="-59" type="curve"/>
    </contour>
  </outline>
</glyph>
<glyph name="egrave" format="1">
  <advance width="478"/>
  <unicode hex="00E8"/>
  <outline>
    <contour>
      <point x="321" y="564" type="line"/>
      <point x="354" y="605" type="line"/>
      <point x="174" y="755" type="line"/>
      <point x="127" y="695" type="line"/>
      <point x="127" y="695"/>
      <point x="233" y="635"/>
      <point x="248" y="624" type="curve"/>
    </contour>
    <contour>
      <point x="180" y="55"/>
      <point x="138" y="147"/>
      <point x="134" y="237" type="curve"/>
      <point x="433" y="237" type="line"/>
      <point x="450" y="270" type="line"/>
      <point x="450" y="410"/>
      <point x="398" y="503"/>
      <point x="258" y="503" type="curve" smooth="yes"/>
      <point x="111" y="503"/>
      <point x="40" y="395"/>
      <point x="40" y="245" type="curve" smooth="yes"/>
      <point x="40" y="94"/>
      <point x="119" y="-10"/>
      <point x="270" y="-10" type="curve" smooth="yes"/>
      <point x="383" y="-10"/>
      <point x="447" y="50"/>
      <point x="447" y="50" type="curve"/>
      <point x="419" y="96" type="line"/>
      <point x="419" y="96"/>
      <point x="355" y="55"/>
      <point x="270" y="55" type="curve" smooth="yes"/>
    </contour>
    <contour>
      <point x="325" y="451"/>
      <point x="358" y="395"/>
      <point x="358" y="324" type="curve"/>
      <point x="357" y="304" type="line"/>
      <point x="135" y="288" type="line"/>
      <point x="142" y="370"/>
      <point x="172" y="451"/>
      <point x="254" y="451" type="curve" smooth="yes"/>
    </contour>
  </outline>
</glyph>
<glyph name="ecircumflex" format="1">
  <advance width="478"/>
  <unicode hex="00EA"/>
  <outline>
    <contour>
      <point x="128" y="564" type="line"/>
      <point x="202" y="625" type="line" smooth="yes"/>
      <point x="209" y="631"/>
      <point x="236" y="650"/>
      <point x="261" y="668" type="curve"/>
      <point x="286" y="650"/>
      <point x="313" y="631"/>
      <point x="320" y="625" type="curve" smooth="yes"/>
      <point x="394" y="564" type="line"/>
      <point x="427" y="596" type="line"/>
      <point x="261" y="765" type="line"/>
      <point x="95" y="596" type="line"/>
    </contour>
    <contour>
      <point x="180" y="55"/>
      <point x="138" y="147"/>
      <point x="134" y="237" type="curve"/>
      <point x="433" y="237" type="line"/>
      <point x="450" y="270" type="line"/>
      <point x="450" y="410"/>
      <point x="398" y="503"/>
      <point x="258" y="503" type="curve" smooth="yes"/>
      <point x="111" y="503"/>
      <point x="40" y="395"/>
      <point x="40" y="245" type="curve" smooth="yes"/>
      <point x="40" y="94"/>
      <point x="119" y="-10"/>
      <point x="270" y="-10" type="curve" smooth="yes"/>
      <point x="383" y="-10"/>
      <point x="447" y="50"/>
      <point x="447" y="50" type="curve"/>
      <point x="419" y="96" type="line"/>
      <point x="419" y="96"/>
      <point x="355" y="55"/>
      <point x="270" y="55" type="curve" smooth="yes"/>
    </contour>
    <contour>
      <point x="325" y="451"/>
      <point x="358" y="395"/>
      <point x="358" y="324" type="curve"/>
      <point x="357" y="304" type="line"/>
      <point x="135" y="288" type="line"/>
      <point x="142" y="370"/>
      <point x="172" y="451"/>
      <point x="254" y="451" type="curve" smooth="yes"/>
    </contour>
  </outline>
</glyph>
<glyph name="edieresis" format="1">
  <advance width="478"/>
  <unicode hex="00EB"/>
  <outline>
    <contour>
      <point x="179" y="594"/>
      <point x="197" y="617"/>
      <point x="197" y="653" type="curve" smooth="yes"/>
      <point x="197" y="692"/>
      <point x="178" y="713"/>
      <point x="143" y="713" type="curve" smooth="yes"/>
      <point x="107" y="713"/>
      <point x="89" y="689"/>
      <point x="89" y="653" type="curve" smooth="yes"/>
      <point x="89" y="617"/>
      <point x="107" y="594"/>
      <point x="143" y="594" type="curve" smooth="yes"/>
    </contour>
    <contour>
      <point x="415" y="594"/>
      <point x="433" y="617"/>
      <point x="433" y="653" type="curve" smooth="yes"/>
      <point x="433" y="692"/>
      <point x="414" y="713"/>
      <point x="379" y="713" type="curve" smooth="yes"/>
      <point x="343" y="713"/>
      <point x="325" y="689"/>
      <point x="325" y="653" type="curve" smooth="yes"/>
      <point x="325" y="617"/>
      <point x="343" y="594"/>
      <point x="379" y="594" type="curve" smooth="yes"/>
    </contour>
    <contour>
      <point x="180" y="55"/>
      <point x="138" y="147"/>
      <point x="134" y="237" type="curve"/>
      <point x="433" y="237" type="line"/>
      <point x="450" y="270" type="line"/>
      <point x="450" y="410"/>
      <point x="398" y="503"/>
      <point x="258" y="503" type="curve" smooth="yes"/>
      <point x="111" y="503"/>
      <point x="40" y="395"/>
      <point x="40" y="245" type="curve" smooth="yes"/>
      <point x="40" y="94"/>
      <point x="119" y="-10"/>
      <point x="270" y="-10" type="curve" smooth="yes"/>
      <point x="383" y="-10"/>
      <point x="447" y="50"/>
      <point x="447" y="50" type="curve"/>
      <point x="419" y="96" type="line"/>
      <point x="419" y="96"/>
      <point x="355" y="55"/>
      <point x="270" y="55" type="curve" smooth="yes"/>
    </contour>
    <contour>
      <point x="325" y="451"/>
      <point x="358" y="395"/>
      <point x="358" y="324" type="curve"/>
      <point x="357" y="304" type="line"/>
      <point x="135" y="288" type="line"/>
      <point x="142" y="370"/>
      <point x="172" y="451"/>
      <point x="254" y="451" type="curve" smooth="yes"/>
    </contour>
  </outline>
</glyph>
<glyph name="eth" format="1">
  <advance width="543"/>
  <unicode hex="00F0"/>
  <outline>
    <contour>
      <point x="468" y="697" type="line"/>
      <point x="446" y="734" type="line"/>
      <point x="331" y="674" type="line"/>
      <point x="291" y="712"/>
      <point x="243" y="743"/>
      <point x="187" y="765" type="curve"/>
      <point x="168" y="724" type="line"/>
      <point x="211" y="702"/>
      <point x="247" y="676"/>
      <point x="277" y="646" type="curve"/>
      <point x="159" y="585" type="line"/>
      <point x="181" y="550" type="line"/>
      <point x="305" y="614" type="line"/>
      <point x="386" y="511"/>
      <point x="407" y="376"/>
      <point x="407" y="251" type="curve" smooth="yes"/>
      <point x="407" y="145"/>
      <point x="373" y="47"/>
      <point x="270" y="47" type="curve" smooth="yes"/>
      <point x="172" y="47"/>
      <point x="136" y="138"/>
      <point x="136" y="236" type="curve" smooth="yes"/>
      <point x="136" y="334"/>
      <point x="174" y="426"/>
      <point x="267" y="426" type="curve" smooth="yes"/>
      <point x="283" y="426"/>
      <point x="307" y="424"/>
      <point x="320" y="422" type="curve"/>
      <point x="328" y="467" type="line"/>
      <point x="310" y="474"/>
      <point x="287" y="483"/>
      <point x="258" y="483" type="curve" smooth="yes"/>
      <point x="128" y="483"/>
      <point x="41" y="380"/>
      <point x="41" y="236" type="curve" smooth="yes"/>
      <point x="41" y="92"/>
      <point x="126" y="-10"/>
      <point x="270" y="-10" type="curve" smooth="yes"/>
      <point x="422" y="-10"/>
      <point x="501" y="96"/>
      <point x="501" y="252" type="curve" smooth="yes"/>
      <point x="501" y="396"/>
      <point x="456" y="539"/>
      <point x="362" y="643" type="curve"/>
    </contour>
  </outline>
</glyph>
<glyph name="oacute" format="1">
  <advance width="548"/>
  <unicode hex="00F3"/>
  <outline>
    <contour>
      <point x="368" y="755" type="line"/>
      <point x="188" y="605" type="line"/>
      <point x="221" y="564" type="line"/>
      <point x="294" y="624" type="line"/>
      <point x="309" y="635"/>
      <point x="415" y="695"/>
      <point x="415" y="695" type="curve"/>
    </contour>
    <contour>
      <point x="504" y="401"/>
      <point x="428" y="503"/>
      <point x="274" y="503" type="curve" smooth="yes"/>
      <point x="122" y="503"/>
      <point x="44" y="399"/>
      <point x="44" y="246" type="curve" smooth="yes"/>
      <point x="44" y="94"/>
      <point x="122" y="-10"/>
      <point x="274" y="-10" type="curve" smooth="yes"/>
      <point x="426" y="-10"/>
      <point x="504" y="94"/>
      <point x="504" y="246" type="curve" smooth="yes"/>
    </contour>
    <contour>
      <point x="410" y="143"/>
      <point x="377" y="47"/>
      <point x="274" y="47" type="curve" smooth="yes"/>
      <point x="171" y="47"/>
      <point x="138" y="143"/>
      <point x="138" y="246" type="curve" smooth="yes"/>
      <point x="138" y="349"/>
      <point x="171" y="446"/>
      <point x="274" y="446" type="curve" smooth="yes"/>
      <point x="377" y="446"/>
      <point x="410" y="349"/>
      <point x="410" y="246" type="curve" smooth="yes"/>
    </contour>
  </outline>
</glyph>
<glyph name="ocircumflex" format="1">
  <advance width="548"/>
  <unicode hex="00F4"/>
  <outline>
    <contour>
      <point x="149" y="564" type="line"/>
      <point x="223" y="625" type="line" smooth="yes"/>
      <point x="230" y="631"/>
      <point x="257" y="650"/>
      <point x="282" y="668" type="curve"/>
      <point x="307" y="650"/>
      <point x="334" y="631"/>
      <point x="341" y="625" type="curve" smooth="yes"/>
      <point x="415" y="564" type="line"/>
      <point x="448" y="596" type="line"/>
      <point x="282" y="765" type="line"/>
      <point x="116" y="596" type="line"/>
    </contour>
    <contour>
      <point x="122" y="503"/>
      <point x="44" y="399"/>
      <point x="44" y="246" type="curve" smooth="yes"/>
      <point x="44" y="94"/>
      <point x="122" y="-10"/>
      <point x="274" y="-10" type="curve" smooth="yes"/>
      <point x="426" y="-10"/>
      <point x="504" y="94"/>
      <point x="504" y="246" type="curve" smooth="yes"/>
      <point x="504" y="401"/>
      <point x="428" y="503"/>
      <point x="274" y="503" type="curve" smooth="yes"/>
    </contour>
    <contour>
      <point x="171" y="47"/>
      <point x="138" y="143"/>
      <point x="138" y="246" type="curve" smooth="yes"/>
      <point x="138" y="349"/>
      <point x="171" y="446"/>
      <point x="274" y="446" type="curve" smooth="yes"/>
      <point x="377" y="446"/>
      <point x="410" y="349"/>
      <point x="410" y="246" type="curve" smooth="yes"/>
      <point x="410" y="143"/>
      <point x="377" y="47"/>
      <point x="274" y="47" type="curve" smooth="yes"/>
    </contour>
  </outline>
</glyph>
<glyph name="otilde" format="1">
  <advance width="548"/>
  <unicode hex="00F5"/>
  <outline>
    <contour>
      <point x="409" y="723" type="line"/>
      <point x="409" y="723"/>
      <point x="383" y="673"/>
      <point x="356" y="673" type="curve" smooth="yes"/>
      <point x="316" y="673"/>
      <point x="241" y="714"/>
      <point x="201" y="714" type="curve" smooth="yes"/>
      <point x="161" y="714"/>
      <point x="119" y="612"/>
      <point x="119" y="612" type="curve"/>
      <point x="155" y="591" type="line"/>
      <point x="155" y="591"/>
      <point x="181" y="644"/>
      <point x="208" y="644" type="curve" smooth="yes"/>
      <point x="248" y="644"/>
      <point x="322" y="603"/>
      <point x="362" y="603" type="curve" smooth="yes"/>
      <point x="402" y="603"/>
      <point x="445" y="702"/>
      <point x="445" y="702" type="curve"/>
    </contour>
    <contour>
      <point x="504" y="401"/>
      <point x="428" y="503"/>
      <point x="274" y="503" type="curve" smooth="yes"/>
      <point x="122" y="503"/>
      <point x="44" y="399"/>
      <point x="44" y="246" type="curve" smooth="yes"/>
      <point x="44" y="94"/>
      <point x="122" y="-10"/>
      <point x="274" y="-10" type="curve" smooth="yes"/>
      <point x="426" y="-10"/>
      <point x="504" y="94"/>
      <point x="504" y="246" type="curve" smooth="yes"/>
    </contour>
    <contour>
      <point x="410" y="143"/>
      <point x="377" y="47"/>
      <point x="274" y="47" type="curve" smooth="yes"/>
      <point x="171" y="47"/>
      <point x="138" y="143"/>
      <point x="138" y="246" type="curve" smooth="yes"/>
      <point x="138" y="349"/>
      <point x="171" y="446"/>
      <point x="274" y="446" type="curve" smooth="yes"/>
      <point x="377" y="446"/>
      <point x="410" y="349"/>
      <point x="410" y="246" type="curve" smooth="yes"/>
    </contour>
  </outline>
</glyph>
<glyph name="odieresis" format="1">
  <advance width="548"/>
  <unicode hex="00F6"/>
  <outline>
    <contour>
      <point x="128" y="713"/>
      <point x="110" y="689"/>
      <point x="110" y="653" type="curve" smooth="yes"/>
      <point x="110" y="617"/>
      <point x="128" y="594"/>
      <point x="164" y="594" type="curve" smooth="yes"/>
      <point x="200" y="594"/>
      <point x="218" y="617"/>
      <point x="218" y="653" type="curve" smooth="yes"/>
      <point x="218" y="692"/>
      <point x="199" y="713"/>
      <point x="164" y="713" type="curve" smooth="yes"/>
    </contour>
    <contour>
      <point x="364" y="713"/>
      <point x="346" y="689"/>
      <point x="346" y="653" type="curve" smooth="yes"/>
      <point x="346" y="617"/>
      <point x="364" y="594"/>
      <point x="400" y="594" type="curve" smooth="yes"/>
      <point x="436" y="594"/>
      <point x="454" y="617"/>
      <point x="454" y="653" type="curve" smooth="yes"/>
      <point x="454" y="692"/>
      <point x="435" y="713"/>
      <point x="400" y="713" type="curve" smooth="yes"/>
    </contour>
    <contour>
      <point x="504" y="401"/>
      <point x="428" y="503"/>
      <point x="274" y="503" type="curve" smooth="yes"/>
      <point x="122" y="503"/>
      <point x="44" y="399"/>
      <point x="44" y="246" type="curve" smooth="yes"/>
      <point x="44" y="94"/>
      <point x="122" y="-10"/>
      <point x="274" y="-10" type="curve" smooth="yes"/>
      <point x="426" y="-10"/>
      <point x="504" y="94"/>
      <point x="504" y="246" type="curve" smooth="yes"/>
    </contour>
    <contour>
      <point x="410" y="143"/>
      <point x="377" y="47"/>
      <point x="274" y="47" type="curve" smooth="yes"/>
      <point x="171" y="47"/>
      <point x="138" y="143"/>
      <point x="138" y="246" type="curve" smooth="yes"/>
      <point x="138" y="349"/>
      <point x="171" y="446"/>
      <point x="274" y="446" type="curve" smooth="yes"/>
      <point x="377" y="446"/>
      <point x="410" y="349"/>
      <point x="410" y="246" type="curve" smooth="yes"/>
    </contour>
  </outline>
</glyph>
<glyph name="divide" format="1">
  <advance width="560"/>
  <unicode hex="00F7"/>
  <outline>
    <contour>
      <point x="324" y="488"/>
      <point x="346" y="464"/>
      <point x="346" y="423" type="curve" smooth="yes"/>
      <point x="346" y="385"/>
      <point x="325" y="359"/>
      <point x="287" y="359" type="curve" smooth="yes"/>
      <point x="249" y="359"/>
      <point x="228" y="385"/>
      <point x="228" y="423" type="curve" smooth="yes"/>
      <point x="228" y="461"/>
      <point x="249" y="488"/>
      <point x="287" y="488" type="curve" smooth="yes"/>
    </contour>
    <contour>
      <point x="52" y="213" type="line"/>
      <point x="52" y="279" type="line"/>
      <point x="507" y="284" type="line"/>
      <point x="507" y="213" type="line"/>
    </contour>
    <contour>
      <point x="324" y="135"/>
      <point x="346" y="111"/>
      <point x="346" y="70" type="curve" smooth="yes"/>
      <point x="346" y="32"/>
      <point x="325" y="6"/>
      <point x="287" y="6" type="curve" smooth="yes"/>
      <point x="249" y="6"/>
      <point x="228" y="32"/>
      <point x="228" y="70" type="curve" smooth="yes"/>
      <point x="228" y="108"/>
      <point x="249" y="135"/>
      <point x="287" y="135" type="curve" smooth="yes"/>
    </contour>
  </outline>
</glyph>
<glyph name="oslash" format="1">
  <advance width="540"/>
  <unicode hex="00F8"/>
  <outline>
    <contour>
      <point x="480" y="578" type="line"/>
      <point x="440" y="598" type="line"/>
      <point x="378" y="481" type="line"/>
      <point x="348" y="495"/>
      <point x="312" y="503"/>
      <point x="270" y="503" type="curve" smooth="yes"/>
      <point x="118" y="503"/>
      <point x="40" y="399"/>
      <point x="40" y="246" type="curve" smooth="yes"/>
      <point x="40" y="147"/>
      <point x="73" y="68"/>
      <point x="138" y="26" type="curve"/>
      <point x="83" y="-79" type="line"/>
      <point x="122" y="-99" type="line"/>
      <point x="177" y="6" type="line"/>
      <point x="204" y="-5"/>
      <point x="235" y="-10"/>
      <point x="270" y="-10" type="curve" smooth="yes"/>
      <point x="422" y="-10"/>
      <point x="500" y="94"/>
      <point x="500" y="246" type="curve" smooth="yes"/>
      <point x="500" y="340"/>
      <point x="472" y="414"/>
      <point x="417" y="458" type="curve"/>
    </contour>
    <contour>
      <point x="134" y="349"/>
      <point x="167" y="446"/>
      <point x="270" y="446" type="curve" smooth="yes"/>
      <point x="302" y="446"/>
      <point x="327" y="437"/>
      <point x="347" y="421" type="curve"/>
      <point x="173" y="93" type="line"/>
      <point x="145" y="130"/>
      <point x="134" y="187"/>
      <point x="134" y="246" type="curve" smooth="yes"/>
    </contour>
    <contour>
      <point x="245" y="47"/>
      <point x="224" y="53"/>
      <point x="207" y="62" type="curve"/>
      <point x="377" y="384" type="line"/>
      <point x="398" y="347"/>
      <point x="406" y="297"/>
      <point x="406" y="246" type="curve" smooth="yes"/>
      <point x="406" y="143"/>
      <point x="373" y="47"/>
      <point x="270" y="47" type="curve" smooth="yes"/>
    </contour>
  </outline>
</glyph>
<glyph name="ucircumflex" format="1">
  <advance width="592"/>
  <unicode hex="00FB"/>
  <outline>
    <contour>
      <point x="141" y="564" type="line"/>
      <point x="215" y="625" type="line" smooth="yes"/>
      <point x="222" y="631"/>
      <point x="249" y="650"/>
      <point x="274" y="668" type="curve"/>
      <point x="299" y="650"/>
      <point x="326" y="631"/>
      <point x="333" y="625" type="curve" smooth="yes"/>
      <point x="407" y="564" type="line"/>
      <point x="440" y="596" type="line"/>
      <point x="274" y="765" type="line"/>
      <point x="108" y="596" type="line"/>
    </contour>
    <contour>
      <point x="565" y="54" type="line"/>
      <point x="496" y="61" type="line"/>
      <point x="496" y="61"/>
      <point x="486" y="117"/>
      <point x="486" y="167" type="curve" smooth="yes"/>
      <point x="486" y="323" type="line" smooth="yes"/>
      <point x="486" y="373"/>
      <point x="493" y="476"/>
      <point x="493" y="476" type="curve"/>
      <point x="474" y="494" type="line"/>
      <point x="416" y="494" type="line" smooth="yes"/>
      <point x="396" y="494"/>
      <point x="329" y="498"/>
      <point x="329" y="498" type="curve"/>
      <point x="324" y="445" type="line"/>
      <point x="395" y="429" type="line"/>
      <point x="395" y="429"/>
      <point x="405" y="373"/>
      <point x="405" y="353" type="curve" smooth="yes"/>
      <point x="405" y="210" type="line" smooth="yes"/>
      <point x="405" y="130"/>
      <point x="361" y="54"/>
      <point x="279" y="54" type="curve" smooth="yes"/>
      <point x="205" y="54"/>
      <point x="180" y="109"/>
      <point x="180" y="183" type="curve" smooth="yes"/>
      <point x="180" y="323" type="line" smooth="yes"/>
      <point x="180" y="373"/>
      <point x="187" y="476"/>
      <point x="187" y="476" type="curve"/>
      <point x="168" y="494" type="line"/>
      <point x="110" y="494" type="line" smooth="yes"/>
      <point x="90" y="494"/>
      <point x="28" y="498"/>
      <point x="28" y="498" type="curve"/>
      <point x="23" y="445" type="line"/>
      <point x="89" y="429" type="line"/>
      <point x="89" y="429"/>
      <point x="99" y="373"/>
      <point x="99" y="353" type="curve" smooth="yes"/>
      <point x="99" y="217" type="line" smooth="yes"/>
      <point x="99" y="82"/>
      <point x="123" y="-10"/>
      <point x="261" y="-10" type="curve" smooth="yes"/>
      <point x="354" y="-10"/>
      <point x="397" y="45"/>
      <point x="416" y="78" type="curve"/>
      <point x="429" y="0" type="line"/>
      <point x="509" y="0"/>
      <point x="558" y="-5"/>
      <point x="558" y="-5" type="curve"/>
    </contour>
  </outline>
</glyph>
<glyph name="udieresis" format="1">
  <advance width="592"/>
  <unicode hex="00FC"/>
  <outline>
    <contour>
      <point x="120" y="713"/>
      <point x="102" y="689"/>
      <point x="102" y="653" type="curve" smooth="yes"/>
      <point x="102" y="617"/>
      <point x="120" y="594"/>
      <point x="156" y="594" type="curve" smooth="yes"/>
      <point x="192" y="594"/>
      <point x="210" y="617"/>
      <point x="210" y="653" type="curve" smooth="yes"/>
      <point x="210" y="692"/>
      <point x="191" y="713"/>
      <point x="156" y="713" type="curve" smooth="yes"/>
    </contour>
    <contour>
      <point x="356" y="713"/>
      <point x="338" y="689"/>
      <point x="338" y="653" type="curve" smooth="yes"/>
      <point x="338" y="617"/>
      <point x="356" y="594"/>
      <point x="392" y="594" type="curve" smooth="yes"/>
      <point x="428" y="594"/>
      <point x="446" y="617"/>
      <point x="446" y="653" type="curve" smooth="yes"/>
      <point x="446" y="692"/>
      <point x="427" y="713"/>
      <point x="392" y="713" type="curve" smooth="yes"/>
    </contour>
    <contour>
      <point x="324" y="445" type="line"/>
      <point x="395" y="429" type="line"/>
      <point x="395" y="429"/>
      <point x="405" y="373"/>
      <point x="405" y="353" type="curve" smooth="yes"/>
      <point x="405" y="210" type="line" smooth="yes"/>
      <point x="405" y="130"/>
      <point x="361" y="54"/>
      <point x="279" y="54" type="curve" smooth="yes"/>
      <point x="205" y="54"/>
      <point x="180" y="109"/>
      <point x="180" y="183" type="curve" smooth="yes"/>
      <point x="180" y="323" type="line" smooth="yes"/>
      <point x="180" y="373"/>
      <point x="187" y="476"/>
      <point x="187" y="476" type="curve"/>
      <point x="168" y="494" type="line"/>
      <point x="110" y="494" type="line" smooth="yes"/>
      <point x="90" y="494"/>
      <point x="28" y="498"/>
      <point x="28" y="498" type="curve"/>
      <point x="23" y="445" type="line"/>
      <point x="89" y="429" type="line"/>
      <point x="89" y="429"/>
      <point x="99" y="373"/>
      <point x="99" y="353" type="curve" smooth="yes"/>
      <point x="99" y="217" type="line" smooth="yes"/>
      <point x="99" y="82"/>
      <point x="123" y="-10"/>
      <point x="261" y="-10" type="curve" smooth="yes"/>
      <point x="354" y="-10"/>
      <point x="397" y="45"/>
      <point x="416" y="78" type="curve"/>
      <point x="429" y="0" type="line"/>
      <point x="509" y="0"/>
      <point x="558" y="-5"/>
      <point x="558" y="-5" type="curve"/>
      <point x="565" y="54" type="line"/>
      <point x="496" y="61" type="line"/>
      <point x="496" y="61"/>
      <point x="486" y="117"/>
      <point x="486" y="167" type="curve" smooth="yes"/>
      <point x="486" y="323" type="line" smooth="yes"/>
      <point x="486" y="373"/>
      <point x="493" y="476"/>
      <point x="493" y="476" type="curve"/>
      <point x="474" y="494" type="line"/>
      <point x="416" y="494" type="line" smooth="yes"/>
      <point x="396" y="494"/>
      <point x="329" y="498"/>
      <point x="329" y="498" type="curve"/>
    </contour>
  </outline>
</glyph>
<glyph name="OE" format="1">
  <advance width="981"/>
  <unicode hex="0152"/>
  <outline>
    <contour>
      <point x="928" y="14" type="line"/>
      <point x="943" y="165" type="line"/>
      <point x="888" y="170" type="line"/>
      <point x="886" y="154"/>
      <point x="876" y="118"/>
      <point x="873" y="103" type="curve" smooth="yes"/>
      <point x="871" y="94"/>
      <point x="862" y="80"/>
      <point x="852" y="66" type="curve"/>
      <point x="830" y="62"/>
      <point x="796" y="57"/>
      <point x="765" y="57" type="curve" smooth="yes"/>
      <point x="621" y="57" type="line"/>
      <point x="619" y="76"/>
      <point x="614" y="127"/>
      <point x="614" y="167" type="curve" smooth="yes"/>
      <point x="614" y="337" type="line"/>
      <point x="631" y="339"/>
      <point x="648" y="340"/>
      <point x="657" y="340" type="curve" smooth="yes"/>
      <point x="710" y="340" type="line" smooth="yes"/>
      <point x="730" y="340"/>
      <point x="790" y="334"/>
      <point x="790" y="334" type="curve"/>
      <point x="799" y="267" type="line"/>
      <point x="847" y="273" type="line"/>
      <point x="847" y="273"/>
      <point x="844" y="332"/>
      <point x="844" y="382" type="curve" smooth="yes"/>
      <point x="845" y="462" type="line"/>
      <point x="799" y="467" type="line"/>
      <point x="790" y="401" type="line"/>
      <point x="790" y="401"/>
      <point x="750" y="392"/>
      <point x="730" y="392" type="curve" smooth="yes"/>
      <point x="657" y="392" type="line" smooth="yes"/>
      <point x="649" y="392"/>
      <point x="631" y="393"/>
      <point x="614" y="394" type="curve"/>
      <point x="614" y="538" type="line" smooth="yes"/>
      <point x="614" y="574"/>
      <point x="617" y="611"/>
      <point x="621" y="649" type="curve"/>
      <point x="752" y="649" type="line" smooth="yes"/>
      <point x="780" y="649"/>
      <point x="811" y="646"/>
      <point x="833" y="644" type="curve"/>
      <point x="843" y="631"/>
      <point x="852" y="617"/>
      <point x="853" y="610" type="curve"/>
      <point x="857" y="595"/>
      <point x="862" y="572"/>
      <point x="864" y="556" type="curve"/>
      <point x="922" y="561" type="line"/>
      <point x="915" y="697" type="line"/>
      <point x="896" y="715" type="line"/>
      <point x="896" y="715"/>
      <point x="802" y="705"/>
      <point x="782" y="705" type="curve" smooth="yes"/>
      <point x="558" y="705" type="line" smooth="yes"/>
      <point x="545" y="705"/>
      <point x="497" y="707"/>
      <point x="467" y="709" type="curve"/>
      <point x="437" y="716"/>
      <point x="405" y="720"/>
      <point x="370" y="720" type="curve" smooth="yes"/>
      <point x="153" y="720"/>
      <point x="42" y="570"/>
      <point x="42" y="352" type="curve" smooth="yes"/>
      <point x="42" y="135"/>
      <point x="153" y="-15"/>
      <point x="370" y="-15" type="curve" smooth="yes"/>
      <point x="405" y="-15"/>
      <point x="437" y="-11"/>
      <point x="467" y="-4" type="curve"/>
      <point x="497" y="-2"/>
      <point x="545" y="0"/>
      <point x="558" y="0" type="curve" smooth="yes"/>
      <point x="795" y="0" type="line" smooth="yes"/>
      <point x="815" y="0"/>
      <point x="909" y="-4"/>
      <point x="909" y="-4" type="curve"/>
    </contour>
    <contour>
      <point x="523" y="108" type="line"/>
      <point x="487" y="64"/>
      <point x="435" y="38"/>
      <point x="370" y="38" type="curve" smooth="yes"/>
      <point x="221" y="38"/>
      <point x="149" y="178"/>
      <point x="149" y="352" type="curve" smooth="yes"/>
      <point x="149" y="527"/>
      <point x="221" y="667"/>
      <point x="370" y="667" type="curve" smooth="yes"/>
      <point x="434" y="667"/>
      <point x="486" y="639"/>
      <point x="523" y="595" type="curve"/>
    </contour>
  </outline>
</glyph>
